GeoramaCondensed-ExtraBold.ufo
<glyph name="exclam" format="2">
  <advance width="207.40799999999996"/>
  <unicode hex="0021"/>
  <outline>
    <contour>
      <point x="32.214" y="259.7" type="line"/>
      <point x="174.248" y="259.7" type="line"/>
      <point x="188.35199999999998" y="740.0" type="line"/>
      <point x="20.432000000000002" y="740.0" type="line"/>
    </contour>
    <contour>
      <point x="15.701999999999998" y="94.05600000000001" type="curve" smooth="yes"/>
      <point x="15.701999999999998" y="24.994"/>
      <point x="41.397999999999996" y="-8.686"/>
      <point x="103.70399999999998" y="-8.686" type="curve" smooth="yes"/>
      <point x="166.15" y="-8.686"/>
      <point x="191.70600000000002" y="24.994"/>
      <point x="191.70600000000002" y="94.05600000000001" type="curve" smooth="yes"/>
      <point x="191.70600000000002" y="163.97799999999998"/>
      <point x="166.15" y="197.658"/>
      <point x="103.70399999999998" y="197.658" type="curve" smooth="yes"/>
      <point x="41.257999999999996" y="197.658"/>
      <point x="15.701999999999998" y="163.97799999999998"/>
    </contour>
  </outline>
</glyph>
<glyph name="numbersign" format="2">
  <advance width="461.356"/>
  <unicode hex="0023"/>
  <outline>
    <contour>
      <point x="43.432" y="404.542" type="line"/>
      <point x="88.436" y="404.542" type="line"/>
      <point x="77.778" y="286.832" type="line"/>
      <point x="29.424" y="286.832" type="line"/>
      <point x="29.424" y="147.06199999999998" type="line"/>
      <point x="67.982" y="147.06199999999998" type="line"/>
      <point x="56.31799999999999" y="0.0" type="line"/>
      <point x="182.528" y="0.0" type="line"/>
      <point x="194.192" y="147.06199999999998" type="line"/>
      <point x="237.916" y="147.06199999999998" type="line"/>
      <point x="226.25199999999998" y="0.0" type="line"/>
      <point x="352.46200000000005" y="0.0" type="line"/>
      <point x="364.126" y="147.06199999999998" type="line"/>
      <point x="418.01" y="147.06199999999998" type="line"/>
      <point x="418.01" y="286.832" type="line"/>
      <point x="373.92199999999997" y="286.832" type="line"/>
      <point x="384.58" y="404.542" type="line"/>
      <point x="432.01800000000003" y="404.542" type="line"/>
      <point x="432.01800000000003" y="545.688" type="line"/>
      <point x="394.402" y="545.688" type="line"/>
      <point x="406.838" y="700.0" type="line"/>
      <point x="280.62800000000004" y="700.0" type="line"/>
      <point x="268.19199999999995" y="545.688" type="line"/>
      <point x="224.468" y="545.688" type="line"/>
      <point x="236.904" y="700.0" type="line"/>
      <point x="110.69399999999999" y="700.0" type="line"/>
      <point x="98.25800000000001" y="545.688" type="line"/>
      <point x="43.432" y="545.688" type="line"/>
    </contour>
    <contour>
      <point x="214.646" y="404.542" type="line"/>
      <point x="258.36999999999995" y="404.542" type="line"/>
      <point x="247.71200000000002" y="286.832" type="line"/>
      <point x="203.988" y="286.832" type="line"/>
    </contour>
  </outline>
</glyph>
<glyph name="dollar" format="2">
  <advance width="461.356"/>
  <unicode hex="0024"/>
  <outline>
    <contour>
      <point x="202.314" y="-10.0" type="curve" smooth="yes"/>
      <point x="322.294" y="-10.959999999999999"/>
      <point x="437.974" y="40.0"/>
      <point x="437.974" y="197.784" type="curve" smooth="yes"/>
      <point x="437.974" y="320.98"/>
      <point x="366.77200000000005" y="373.79"/>
      <point x="293.81399999999996" y="413.234" type="curve" smooth="yes"/>
      <point x="236.518" y="443.74"/>
      <point x="197.282" y="467.38200000000006"/>
      <point x="197.282" y="510.582" type="curve" smooth="yes"/>
      <point x="197.282" y="542.016"/>
      <point x="217.10600000000002" y="555.64"/>
      <point x="264.55" y="555.64" type="curve" smooth="yes"/>
      <point x="306.528" y="555.64"/>
      <point x="350.7900000000001" y="547.7640000000001"/>
      <point x="388.26" y="533.4180000000001" type="curve"/>
      <point x="419.624" y="676.2600000000001" type="line"/>
      <point x="380.68600000000004" y="695.2579999999999"/>
      <point x="311.618" y="710.0"/>
      <point x="240.588" y="710.0" type="curve" smooth="yes"/>
      <point x="112.87400000000001" y="709.972"/>
      <point x="32.824000000000005" y="634.1840000000001"/>
      <point x="32.824000000000005" y="507.874" type="curve" smooth="yes"/>
      <point x="32.824000000000005" y="396.2780000000001"/>
      <point x="91.03800000000001" y="336.552"/>
      <point x="154.37400000000002" y="295.374" type="curve" smooth="yes"/>
      <point x="222.522" y="255.02"/>
      <point x="275.952" y="231.98000000000002"/>
      <point x="275.952" y="189.336" type="curve" smooth="yes"/>
      <point x="275.952" y="157.63600000000002"/>
      <point x="251.554" y="139.298"/>
      <point x="204.636" y="139.298" type="curve" smooth="yes"/>
      <point x="163.162" y="139.298"/>
      <point x="113.05399999999999" y="150.126"/>
      <point x="54.290000000000006" y="171.73000000000002" type="curve"/>
      <point x="23.482" y="30.914" type="line"/>
      <point x="70.392" y="7.8919999999999995"/>
      <point x="140.514" y="-9.584"/>
    </contour>
    <contour>
      <point x="157.64600000000002" y="-105.0" type="line"/>
      <point x="302.36" y="-105.0" type="line"/>
      <point x="302.36" y="19.678" type="line"/>
      <point x="157.64600000000002" y="9.316" type="line"/>
    </contour>
    <contour>
      <point x="157.64600000000002" y="678.7760000000001" type="line"/>
      <point x="302.36" y="691.5120000000001" type="line"/>
      <point x="302.36" y="803.452" type="line"/>
      <point x="157.64600000000002" y="803.452" type="line"/>
    </contour>
  </outline>
</glyph>
<glyph name="ampersand" format="2">
  <advance width="554.778"/>
  <unicode hex="0026"/>
  <outline>
    <contour>
      <point x="379.3539999999999" y="-2.1" type="line"/>
      <point x="555.8760000000001" y="-0.6299999999999998" type="line"/>
      <point x="268.24" y="432.166" type="line" smooth="yes"/>
      <point x="243.702" y="468.09799999999996"/>
      <point x="232.84600000000003" y="494.30600000000004"/>
      <point x="232.84600000000003" y="515.1419999999999" type="curve" smooth="yes"/>
      <point x="232.84600000000003" y="544.7380000000002"/>
      <point x="244.13000000000002" y="558.8520000000001"/>
      <point x="266.7900000000001" y="558.8520000000001" type="curve" smooth="yes"/>
      <point x="289.238" y="558.8520000000001"/>
      <point x="298.67800000000005" y="542.736"/>
      <point x="298.67800000000005" y="512.6759999999999" type="curve" smooth="yes"/>
      <point x="298.67800000000005" y="492.22400000000005"/>
      <point x="296.78200000000004" y="477.686"/>
      <point x="284.1360000000001" y="465.184" type="curve"/>
      <point x="340.63" y="378.4359999999999" type="line"/>
      <point x="403.28399999999993" y="408.25199999999995"/>
      <point x="438.864" y="462.974"/>
      <point x="438.864" y="545.556" type="curve" smooth="yes"/>
      <point x="438.864" y="656.922"/>
      <point x="375.34000000000003" y="710.0"/>
      <point x="264.068" y="710.0" type="curve" smooth="yes"/>
      <point x="132.80800000000002" y="710.0"/>
      <point x="69.51400000000001" y="638.292"/>
      <point x="69.51400000000001" y="521.386" type="curve" smooth="yes"/>
      <point x="69.51400000000001" y="462.002"/>
      <point x="93.764" y="405.498"/>
      <point x="130.688" y="351.816" type="curve" smooth="yes"/>
    </contour>
    <contour>
      <point x="217.628" y="-10.0" type="curve" smooth="yes"/>
      <point x="285.56600000000003" y="-10.0"/>
      <point x="334.95" y="14.554000000000002"/>
      <point x="370.66600000000005" y="58.705999999999996" type="curve"/>
      <point x="302.34400000000005" y="160.09199999999998" type="line"/>
      <point x="290.68800000000005" y="140.38800000000003"/>
      <point x="273.89" y="126.884"/>
      <point x="238.99000000000004" y="126.884" type="curve" smooth="yes"/>
      <point x="195.75199999999998" y="126.884"/>
      <point x="164.73999999999995" y="159.402"/>
      <point x="164.73999999999995" y="205.37599999999998" type="curve" smooth="yes"/>
      <point x="164.73999999999995" y="243.558"/>
      <point x="178.34400000000002" y="265.30600000000004"/>
      <point x="204.23600000000002" y="285.314" type="curve"/>
      <point x="133.67800000000003" y="396.562" type="line"/>
      <point x="46.82" y="346.084"/>
      <point x="12.734000000000002" y="275.92199999999997"/>
      <point x="12.734000000000002" y="188.182" type="curve" smooth="yes"/>
      <point x="12.734000000000002" y="67.20799999999998"/>
      <point x="93.10199999999999" y="-10.0"/>
    </contour>
    <contour>
      <point x="453.9440000000001" y="127.36" type="line"/>
      <point x="487.772" y="180.99200000000002"/>
      <point x="506.40799999999996" y="238.368"/>
      <point x="506.40799999999996" y="301.15799999999996" type="curve" smooth="yes"/>
      <point x="506.40799999999996" y="322.43800000000005"/>
      <point x="505.3379999999999" y="341.516"/>
      <point x="503.13" y="360.59000000000003" type="curve"/>
      <point x="375.76599999999996" y="360.23999999999995" type="line"/>
      <point x="377.044" y="349.34000000000003"/>
      <point x="377.9" y="337.49399999999997"/>
      <point x="377.54200000000003" y="323.3059999999999" type="curve" smooth="yes"/>
      <point x="376.896" y="299.48600000000005"/>
      <point x="371.84999999999997" y="281.086"/>
      <point x="363.448" y="264.90600000000006" type="curve"/>
    </contour>
  </outline>
</glyph>
<glyph name="quotesingle" format="2">
  <advance width="195.88199999999998"/>
  <unicode hex="0027"/>
  <outline>
    <contour>
      <point x="28.000000000000004" y="427.0" type="line"/>
      <point x="165.56" y="427.0" type="line"/>
      <point x="174.086" y="700.0" type="line"/>
      <point x="21.796" y="700.0" type="line"/>
    </contour>
  </outline>
</glyph>
<glyph name="parenleft" format="2">
  <advance width="256.05600000000004"/>
  <unicode hex="0028"/>
  <outline>
    <contour>
      <point x="22.629999999999995" y="265.0" type="curve" smooth="yes"/>
      <point x="22.629999999999995" y="-13.963999999999999"/>
      <point x="86.37400000000001" y="-196.51"/>
      <point x="245.49" y="-220.126" type="curve"/>
      <point x="245.49" y="-79.95600000000002" type="line"/>
      <point x="182.25" y="-46.716"/>
      <point x="154.85399999999996" y="23.662"/>
      <point x="154.85399999999996" y="265.0" type="curve" smooth="yes"/>
      <point x="154.85399999999996" y="506.33799999999997"/>
      <point x="182.25" y="576.716"/>
      <point x="245.49" y="609.956" type="curve"/>
      <point x="245.49" y="750.126" type="line"/>
      <point x="86.37400000000001" y="726.51"/>
      <point x="22.629999999999995" y="543.964"/>
    </contour>
  </outline>
</glyph>
<glyph name="parenright" format="2">
  <advance width="256.05600000000004"/>
  <unicode hex="0029"/>
  <outline>
    <contour>
      <point x="10.566" y="-79.95600000000002" type="curve"/>
      <point x="10.566" y="-220.126" type="line"/>
      <point x="169.682" y="-196.51"/>
      <point x="233.426" y="-13.963999999999999"/>
      <point x="233.426" y="265.0" type="curve" smooth="yes"/>
      <point x="233.426" y="543.964"/>
      <point x="169.682" y="726.51"/>
      <point x="10.566" y="750.126" type="curve"/>
      <point x="10.566" y="609.956" type="line"/>
      <point x="73.806" y="576.716"/>
      <point x="101.202" y="506.33799999999997"/>
      <point x="101.202" y="265.0" type="curve" smooth="yes"/>
      <point x="101.202" y="23.662"/>
      <point x="73.806" y="-46.716"/>
    </contour>
  </outline>
</glyph>
<glyph name="asterisk" format="2">
  <advance width="335.616"/>
  <unicode hex="002A"/>
  <outline>
    <contour>
      <point x="105.15799999999999" y="410.026" type="line"/>
      <point x="167.822" y="481.674" type="line"/>
      <point x="230.43" y="410.012" type="line"/>
      <point x="291.75600000000003" y="452.678" type="line"/>
      <point x="245.852" y="536.754" type="line"/>
      <point x="329.58600000000007" y="578.07" type="line"/>
      <point x="306.18800000000005" y="649.182" type="line"/>
      <point x="215.70800000000003" y="629.044" type="line"/>
      <point x="205.904" y="725.014" type="line"/>
      <point x="129.74" y="725.014" type="line"/>
      <point x="119.936" y="629.044" type="line"/>
      <point x="29.428" y="649.182" type="line"/>
      <point x="6.03" y="578.07" type="line"/>
      <point x="89.792" y="536.754" type="line"/>
      <point x="43.818" y="452.706" type="line"/>
    </contour>
  </outline>
</glyph>
<glyph name="plus" format="2">
  <advance width="446.79200000000003"/>
  <unicode hex="002B"/>
  <outline>
    <contour>
      <point x="149.49800000000002" y="143.724" type="line"/>
      <point x="297.20799999999997" y="143.724" type="line"/>
      <point x="297.20799999999997" y="251.91000000000003" type="line"/>
      <point x="403.32800000000003" y="251.91000000000003" type="line"/>
      <point x="403.32800000000003" y="396.18" type="line"/>
      <point x="297.20799999999997" y="396.18" type="line"/>
      <point x="297.20799999999997" y="504.28000000000003" type="line"/>
      <point x="149.49800000000002" y="504.28000000000003" type="line"/>
      <point x="149.49800000000002" y="396.18" type="line"/>
      <point x="43.464" y="396.18" type="line"/>
      <point x="43.464" y="251.91000000000003" type="line"/>
      <point x="149.49800000000002" y="251.91000000000003" type="line"/>
    </contour>
  </outline>
</glyph>
<glyph name="comma" format="2">
  <advance width="202.774"/>
  <unicode hex="002C"/>
  <outline>
    <contour>
      <point x="22.372" y="100.13600000000001" type="line"/>
      <point x="28.209999999999997" y="63.709999999999994"/>
      <point x="28.884000000000004" y="32.21"/>
      <point x="28.884000000000004" y="17.792" type="curve" smooth="yes"/>
      <point x="28.884000000000004" y="-33.660000000000004"/>
      <point x="11.043999999999999" y="-94.48"/>
      <point x="-19.678" y="-150.606" type="curve"/>
      <point x="103.166" y="-182.702" type="line"/>
      <point x="158.25" y="-110.458"/>
      <point x="182.872" y="-50.69"/>
      <point x="182.872" y="21.088" type="curve" smooth="yes"/>
      <point x="182.872" y="55.158"/>
      <point x="177.422" y="80.766"/>
      <point x="171.828" y="102.00399999999999" type="curve"/>
    </contour>
  </outline>
</glyph>
<glyph name="hyphen" format="2">
  <advance width="315.562"/>
  <unicode hex="002D"/>
  <outline>
    <contour>
      <point x="32.488" y="236.94" type="line"/>
      <point x="283.074" y="236.94" type="line"/>
      <point x="283.074" y="392.304" type="line"/>
      <point x="32.488" y="392.304" type="line"/>
    </contour>
  </outline>
</glyph>
<glyph name="period" format="2">
  <advance width="204.14999999999998"/>
  <unicode hex="002E"/>
  <outline>
    <contour>
      <point x="14.08" y="96.378" type="curve" smooth="yes"/>
      <point x="14.08" y="27.316"/>
      <point x="39.775999999999996" y="-6.364"/>
      <point x="102.082" y="-6.364" type="curve" smooth="yes"/>
      <point x="164.52800000000002" y="-6.364"/>
      <point x="190.084" y="27.316"/>
      <point x="190.084" y="96.378" type="curve" smooth="yes"/>
      <point x="190.084" y="166.29999999999998"/>
      <point x="164.52800000000002" y="199.98"/>
      <point x="102.082" y="199.98" type="curve" smooth="yes"/>
      <point x="39.635999999999996" y="199.98"/>
      <point x="14.08" y="166.29999999999998"/>
    </contour>
  </outline>
</glyph>
<glyph name="slash" format="2">
  <advance width="387.45799999999997"/>
  <unicode hex="002F"/>
  <outline>
    <contour>
      <point x="-6.488" y="-210.0" type="line"/>
      <point x="130.89" y="-210.0" type="line"/>
      <point x="393.94599999999997" y="740.0" type="line"/>
      <point x="255.79399999999998" y="740.0" type="line"/>
    </contour>
  </outline>
</glyph>
<glyph name="zero" format="2">
  <advance width="461.356"/>
  <unicode hex="0030"/>
  <outline>
    <contour>
      <point x="17.768" y="350.0" type="curve" smooth="yes"/>
      <point x="17.768" y="80.736"/>
      <point x="81.866" y="-10.0"/>
      <point x="230.678" y="-10.0" type="curve" smooth="yes"/>
      <point x="377.196" y="-10.0"/>
      <point x="443.588" y="83.83200000000001"/>
      <point x="443.588" y="350.0" type="curve" smooth="yes"/>
      <point x="443.588" y="617.068"/>
      <point x="388.806" y="710.0"/>
      <point x="230.678" y="710.0" type="curve" smooth="yes"/>
      <point x="79.54399999999998" y="710.0"/>
      <point x="17.768" y="623.26"/>
    </contour>
    <contour>
      <point x="184.67000000000004" y="339.938" type="curve" smooth="yes"/>
      <point x="184.67000000000004" y="548.814"/>
      <point x="200.214" y="562.724"/>
      <point x="230.678" y="562.724" type="curve" smooth="yes"/>
      <point x="261.17" y="562.724"/>
      <point x="276.71400000000006" y="549.5879999999999"/>
      <point x="276.71400000000006" y="339.938" type="curve" smooth="yes"/>
      <point x="276.71400000000006" y="155.95600000000002"/>
      <point x="263.492" y="137.276"/>
      <point x="230.678" y="137.276" type="curve" smooth="yes"/>
      <point x="197.89200000000002" y="137.276"/>
      <point x="184.67000000000004" y="155.182"/>
    </contour>
  </outline>
</glyph>
<glyph name="one" format="2">
  <advance width="461.356"/>
  <unicode hex="0031"/>
  <outline>
    <contour>
      <point x="64.52199999999999" y="0.0" type="line"/>
      <point x="426.418" y="0.0" type="line"/>
      <point x="426.418" y="144.7" type="line"/>
      <point x="335.39799999999997" y="144.7" type="line"/>
      <point x="335.39799999999997" y="700.14" type="line"/>
      <point x="251.76000000000002" y="700.14" type="line"/>
      <point x="46.85" y="630.1220000000001" type="line"/>
      <point x="75.47800000000001" y="467.286" type="line"/>
      <point x="169.88600000000002" y="500.41799999999995" type="line"/>
      <point x="169.88600000000002" y="144.7" type="line"/>
      <point x="64.52199999999999" y="144.7" type="line"/>
    </contour>
  </outline>
</glyph>
<glyph name="two" format="2">
  <advance width="461.51199999999994"/>
  <unicode hex="0032"/>
  <outline>
    <contour>
      <point x="45.796" y="128.29600000000002" type="curve"/>
      <point x="46.602999999999994" y="0.0" type="line"/>
      <point x="422.53299999999996" y="0.0" type="line"/>
      <point x="422.53299999999996" y="144.76999999999998" type="line"/>
      <point x="246.757" y="144.76999999999998" type="line"/>
      <point x="367.80899999999997" y="306.075"/>
      <point x="402.271" y="383.159"/>
      <point x="402.271" y="503.264" type="curve" smooth="yes"/>
      <point x="402.271" y="636.263"/>
      <point x="336.345" y="710.0"/>
      <point x="215.021" y="710.0" type="curve" smooth="yes"/>
      <point x="144.89299999999997" y="710.0"/>
      <point x="80.979" y="689.123"/>
      <point x="25.662" y="648.189" type="curve"/>
      <point x="82.596" y="487.20300000000003" type="line"/>
      <point x="115.029" y="508.55"/>
      <point x="142.15599999999998" y="517.605"/>
      <point x="172.704" y="517.605" type="curve" smooth="yes"/>
      <point x="211.48499999999999" y="517.605"/>
      <point x="234.217" y="493.62399999999997"/>
      <point x="234.217" y="443.68399999999997" type="curve" smooth="yes"/>
      <point x="234.217" y="378.74100000000004"/>
      <point x="166.871" y="268.73699999999997"/>
    </contour>
  </outline>
</glyph>
<glyph name="three" format="2">
  <advance width="461.44"/>
  <unicode hex="0033"/>
  <outline>
    <contour>
      <point x="18.92" y="38.465" type="line"/>
      <point x="80.625" y="2.92"/>
      <point x="128.51500000000001" y="-10.0"/>
      <point x="199.89499999999998" y="-10.0" type="curve" smooth="yes"/>
      <point x="340.27" y="-10.0"/>
      <point x="420.59" y="70.08"/>
      <point x="420.59" y="205.26999999999998" type="curve" smooth="yes"/>
      <point x="420.59" y="281.01"/>
      <point x="386.975" y="341.295"/>
      <point x="325.35999999999996" y="373.225" type="curve"/>
      <point x="378.16999999999996" y="410.49"/>
      <point x="409.73" y="470.955"/>
      <point x="409.73" y="534.075" type="curve" smooth="yes"/>
      <point x="409.73" y="642.47"/>
      <point x="335.86999999999995" y="710.0"/>
      <point x="206.44500000000002" y="710.0" type="curve" smooth="yes"/>
      <point x="133.885" y="710.0"/>
      <point x="66.995" y="691.09"/>
      <point x="20.110000000000003" y="655.41" type="curve"/>
      <point x="69.41499999999999" y="517.4" type="line"/>
      <point x="95.79" y="530.36"/>
      <point x="134.14" y="538.75"/>
      <point x="167.35000000000002" y="538.75" type="curve" smooth="yes"/>
      <point x="220.05" y="538.75"/>
      <point x="246.46999999999997" y="516.38"/>
      <point x="246.46999999999997" y="479.035" type="curve" smooth="yes"/>
      <point x="246.46999999999997" y="443.825"/>
      <point x="223.9" y="420.495"/>
      <point x="177.91" y="420.495" type="curve" smooth="yes"/>
      <point x="116.55499999999998" y="420.495" type="line"/>
      <point x="116.55499999999998" y="285.4" type="line"/>
      <point x="178.38" y="285.4" type="line" smooth="yes"/>
      <point x="229.50000000000003" y="285.4"/>
      <point x="255.575" y="262.25"/>
      <point x="255.575" y="219.02999999999997" type="curve" smooth="yes"/>
      <point x="255.575" y="176.425"/>
      <point x="228.76000000000002" y="151.54"/>
      <point x="177.39" y="151.54" type="curve" smooth="yes"/>
      <point x="140.35999999999999" y="151.54"/>
      <point x="108.17500000000001" y="159.415"/>
      <point x="73.19500000000001" y="177.45499999999998" type="curve"/>
    </contour>
  </outline>
</glyph>
<glyph name="four" format="2">
  <advance width="461.43999999999994"/>
  <unicode hex="0034"/>
  <outline>
    <contour>
      <point x="19.390000000000004" y="93.85" type="line"/>
      <point x="215.38" y="93.85" type="line"/>
      <point x="215.38" y="0.0" type="line"/>
      <point x="385.98" y="0.0" type="line"/>
      <point x="385.98" y="93.85" type="line"/>
      <point x="445.93" y="93.85" type="line"/>
      <point x="445.93" y="235.71" type="line"/>
      <point x="385.98" y="235.71" type="line"/>
      <point x="385.98" y="699.7900000000001" type="line"/>
      <point x="202.42" y="700.63" type="line"/>
      <point x="18.62" y="240.96" type="line"/>
    </contour>
    <contour>
      <point x="126.57000000000001" y="235.71" type="line"/>
      <point x="223.12" y="492.80999999999995" type="line"/>
      <point x="223.12" y="235.71" type="line"/>
    </contour>
  </outline>
</glyph>
<glyph name="five" format="2">
  <advance width="461.44"/>
  <unicode hex="0035"/>
  <outline>
    <contour>
      <point x="30.023999999999994" y="31.720999999999993" type="line"/>
      <point x="81.08399999999999" y="3.556"/>
      <point x="130.27" y="-10.0"/>
      <point x="197.61199999999997" y="-10.0" type="curve" smooth="yes"/>
      <point x="337.231" y="-10.0"/>
      <point x="434.993" y="74.24999999999999"/>
      <point x="434.993" y="231.91" type="curve" smooth="yes"/>
      <point x="434.993" y="361.86600000000004"/>
      <point x="369.6839999999999" y="421.945"/>
      <point x="262.967" y="427.216" type="curve" smooth="yes"/>
      <point x="223.35999999999999" y="428.7219999999999" type="line"/>
      <point x="232.65499999999997" y="549.3990000000001" type="line"/>
      <point x="414.867" y="549.3990000000001" type="line"/>
      <point x="414.867" y="700.0" type="line"/>
      <point x="103.147" y="700.0" type="line"/>
      <point x="64.33" y="307.498" type="line"/>
      <point x="72.89600000000002" y="295.28" type="line"/>
      <point x="172.354" y="295.28" type="line" smooth="yes"/>
      <point x="242.31400000000002" y="295.28"/>
      <point x="268.36899999999997" y="273.04200000000003"/>
      <point x="268.36899999999997" y="224.67000000000002" type="curve" smooth="yes"/>
      <point x="268.36899999999997" y="181.41600000000003"/>
      <point x="243.87900000000002" y="151.32199999999997"/>
      <point x="177.29299999999998" y="151.32199999999997" type="curve" smooth="yes"/>
      <point x="129.371" y="151.32199999999997"/>
      <point x="91.825" y="161.61100000000002"/>
      <point x="62.74699999999999" y="175.07899999999998" type="curve"/>
    </contour>
  </outline>
</glyph>
<glyph name="six" format="2">
  <advance width="461.44"/>
  <unicode hex="0036"/>
  <outline>
    <contour>
      <point x="235.295" y="-10.0" type="curve" smooth="yes"/>
      <point x="376.85" y="-10.0"/>
      <point x="446.735" y="73.00000000000001"/>
      <point x="446.735" y="241.09000000000003" type="curve" smooth="yes"/>
      <point x="446.735" y="376.0200000000001"/>
      <point x="391.06500000000005" y="455.1449999999999"/>
      <point x="292.93500000000006" y="455.1449999999999" type="curve" smooth="yes"/>
      <point x="244.405" y="455.1449999999999"/>
      <point x="207.26500000000001" y="440.58"/>
      <point x="176.57500000000002" y="410.5950000000001" type="curve"/>
      <point x="172.57" y="283.915" type="line"/>
      <point x="192.39" y="308.74500000000006"/>
      <point x="211.935" y="323.88000000000005"/>
      <point x="234.925" y="323.88000000000005" type="curve" smooth="yes"/>
      <point x="264.87000000000006" y="323.88000000000005"/>
      <point x="282.935" y="293.785"/>
      <point x="282.935" y="234.71499999999997" type="curve" smooth="yes"/>
      <point x="282.935" y="162.4"/>
      <point x="266.59999999999997" y="133.695"/>
      <point x="240.42" y="133.695" type="curve" smooth="yes"/>
      <point x="206.18000000000004" y="133.695"/>
      <point x="191.705" y="159.48999999999998"/>
      <point x="191.705" y="356.59999999999997" type="curve" smooth="yes"/>
      <point x="191.705" y="486.34000000000003"/>
      <point x="201.05499999999998" y="555.155"/>
      <point x="303.57500000000005" y="555.155" type="curve" smooth="yes"/>
      <point x="335.4549999999999" y="555.155"/>
      <point x="366.0450000000001" y="545.7350000000001"/>
      <point x="392.355" y="531.14" type="curve"/>
      <point x="439.65000000000003" y="670.945" type="line"/>
      <point x="405.32" y="693.265"/>
      <point x="336.98" y="710.0"/>
      <point x="275.65500000000003" y="710.0" type="curve" smooth="yes"/>
      <point x="108.86500000000001" y="710.0"/>
      <point x="20.925000000000004" y="579.4399999999999"/>
      <point x="20.925000000000004" y="325.81" type="curve" smooth="yes"/>
      <point x="20.925000000000004" y="94.08999999999999"/>
      <point x="90.1" y="-10.0"/>
    </contour>
  </outline>
</glyph>
<glyph name="seven" format="2">
  <advance width="461.44"/>
  <unicode hex="0037"/>
  <outline>
    <contour>
      <point x="101.30299999999998" y="0.0" type="curve"/>
      <point x="277.512" y="0.0" type="line"/>
      <point x="278.333" y="120.5"/>
      <point x="296.794" y="204.68"/>
      <point x="345.692" y="342.83399999999995" type="curve" smooth="yes"/>
      <point x="431.0330000000001" y="583.563" type="line"/>
      <point x="431.0330000000001" y="700.0" type="line"/>
      <point x="32.065" y="700.0" type="line"/>
      <point x="32.065" y="550.3449999999999" type="line"/>
      <point x="253.24099999999999" y="550.3449999999999" type="line"/>
      <point x="174.26800000000003" y="366.5179999999999" type="line" smooth="yes"/>
      <point x="121.19600000000001" y="242.34900000000002"/>
      <point x="101.30299999999998" y="135.414"/>
    </contour>
  </outline>
</glyph>
<glyph name="eight" format="2">
  <advance width="461.51199999999994"/>
  <unicode hex="0038"/>
  <outline>
    <contour>
      <point x="229.567" y="410.775" type="curve"/>
      <point x="317.88000000000005" y="351.831" type="line"/>
      <point x="393.171" y="405.505"/>
      <point x="427.243" y="466.246"/>
      <point x="427.243" y="534.9939999999999" type="curve" smooth="yes"/>
      <point x="427.243" y="644.4119999999999"/>
      <point x="355.701" y="710.0"/>
      <point x="235.43800000000002" y="710.0" type="curve" smooth="yes"/>
      <point x="104.422" y="710.0"/>
      <point x="31.519000000000002" y="641.362"/>
      <point x="31.519000000000002" y="515.8979999999999" type="curve" smooth="yes"/>
      <point x="31.519000000000002" y="293.36199999999997"/>
      <point x="282.14700000000005" y="307.71999999999997"/>
      <point x="282.14700000000005" y="181.193" type="curve" smooth="yes"/>
      <point x="282.14700000000005" y="147.27"/>
      <point x="266.067" y="129.038"/>
      <point x="235.44899999999998" y="129.038" type="curve" smooth="yes"/>
      <point x="198.31199999999998" y="129.038"/>
      <point x="177.28099999999998" y="151.70899999999997"/>
      <point x="177.28099999999998" y="195.18" type="curve" smooth="yes"/>
      <point x="177.28099999999998" y="241.667"/>
      <point x="192.583" y="266.272"/>
      <point x="226.17499999999998" y="297.581" type="curve"/>
      <point x="132.699" y="368.13599999999997" type="line"/>
      <point x="54.514" y="324.901"/>
      <point x="17.609" y="261.64300000000003"/>
      <point x="17.609" y="183.759" type="curve" smooth="yes"/>
      <point x="17.609" y="60.089999999999996"/>
      <point x="93.62" y="-10.0"/>
      <point x="229.084" y="-10.0" type="curve" smooth="yes"/>
      <point x="370.912" y="-10.0"/>
      <point x="444.5450000000001" y="58.90899999999999"/>
      <point x="444.5450000000001" y="189.147" type="curve" smooth="yes"/>
      <point x="444.5450000000001" y="424.23400000000004"/>
      <point x="186.679" y="397.25300000000004"/>
      <point x="186.679" y="518.612" type="curve" smooth="yes"/>
      <point x="186.679" y="547.589"/>
      <point x="201.52" y="567.919"/>
      <point x="230.107" y="567.919" type="curve" smooth="yes"/>
      <point x="263.015" y="567.919"/>
      <point x="278.965" y="547.845"/>
      <point x="278.965" y="507.694" type="curve" smooth="yes"/>
      <point x="278.965" y="463.982"/>
      <point x="266.771" y="439.52"/>
    </contour>
  </outline>
</glyph>
<glyph name="nine" format="2">
  <advance width="461.44"/>
  <unicode hex="0039"/>
  <outline>
    <contour>
      <point x="192.355" y="-10.0" type="curve" smooth="yes"/>
      <point x="359.1449999999999" y="-10.0"/>
      <point x="446.41499999999996" y="119.95000000000002"/>
      <point x="446.41499999999996" y="372.90000000000003" type="curve" smooth="yes"/>
      <point x="446.41499999999996" y="605.2299999999999"/>
      <point x="378.68999999999994" y="710.0"/>
      <point x="232.82499999999996" y="710.0" type="curve" smooth="yes"/>
      <point x="91.2" y="710.0"/>
      <point x="20.605" y="626.64"/>
      <point x="20.605" y="458.55" type="curve" smooth="yes"/>
      <point x="20.605" y="323.3"/>
      <point x="77.24500000000002" y="244.855"/>
      <point x="175.295" y="244.855" type="curve" smooth="yes"/>
      <point x="222.145" y="244.855"/>
      <point x="261.015" y="259.89000000000004"/>
      <point x="290.765" y="289.33500000000004" type="curve"/>
      <point x="295.82" y="417.4150000000001" type="line"/>
      <point x="277.025" y="391.52"/>
      <point x="256.055" y="376.29999999999995"/>
      <point x="230.97499999999997" y="376.29999999999995" type="curve" smooth="yes"/>
      <point x="202.97000000000003" y="376.29999999999995"/>
      <point x="184.51500000000001" y="406.145"/>
      <point x="184.51500000000001" y="465.355" type="curve" smooth="yes"/>
      <point x="184.51500000000001" y="536.59"/>
      <point x="200.36999999999998" y="566.3049999999998"/>
      <point x="228.63000000000002" y="566.3049999999998" type="curve" smooth="yes"/>
      <point x="264.59000000000003" y="566.3049999999998"/>
      <point x="275.81500000000005" y="535.8299999999999"/>
      <point x="275.81500000000005" y="343.58" type="curve" smooth="yes"/>
      <point x="275.81500000000005" y="213.83999999999997"/>
      <point x="266.5249999999999" y="144.30500000000004"/>
      <point x="164.075" y="144.30500000000004" type="curve" smooth="yes"/>
      <point x="132.12499999999997" y="144.30500000000004"/>
      <point x="101.115" y="153.725"/>
      <point x="74.985" y="168.32" type="curve"/>
      <point x="27.689999999999998" y="29.195" type="line"/>
      <point x="62.02" y="6.874999999999999"/>
      <point x="131.03000000000003" y="-10.0"/>
    </contour>
  </outline>
</glyph>
<glyph name="less" format="2">
  <advance width="446.79200000000003"/>
  <unicode hex="003C"/>
  <outline>
    <contour>
      <point x="419.45599999999996" y="97.578" type="line"/>
      <point x="419.45599999999996" y="229.136" type="line"/>
      <point x="178.256" y="309.42199999999997" type="line"/>
      <point x="419.45599999999996" y="390.55" type="line"/>
      <point x="419.45599999999996" y="521.24" type="line"/>
      <point x="27.336000000000002" y="380.654" type="line"/>
      <point x="27.336000000000002" y="237.932" type="line"/>
    </contour>
  </outline>
</glyph>
<glyph name="equal" format="2">
  <advance width="431.312"/>
  <unicode hex="003D"/>
  <outline>
    <contour>
      <point x="387.84800000000007" y="270.444" type="line"/>
      <point x="43.464" y="270.444" type="line"/>
      <point x="43.464" y="126.174" type="line"/>
      <point x="387.84800000000007" y="126.174" type="line"/>
    </contour>
    <contour>
      <point x="387.84800000000007" y="493.698" type="line"/>
      <point x="43.464" y="493.698" type="line"/>
      <point x="43.464" y="349.428" type="line"/>
      <point x="387.84800000000007" y="349.428" type="line"/>
    </contour>
  </outline>
</glyph>
<glyph name="greater" format="2">
  <advance width="446.79200000000003"/>
  <unicode hex="003E"/>
  <outline>
    <contour>
      <point x="419.45599999999996" y="237.806" type="line"/>
      <point x="419.45599999999996" y="380.528" type="line"/>
      <point x="27.336000000000002" y="521.24" type="line"/>
      <point x="27.336000000000002" y="390.284" type="line"/>
      <point x="268.536" y="309.296" type="line"/>
      <point x="27.336000000000002" y="228.884" type="line"/>
      <point x="27.336000000000002" y="97.578" type="line"/>
    </contour>
  </outline>
</glyph>
<glyph name="question" format="2">
  <advance width="383.448"/>
  <unicode hex="003F"/>
  <outline>
    <contour>
      <point x="106.878" y="259.65799999999996" type="line"/>
      <point x="249.68599999999998" y="259.65799999999996" type="line"/>
      <point x="249.85799999999998" y="330.69599999999997" type="line"/>
      <point x="337.736" y="374.51400000000007"/>
      <point x="372.742" y="452.31"/>
      <point x="372.742" y="549.76" type="curve" smooth="yes"/>
      <point x="372.742" y="680.66"/>
      <point x="296.126" y="749.226"/>
      <point x="169.51" y="749.226" type="curve" smooth="yes"/>
      <point x="108.968" y="749.226"/>
      <point x="48.080000000000005" y="727.582"/>
      <point x="7.712000000000001" y="696.5360000000001" type="curve"/>
      <point x="63.888000000000005" y="549.3919999999999" type="line"/>
      <point x="97.382" y="573.0540000000001"/>
      <point x="119.4" y="577.6479999999999"/>
      <point x="142.678" y="577.6479999999999" type="curve" smooth="yes"/>
      <point x="181.068" y="577.6479999999999"/>
      <point x="202.116" y="553.572"/>
      <point x="202.116" y="519.482" type="curve" smooth="yes"/>
      <point x="202.116" y="483.052"/>
      <point x="187.968" y="443.782"/>
      <point x="103.18" y="403.778" type="curve"/>
    </contour>
    <contour>
      <point x="90.51" y="94.05600000000001" type="curve" smooth="yes"/>
      <point x="90.51" y="24.994"/>
      <point x="115.684" y="-8.686"/>
      <point x="178.63799999999998" y="-8.686" type="curve" smooth="yes"/>
      <point x="240.184" y="-8.686"/>
      <point x="266.64" y="24.994"/>
      <point x="266.64" y="94.05600000000001" type="curve" smooth="yes"/>
      <point x="266.64" y="163.97799999999998"/>
      <point x="240.184" y="197.658"/>
      <point x="178.63799999999998" y="197.658" type="curve" smooth="yes"/>
      <point x="115.41799999999999" y="197.658"/>
      <point x="90.51" y="163.97799999999998"/>
    </contour>
  </outline>
</glyph>
<glyph name="at" format="2">
  <advance width="788.8999999999999"/>
  <unicode hex="0040"/>
  <outline>
    <contour>
      <point x="397.54" y="-124.648" type="curve" smooth="yes"/>
      <point x="453.388" y="-124.648"/>
      <point x="532.9599999999999" y="-108.584"/>
      <point x="575.2399999999999" y="-85.528" type="curve"/>
      <point x="553.9159999999999" y="-20.016" type="line"/>
      <point x="506.15200000000004" y="-37.284000000000006"/>
      <point x="451.4920000000001" y="-47.84799999999999"/>
      <point x="398.824" y="-47.84799999999999" type="curve" smooth="yes"/>
      <point x="237.088" y="-47.84799999999999"/>
      <point x="111.57600000000001" y="29.844"/>
      <point x="111.57600000000001" y="262.56399999999996" type="curve" smooth="yes"/>
      <point x="111.57600000000001" y="482.632"/>
      <point x="215.02800000000002" y="637.5680000000001"/>
      <point x="412.59200000000004" y="637.5680000000001" type="curve" smooth="yes"/>
      <point x="608.4119999999999" y="637.5680000000001"/>
      <point x="685.464" y="531.8080000000001"/>
      <point x="685.464" y="333.636" type="curve" smooth="yes"/>
      <point x="685.464" y="222.06400000000002"/>
      <point x="646.228" y="143.98"/>
      <point x="608.548" y="144.33999999999997" type="curve" smooth="yes"/>
      <point x="577.6720000000001" y="144.33999999999997"/>
      <point x="557.596" y="166.492"/>
      <point x="563.6759999999999" y="243.88800000000003" type="curve" smooth="yes"/>
      <point x="587.084" y="519.392" type="line"/>
      <point x="530.812" y="543.472"/>
      <point x="481.096" y="555.288"/>
      <point x="413.876" y="555.288" type="curve" smooth="yes"/>
      <point x="265.656" y="555.288"/>
      <point x="197.49200000000002" y="424.48"/>
      <point x="197.49200000000002" y="252.54000000000002" type="curve" smooth="yes"/>
      <point x="197.49200000000002" y="100.896"/>
      <point x="253.444" y="47.376000000000005"/>
      <point x="321.412" y="47.376000000000005" type="curve" smooth="yes"/>
      <point x="375.324" y="47.376000000000005"/>
      <point x="413.29200000000003" y="76.39600000000002"/>
      <point x="448.4440000000001" y="140.01999999999998" type="curve"/>
      <point x="464.49600000000004" y="80.58"/>
      <point x="501.6520000000001" y="38.76400000000001"/>
      <point x="577.7080000000001" y="38.76400000000001" type="curve" smooth="yes"/>
      <point x="697.32" y="38.044000000000004"/>
      <point x="767.528" y="168.804"/>
      <point x="767.528" y="347.63999999999993" type="curve" smooth="yes"/>
      <point x="767.528" y="592.82"/>
      <point x="624.0840000000001" y="710.0"/>
      <point x="426.708" y="710.0" type="curve" smooth="yes"/>
      <point x="160.67999999999998" y="710.0"/>
      <point x="22.948" y="530.74"/>
      <point x="22.948" y="273.2" type="curve" smooth="yes"/>
      <point x="22.948" y="-2.055999999999999"/>
      <point x="173.836" y="-124.648"/>
    </contour>
    <contour>
      <point x="382.84" y="194.208" type="curve" smooth="yes"/>
      <point x="369.2" y="194.208"/>
      <point x="356.268" y="209.52"/>
      <point x="356.268" y="247.13200000000003" type="curve" smooth="yes"/>
      <point x="356.268" y="340.744"/>
      <point x="379.48400000000004" y="447.2240000000001"/>
      <point x="414.112" y="447.2240000000001" type="curve" smooth="yes"/>
      <point x="423.03200000000004" y="447.2240000000001"/>
      <point x="432.044" y="443.44"/>
      <point x="439.88800000000003" y="439.684" type="curve"/>
      <point x="421.63599999999997" y="254.79199999999997" type="line" smooth="yes"/>
      <point x="412.192" y="206.756"/>
      <point x="401.62" y="194.208"/>
    </contour>
  </outline>
</glyph>
<glyph name="A" format="2">
  <advance width="486.938"/>
  <unicode hex="0041"/>
  <anchor x="482.314" y="0.0" name="ogonek"/>
  <anchor x="241.14400000000003" y="0.0" name="bottom"/>
  <anchor x="242.62000000000003" y="700.0" name="top"/>
  <outline>
    <contour>
      <point x="4.652" y="0.0" type="line"/>
      <point x="173.35999999999999" y="0.0" type="line"/>
      <point x="188.54399999999998" y="109.2" type="line"/>
      <point x="293.15999999999997" y="109.2" type="line"/>
      <point x="309.79400000000004" y="0.0" type="line"/>
      <point x="482.314" y="0.0" type="line"/>
      <point x="355.986" y="701.4" type="line"/>
      <point x="127.334" y="701.4" type="line"/>
    </contour>
    <contour>
      <point x="207.848" y="275.554" type="line"/>
      <point x="241.316" y="578.608" type="line"/>
      <point x="273.856" y="275.554" type="line"/>
    </contour>
  </outline>
</glyph>
<glyph name="B" format="2">
  <advance width="472.328"/>
  <unicode hex="0042"/>
  <anchor x="234.592" y="700.0" name="top"/>
  <anchor x="234.592" y="0.0" name="bottom"/>
  <outline>
    <contour>
      <point x="30.891000000000002" y="3.6349999999999985" type="line"/>
      <point x="147.968" y="-8.104999999999999"/>
      <point x="154.47199999999998" y="-10.0"/>
      <point x="233.476" y="-10.0" type="curve" smooth="yes"/>
      <point x="396.204" y="-10.0"/>
      <point x="462.361" y="55.265"/>
      <point x="462.361" y="208.37200000000004" type="curve" smooth="yes"/>
      <point x="462.361" y="287.78299999999996"/>
      <point x="427.338" y="353.50300000000004"/>
      <point x="367.934" y="385.769" type="curve"/>
      <point x="367.934" y="387.66400000000004" type="line"/>
      <point x="413.2" y="418.84200000000004"/>
      <point x="436.98699999999997" y="471.4650000000001"/>
      <point x="436.98699999999997" y="537.008" type="curve" smooth="yes"/>
      <point x="436.98699999999997" y="654.924"/>
      <point x="373.853" y="710.0"/>
      <point x="233.196" y="710.0" type="curve" smooth="yes"/>
      <point x="180.83000000000004" y="710.0"/>
      <point x="113.95499999999998" y="705.385"/>
      <point x="30.891000000000002" y="696.085" type="curve"/>
    </contour>
    <contour>
      <point x="197.519" y="416.952" type="line"/>
      <point x="197.519" y="553.597" type="line"/>
      <point x="212.778" y="556.737"/>
      <point x="220.042" y="557.737"/>
      <point x="234.669" y="557.737" type="curve" smooth="yes"/>
      <point x="272.06899999999996" y="557.737"/>
      <point x="287.16400000000004" y="534.471"/>
      <point x="287.16400000000004" y="484.58700000000005" type="curve" smooth="yes"/>
      <point x="287.16400000000004" y="439.74899999999997"/>
      <point x="272.26" y="416.952"/>
      <point x="242.557" y="416.952" type="curve" smooth="yes"/>
    </contour>
    <contour>
      <point x="197.519" y="144.89699999999996" type="curve"/>
      <point x="197.519" y="285.273" type="line"/>
      <point x="240.25100000000003" y="285.273" type="line" smooth="yes"/>
      <point x="280.084" y="285.273"/>
      <point x="296.414" y="262.62300000000005"/>
      <point x="296.414" y="214.032" type="curve" smooth="yes"/>
      <point x="296.414" y="163.126"/>
      <point x="280.60900000000004" y="141.61499999999998"/>
      <point x="234.30900000000003" y="141.61499999999998" type="curve" smooth="yes"/>
      <point x="223.80399999999997" y="141.61499999999998"/>
      <point x="211.60199999999998" y="142.75699999999998"/>
    </contour>
  </outline>
</glyph>
<glyph name="C" format="2">
  <advance width="421.586"/>
  <unicode hex="0043"/>
  <anchor x="241.752" y="700.0" name="top"/>
  <anchor x="246.872" y="0.0" name="bottom"/>
  <outline>
    <contour>
      <point x="14.878000000000002" y="346.076" type="curve" smooth="yes"/>
      <point x="14.878000000000002" y="85.09800000000001"/>
      <point x="87.03999999999999" y="-10.0"/>
      <point x="251.93" y="-10.0" type="curve" smooth="yes"/>
      <point x="315.526" y="-10.0"/>
      <point x="365.30800000000005" y="-0.36600000000000027"/>
      <point x="408.2" y="17.921999999999997" type="curve"/>
      <point x="379.57599999999996" y="167.14000000000001" type="line"/>
      <point x="351.034" y="157.32"/>
      <point x="312.426" y="149.928"/>
      <point x="283.188" y="149.928" type="curve" smooth="yes"/>
      <point x="208.618" y="149.928"/>
      <point x="182.97000000000003" y="191.47"/>
      <point x="182.97000000000003" y="343.15200000000004" type="curve" smooth="yes"/>
      <point x="182.97000000000003" y="505.05400000000003"/>
      <point x="209.804" y="550.29"/>
      <point x="282.18" y="550.29" type="curve" smooth="yes"/>
      <point x="312.846" y="550.29"/>
      <point x="339.928" y="545.0680000000001"/>
      <point x="375.538" y="533.916" type="curve"/>
      <point x="408.548" y="682.3199999999999" type="line"/>
      <point x="370.36400000000003" y="700.134"/>
      <point x="319.584" y="710.0"/>
      <point x="259.866" y="710.0" type="curve" smooth="yes"/>
      <point x="90.056" y="710.0"/>
      <point x="14.878000000000002" y="608.872"/>
    </contour>
  </outline>
</glyph>
<glyph name="D" format="2">
  <advance width="487.018"/>
  <unicode hex="0044"/>
  <anchor x="239.434" y="700.0" name="top"/>
  <outline>
    <contour>
      <point x="219.56" y="-10.0" type="curve" smooth="yes"/>
      <point x="397.584" y="-10.0"/>
      <point x="472.119" y="94.759"/>
      <point x="472.119" y="352.50999999999993" type="curve" smooth="yes"/>
      <point x="472.119" y="604.844"/>
      <point x="409.832" y="710.0"/>
      <point x="219.88500000000002" y="710.0" type="curve" smooth="yes"/>
      <point x="148.537" y="710.0"/>
      <point x="93.934" y="707.105"/>
      <point x="30.891000000000002" y="698.914" type="curve"/>
      <point x="30.891000000000002" y="-0.7699999999999998" type="line"/>
      <point x="84.56799999999998" y="-6.924"/>
      <point x="146.36" y="-10.0"/>
    </contour>
    <contour>
      <point x="238.23200000000003" y="140.54499999999996" type="curve" smooth="yes"/>
      <point x="220.23199999999997" y="140.54499999999996"/>
      <point x="210.30200000000002" y="141.759"/>
      <point x="196.76600000000005" y="143.076" type="curve"/>
      <point x="196.76600000000005" y="554.704" type="line"/>
      <point x="207.72" y="556.7760000000001"/>
      <point x="222.74" y="557.846"/>
      <point x="237.40499999999997" y="557.846" type="curve" smooth="yes"/>
      <point x="284.398" y="557.846"/>
      <point x="300.228" y="521.08"/>
      <point x="300.228" y="349.644" type="curve" smooth="yes"/>
      <point x="300.228" y="187.699"/>
      <point x="282.75" y="140.54499999999996"/>
    </contour>
  </outline>
</glyph>
<glyph name="E" format="2">
  <advance width="412.801"/>
  <unicode hex="0045"/>
  <anchor x="397.624" y="0.0" name="ogonek"/>
  <anchor x="213.593" y="0.0" name="bottom"/>
  <anchor x="214.00600000000003" y="700.0" name="top"/>
  <outline>
    <contour>
      <point x="30.891000000000002" y="0.0" type="line"/>
      <point x="397.694" y="0.0" type="line"/>
      <point x="397.694" y="158.734" type="line"/>
      <point x="196.869" y="158.734" type="line"/>
      <point x="196.869" y="276.104" type="line"/>
      <point x="362.135" y="276.104" type="line"/>
      <point x="362.135" y="425.33299999999997" type="line"/>
      <point x="196.869" y="425.33299999999997" type="line"/>
      <point x="196.869" y="537.5009999999999" type="line"/>
      <point x="385.01300000000003" y="537.5009999999999" type="line"/>
      <point x="385.01300000000003" y="700.0" type="line"/>
      <point x="30.891000000000002" y="700.0" type="line"/>
    </contour>
  </outline>
</glyph>
<glyph name="F" format="2">
  <advance width="395.77600000000007"/>
  <unicode hex="0046"/>
  <outline>
    <contour>
      <point x="30.891000000000002" y="0.0" type="line"/>
      <point x="198.342" y="0.0" type="line"/>
      <point x="198.342" y="224.316" type="line"/>
      <point x="354.78799999999995" y="224.316" type="line"/>
      <point x="354.78799999999995" y="386.93" type="line"/>
      <point x="196.76600000000005" y="386.93" type="line"/>
      <point x="196.76600000000005" y="536.281" type="line"/>
      <point x="383.33000000000004" y="536.281" type="line"/>
      <point x="383.33000000000004" y="700.0" type="line"/>
      <point x="30.891000000000002" y="700.0" type="line"/>
    </contour>
  </outline>
</glyph>
<glyph name="G" format="2">
  <advance width="465.592"/>
  <unicode hex="0047"/>
  <anchor x="245.17" y="700.0" name="top"/>
  <anchor x="244.32999999999998" y="0.0" name="bottom"/>
  <outline>
    <contour>
      <point x="14.878000000000002" y="347.624" type="curve" smooth="yes"/>
      <point x="14.878000000000002" y="101.08399999999999"/>
      <point x="84.526" y="-10.0"/>
      <point x="237.706" y="-10.0" type="curve" smooth="yes"/>
      <point x="318.504" y="-10.0"/>
      <point x="383.396" y="6.538"/>
      <point x="441.9359999999999" y="42.7" type="curve"/>
      <point x="441.9359999999999" y="405.588" type="line"/>
      <point x="237.36999999999998" y="405.588" type="line"/>
      <point x="237.36999999999998" y="254.22" type="line"/>
      <point x="290.442" y="254.22" type="line"/>
      <point x="290.442" y="148.978" type="line"/>
      <point x="280.69599999999997" y="143.79799999999997"/>
      <point x="265.01800000000003" y="140.81199999999998"/>
      <point x="247.20600000000002" y="140.81199999999998" type="curve" smooth="yes"/>
      <point x="200.62800000000001" y="140.81199999999998"/>
      <point x="181.422" y="188.47400000000002"/>
      <point x="181.422" y="337.73400000000004" type="curve" smooth="yes"/>
      <point x="181.422" y="490.40799999999996"/>
      <point x="209.87000000000003" y="551.838"/>
      <point x="280.16999999999996" y="551.838" type="curve" smooth="yes"/>
      <point x="314.262" y="551.838"/>
      <point x="360.312" y="543.6080000000001"/>
      <point x="392.852" y="532.9599999999999" type="curve"/>
      <point x="422.50800000000004" y="682.8839999999999" type="line"/>
      <point x="383.756" y="698.52"/>
      <point x="316.748" y="710.0"/>
      <point x="261.726" y="710.0" type="curve" smooth="yes"/>
      <point x="91.10999999999999" y="710.0"/>
      <point x="14.878000000000002" y="596.234"/>
    </contour>
  </outline>
</glyph>
<glyph name="H" format="2">
  <advance width="490.012"/>
  <unicode hex="0048"/>
  <anchor x="245.4" y="700.0" name="top"/>
  <outline>
    <contour>
      <point x="30.884000000000004" y="0.0" type="line"/>
      <point x="196.65400000000002" y="0.0" type="line"/>
      <point x="196.65400000000002" y="235.344" type="line"/>
      <point x="293.358" y="235.344" type="line"/>
      <point x="293.358" y="0.0" type="line"/>
      <point x="459.128" y="0.0" type="line"/>
      <point x="459.128" y="700.0" type="line"/>
      <point x="293.358" y="700.0" type="line"/>
      <point x="293.358" y="401.84799999999996" type="line"/>
      <point x="196.65400000000002" y="401.84799999999996" type="line"/>
      <point x="196.65400000000002" y="700.0" type="line"/>
      <point x="30.884000000000004" y="700.0" type="line"/>
    </contour>
  </outline>
</glyph>
<glyph name="I" format="2">
  <advance width="227.538"/>
  <unicode hex="0049"/>
  <anchor x="196.65400000000002" y="0.0" name="ogonek"/>
  <anchor x="114.156" y="0.0" name="bottom"/>
  <anchor x="114.156" y="700.0" name="top"/>
  <outline>
    <contour>
      <point x="30.884000000000004" y="0.0" type="line"/>
      <point x="196.65400000000002" y="0.0" type="line"/>
      <point x="196.65400000000002" y="700.0" type="line"/>
      <point x="30.884000000000004" y="700.0" type="line"/>
    </contour>
  </outline>
</glyph>
<glyph name="J" format="2">
  <advance width="355.692"/>
  <unicode hex="004A"/>
  <anchor x="188.774" y="700.0" name="top"/>
  <outline>
    <contour>
      <point x="2.0680000000000005" y="22.284" type="line"/>
      <point x="44.364" y="4.0059999999999985"/>
      <point x="95.59" y="-10.014"/>
      <point x="157.534" y="-10.014" type="curve" smooth="yes"/>
      <point x="270.31600000000003" y="-10.014"/>
      <point x="328.00800000000004" y="60.57599999999999"/>
      <point x="328.00800000000004" y="194.844" type="curve" smooth="yes"/>
      <point x="328.00800000000004" y="700.0" type="line"/>
      <point x="43.536" y="700.0" type="line"/>
      <point x="43.536" y="536.42" type="line"/>
      <point x="162.238" y="536.42" type="line"/>
      <point x="162.238" y="253.806" type="line" smooth="yes"/>
      <point x="162.238" y="167.264"/>
      <point x="142.792" y="148.14800000000002"/>
      <point x="98.02199999999999" y="148.14800000000002" type="curve" smooth="yes"/>
      <point x="80.926" y="148.14800000000002"/>
      <point x="55.418" y="153.78600000000003"/>
      <point x="30.646" y="160.97" type="curve"/>
    </contour>
  </outline>
</glyph>
<glyph name="K" format="2">
  <advance width="514.6600000000001"/>
  <unicode hex="004B"/>
  <anchor x="258.01" y="700.0" name="top"/>
  <anchor x="265.99" y="0.0" name="bottom"/>
  <outline>
    <contour>
      <point x="466.25" y="-10.0" type="curve" smooth="yes"/>
      <point x="474.48" y="-10.0"/>
      <point x="482.34999999999997" y="-10.0"/>
      <point x="492.79" y="-8.0" type="curve"/>
      <point x="492.79" y="186.08" type="line"/>
      <point x="489.29" y="186.08"/>
      <point x="485.17999999999995" y="186.08"/>
      <point x="481.92999999999995" y="186.08" type="curve" smooth="yes"/>
      <point x="461.75" y="186.26"/>
      <point x="437.56" y="197.17"/>
      <point x="379.46999999999997" y="260.34" type="curve" smooth="yes"/>
      <point x="190.64000000000001" y="465.87000000000006" type="line"/>
      <point x="190.64000000000001" y="700.0" type="line"/>
      <point x="34.38" y="700.0" type="line"/>
      <point x="34.38" y="0.0" type="line"/>
      <point x="190.64000000000001" y="0.0" type="line"/>
      <point x="190.64000000000001" y="209.74" type="line"/>
      <point x="326.19" y="60.93" type="line" smooth="yes"/>
      <point x="368.23999999999995" y="14.94"/>
      <point x="409.46999999999997" y="-10.0"/>
    </contour>
    <contour>
      <point x="288.34" y="271.78999999999996" type="line"/>
      <point x="394.3" y="379.7"/>
      <point x="476.17" y="503.57"/>
      <point x="508.54999999999995" y="666.0" type="curve"/>
      <point x="364.87" y="700.99" type="line"/>
      <point x="337.09000000000003" y="569.35"/>
      <point x="252.42000000000002" y="451.64"/>
      <point x="200.97" y="397.83000000000004" type="curve"/>
    </contour>
  </outline>
</glyph>
<glyph name="L" format="2">
  <advance width="388.48"/>
  <unicode hex="004C"/>
  <anchor x="194.634" y="350.0" name="center"/>
  <anchor x="114.156" y="700.0" name="top"/>
  <anchor x="247.95" y="700.0" name="topright"/>
  <anchor x="203.914" y="0.0" name="bottom"/>
  <outline>
    <contour>
      <point x="30.884000000000004" y="0.0" type="line"/>
      <point x="376.82" y="0.0" type="line"/>
      <point x="376.82" y="161.086" type="line"/>
      <point x="197.428" y="161.086" type="line"/>
      <point x="197.428" y="700.0" type="line"/>
      <point x="30.884000000000004" y="700.0" type="line"/>
    </contour>
  </outline>
</glyph>
<glyph name="M" format="2">
  <advance width="585.342"/>
  <unicode hex="004D"/>
  <outline>
    <contour>
      <point x="30.983999999999998" y="0.0" type="line"/>
      <point x="180.672" y="0.0" type="line"/>
      <point x="180.672" y="411.03400000000005" type="line"/>
      <point x="249.688" y="147.35" type="line"/>
      <point x="333.106" y="147.35" type="line"/>
      <point x="404.66999999999996" y="412.426" type="line"/>
      <point x="404.66999999999996" y="0.0" type="line"/>
      <point x="554.358" y="0.0" type="line"/>
      <point x="554.358" y="700.0" type="line"/>
      <point x="383.71" y="700.0" type="line"/>
      <point x="295.622" y="393.76399999999995" type="line"/>
      <point x="207.972" y="700.0" type="line"/>
      <point x="30.983999999999998" y="700.0" type="line"/>
    </contour>
  </outline>
</glyph>
<glyph name="N" format="2">
  <advance width="496.27500000000003"/>
  <unicode hex="004E"/>
  <anchor x="248.27999999999997" y="700.0" name="top"/>
  <anchor x="248.27999999999997" y="0.0" name="bottom"/>
  <outline>
    <contour>
      <point x="30.854999999999997" y="0.0" type="line"/>
      <point x="177.345" y="0.0" type="line"/>
      <point x="177.345" y="338.995" type="line"/>
      <point x="297.18" y="-0.14" type="line"/>
      <point x="465.42" y="-0.14" type="line"/>
      <point x="465.42" y="700.0" type="line"/>
      <point x="319.10999999999996" y="700.0" type="line"/>
      <point x="319.10999999999996" y="338.225" type="line"/>
      <point x="199.92000000000002" y="700.14" type="line"/>
      <point x="30.854999999999997" y="700.14" type="line"/>
    </contour>
  </outline>
</glyph>
<glyph name="O" format="2">
  <advance width="479.77500000000003"/>
  <unicode hex="004F"/>
  <anchor x="328.49" y="9.030000000000001" name="ogonek"/>
  <anchor x="240.18" y="700.0" name="top"/>
  <anchor x="373.125" y="697.07" name="topright"/>
  <anchor x="239.675" y="0.0" name="bottom"/>
  <outline>
    <contour>
      <point x="240.18" y="142.12" type="curve" smooth="yes"/>
      <point x="199.18500000000003" y="142.12"/>
      <point x="185.14499999999998" y="177.33"/>
      <point x="185.14499999999998" y="349.215" type="curve" smooth="yes"/>
      <point x="185.14499999999998" y="521.4050000000001"/>
      <point x="199.475" y="558.1600000000001"/>
      <point x="240.18" y="558.1600000000001" type="curve" smooth="yes"/>
      <point x="282.315" y="558.1600000000001"/>
      <point x="295.315" y="522.3000000000001"/>
      <point x="295.315" y="350.71999999999997" type="curve" smooth="yes"/>
      <point x="295.315" y="179.7"/>
      <point x="281.595" y="142.12"/>
    </contour>
    <contour>
      <point x="239.675" y="-10.0" type="curve" smooth="yes"/>
      <point x="393.135" y="-10.0"/>
      <point x="464.7" y="77.81"/>
      <point x="464.7" y="352.00500000000005" type="curve" smooth="yes"/>
      <point x="464.7" y="623.05"/>
      <point x="395.465" y="710.0"/>
      <point x="240.18" y="710.0" type="curve" smooth="yes"/>
      <point x="85.10499999999999" y="710.0"/>
      <point x="15.075000000000001" y="621.51"/>
      <point x="15.075000000000001" y="348.71" type="curve" smooth="yes"/>
      <point x="15.075000000000001" y="76.55000000000001"/>
      <point x="86.32" y="-10.0"/>
    </contour>
  </outline>
</glyph>
<glyph name="P" format="2">
  <advance width="480.51"/>
  <unicode hex="0050"/>
  <outline>
    <contour>
      <point x="30.884000000000004" y="0.0" type="line"/>
      <point x="197.428" y="0.0" type="line"/>
      <point x="197.428" y="176.54999999999998" type="line"/>
      <point x="236.474" y="172.928"/>
      <point x="236.974" y="172.91400000000002"/>
      <point x="272.23" y="172.91400000000002" type="curve" smooth="yes"/>
      <point x="411.522" y="172.91400000000002"/>
      <point x="468.254" y="261.50600000000003"/>
      <point x="468.254" y="447.95400000000006" type="curve" smooth="yes"/>
      <point x="468.254" y="627.962"/>
      <point x="412.98800000000006" y="710.0"/>
      <point x="233.64400000000003" y="710.0" type="curve" smooth="yes"/>
      <point x="205.58599999999998" y="710.0"/>
      <point x="136.174" y="708.688"/>
      <point x="30.884000000000004" y="702.052" type="curve"/>
    </contour>
    <contour>
      <point x="198.202" y="556.48" type="line"/>
      <point x="221.248" y="559.6360000000001"/>
      <point x="232.97400000000002" y="559.79"/>
      <point x="245.37999999999997" y="559.79" type="curve" smooth="yes"/>
      <point x="288.99600000000004" y="559.79"/>
      <point x="301.10799999999995" y="528.0279999999999"/>
      <point x="301.10799999999995" y="456.77799999999996" type="curve" smooth="yes"/>
      <point x="301.10799999999995" y="356.176"/>
      <point x="287.974" y="321.312"/>
      <point x="234.688" y="321.312" type="curve" smooth="yes"/>
      <point x="220.996" y="321.312"/>
      <point x="212.56" y="321.44"/>
      <point x="198.202" y="323.50000000000006" type="curve"/>
    </contour>
  </outline>
</glyph>
<glyph name="Q" format="2">
  <advance width="479.90400000000005"/>
  <unicode hex="0051"/>
  <outline>
    <contour>
      <point x="362.716" y="49.251999999999995" type="curve"/>
      <point x="236.33999999999997" y="10.726" type="line"/>
      <point x="257.888" y="-114.5"/>
      <point x="292.552" y="-171.308"/>
      <point x="377.96" y="-171.308" type="curve" smooth="yes"/>
      <point x="404.312" y="-171.308"/>
      <point x="430.91799999999995" y="-165.518"/>
      <point x="452.582" y="-157.464" type="curve"/>
      <point x="434.97999999999996" y="0.5439999999999929" type="line"/>
      <point x="426.34599999999995" y="-3.4760000000000093"/>
      <point x="416.07" y="-6.56800000000001"/>
      <point x="405.53999999999996" y="-6.56800000000001" type="curve" smooth="yes"/>
      <point x="384.08599999999996" y="-6.56800000000001"/>
      <point x="373.56" y="13.701999999999977"/>
    </contour>
    <component base="O"/>
  </outline>
</glyph>
<glyph name="R" format="2">
  <advance width="505.66999999999996"/>
  <unicode hex="0052"/>
  <anchor x="249.96" y="700.0" name="top"/>
  <anchor x="252.73000000000002" y="0.0" name="bottom"/>
  <outline>
    <contour>
      <point x="443.52000000000004" y="-10.0" type="curve" smooth="yes"/>
      <point x="468.77000000000004" y="-10.0"/>
      <point x="482.55" y="-7.97"/>
      <point x="492.89000000000004" y="-5.5" type="curve"/>
      <point x="492.55" y="170.08" type="line"/>
      <point x="488.99999999999994" y="170.08"/>
      <point x="483.88000000000005" y="170.01000000000002"/>
      <point x="480.58" y="170.01000000000002" type="curve" smooth="yes"/>
      <point x="441.08" y="170.01000000000002"/>
      <point x="405.65" y="201.27999999999997"/>
      <point x="370.26000000000005" y="272.65000000000003" type="curve"/>
      <point x="439.77" y="300.71999999999997"/>
      <point x="469.96000000000004" y="383.47"/>
      <point x="469.96000000000004" y="484.75" type="curve" smooth="yes"/>
      <point x="469.96000000000004" y="639.49"/>
      <point x="391.66" y="709.28"/>
      <point x="246.85" y="709.28" type="curve" smooth="yes"/>
      <point x="165.67" y="709.28"/>
      <point x="103.35999999999999" y="705.5600000000001"/>
      <point x="34.38" y="699.59" type="curve"/>
      <point x="34.38" y="0.0" type="line"/>
      <point x="188.78" y="0.0" type="line"/>
      <point x="188.78" y="217.98000000000002" type="line"/>
      <point x="201.22000000000003" y="217.52000000000004"/>
      <point x="212.87" y="217.34000000000003"/>
      <point x="224.17999999999998" y="217.34000000000003" type="curve" smooth="yes"/>
      <point x="228.27" y="217.34000000000003"/>
      <point x="233.17999999999998" y="217.55000000000004"/>
      <point x="237.45000000000002" y="217.65" type="curve"/>
      <point x="310.04" y="15.31"/>
      <point x="370.01" y="-10.0"/>
    </contour>
    <contour>
      <point x="239.99" y="340.28000000000003" type="curve" smooth="yes"/>
      <point x="220.66000000000003" y="340.28000000000003"/>
      <point x="206.81" y="341.46"/>
      <point x="188.78" y="342.71" type="curve"/>
      <point x="188.78" y="558.01" type="line"/>
      <point x="211.41" y="561.26"/>
      <point x="225.23" y="562.19"/>
      <point x="242.11" y="562.19" type="curve" smooth="yes"/>
      <point x="295.58" y="562.19"/>
      <point x="313.21" y="531.6100000000001"/>
      <point x="313.21" y="458.96000000000004" type="curve" smooth="yes"/>
      <point x="313.21" y="377.01"/>
      <point x="291.38000000000005" y="340.28000000000003"/>
    </contour>
  </outline>
</glyph>
<glyph name="S" format="2">
  <advance width="446.09"/>
  <unicode hex="0053"/>
  <anchor x="225.165" y="700.0" name="top"/>
  <anchor x="216.70200000000003" y="0.0" name="bottom"/>
  <outline>
    <contour>
      <point x="417.447" y="676.2320000000001" type="line"/>
      <point x="385.422" y="692.395"/>
      <point x="307.131" y="710.0"/>
      <point x="240.56" y="710.0" type="curve" smooth="yes"/>
      <point x="68.46000000000001" y="710.0"/>
      <point x="13.606000000000002" y="605.713"/>
      <point x="13.606000000000002" y="504.77700000000004" type="curve" smooth="yes"/>
      <point x="13.606000000000002" y="402.44000000000005"/>
      <point x="58.35000000000001" y="342.92600000000004"/>
      <point x="133.69099999999997" y="299.996" type="curve" smooth="yes"/>
      <point x="218.178" y="254.58999999999997"/>
      <point x="269.189" y="232.441"/>
      <point x="269.189" y="191.859" type="curve" smooth="yes"/>
      <point x="269.189" y="158.55800000000002"/>
      <point x="243.738" y="139.35600000000002"/>
      <point x="193.041" y="139.35600000000002" type="curve" smooth="yes"/>
      <point x="151.50099999999998" y="139.35600000000002"/>
      <point x="97.528" y="149.327"/>
      <point x="35.731" y="171.47" type="curve"/>
      <point x="3.437" y="30.455999999999996" type="line"/>
      <point x="70.344" y="-0.04099999999999995"/>
      <point x="140.01700000000002" y="-10.0"/>
      <point x="195.87199999999999" y="-10.0" type="curve" smooth="yes"/>
      <point x="358.51000000000005" y="-10.0"/>
      <point x="435.573" y="78.111"/>
      <point x="435.573" y="200.48499999999999" type="curve" smooth="yes"/>
      <point x="435.573" y="310.453"/>
      <point x="383.671" y="364.77399999999994"/>
      <point x="297.754" y="405.66" type="curve" smooth="yes"/>
      <point x="220.471" y="442.61"/>
      <point x="182.93" y="464.08399999999995"/>
      <point x="182.93" y="503.58799999999997" type="curve" smooth="yes"/>
      <point x="182.93" y="539.318"/>
      <point x="208.18300000000002" y="555.728"/>
      <point x="254.357" y="555.728" type="curve" smooth="yes"/>
      <point x="293.266" y="555.728"/>
      <point x="341.341" y="549.728"/>
      <point x="384.93800000000005" y="533.135" type="curve"/>
    </contour>
  </outline>
</glyph>
<glyph name="T" format="2">
  <advance width="440.916"/>
  <unicode hex="0054"/>
  <anchor x="220.458" y="700.0" name="top"/>
  <anchor x="220.458" y="0.0" name="bottom"/>
  <outline>
    <contour>
      <point x="429.452" y="535.8319999999999" type="line"/>
      <point x="429.452" y="700.0" type="line"/>
      <point x="11.464" y="700.0" type="line"/>
      <point x="11.464" y="535.8319999999999" type="line"/>
      <point x="137.95999999999998" y="535.8319999999999" type="line"/>
      <point x="137.95999999999998" y="0.0" type="line"/>
      <point x="303.73" y="0.0" type="line"/>
      <point x="303.73" y="535.8319999999999" type="line"/>
    </contour>
  </outline>
</glyph>
<glyph name="U" format="2">
  <advance width="482.64"/>
  <unicode hex="0055"/>
  <anchor x="321.736" y="1.548" name="ogonek"/>
  <anchor x="241.76999999999998" y="700.0" name="top"/>
  <anchor x="454.95599999999996" y="700.0" name="topright"/>
  <anchor x="241.76999999999998" y="0.0" name="bottom"/>
  <outline>
    <contour>
      <point x="27.684" y="204.23199999999997" type="line"/>
      <point x="27.684" y="47.839999999999996"/>
      <point x="104.416" y="-10.0"/>
      <point x="240.22199999999998" y="-10.0" type="curve" smooth="yes"/>
      <point x="381.446" y="-10.0"/>
      <point x="454.95599999999996" y="47.839999999999996"/>
      <point x="454.95599999999996" y="204.23199999999997" type="curve" smooth="yes"/>
      <point x="454.95599999999996" y="700.0" type="line"/>
      <point x="288.326" y="700.0" type="line"/>
      <point x="288.326" y="187.634" type="line" smooth="yes"/>
      <point x="288.326" y="153.246"/>
      <point x="271.686" y="139.946"/>
      <point x="240.48" y="139.946" type="curve" smooth="yes"/>
      <point x="210.65" y="139.946"/>
      <point x="192.766" y="152.472"/>
      <point x="192.766" y="187.634" type="curve" smooth="yes"/>
      <point x="192.766" y="700.0" type="line"/>
      <point x="27.684" y="700.0" type="line"/>
    </contour>
  </outline>
</glyph>
<glyph name="V" format="2">
  <advance width="483.618"/>
  <unicode hex="0056"/>
  <outline>
    <contour>
      <point x="136.866" y="0.0" type="line"/>
      <point x="352.31" y="0.0" type="line"/>
      <point x="484.29799999999994" y="699.93" type="line"/>
      <point x="303.356" y="700.4359999999999" type="line"/>
      <point x="244.76" y="153.80999999999997" type="line"/>
      <point x="181.24" y="700.4359999999999" type="line"/>
      <point x="-0.6800000000000004" y="699.93" type="line"/>
    </contour>
  </outline>
</glyph>
<glyph name="W" format="2">
  <advance width="623.07"/>
  <unicode hex="0057"/>
  <anchor x="311.77" y="700.0" name="top"/>
  <anchor x="311.77" y="0.0" name="bottom"/>
  <outline>
    <contour>
      <point x="530.092" y="0.0" type="line"/>
      <point x="623.406" y="700.008" type="line"/>
      <point x="441.92199999999997" y="700.358" type="line"/>
      <point x="429.286" y="171.528" type="line"/>
      <point x="376.63599999999997" y="652.906" type="line"/>
      <point x="248.50000000000003" y="652.906" type="line"/>
      <point x="194.388" y="171.904" type="line"/>
      <point x="180.632" y="700.358" type="line"/>
      <point x="-0.3360000000000003" y="700.008" type="line"/>
      <point x="91.868" y="0.0" type="line"/>
      <point x="267.56" y="0.0" type="line"/>
      <point x="310.772" y="388.62000000000006" type="line"/>
      <point x="350.44399999999996" y="0.0" type="line"/>
    </contour>
  </outline>
</glyph>
<glyph name="X" format="2">
  <advance width="498.74399999999997"/>
  <unicode hex="0058"/>
  <outline>
    <contour>
      <point x="-0.9360000000000007" y="0.278" type="line"/>
      <point x="198.896" y="-0.702" type="line"/>
      <point x="250.783" y="249.83900000000003" type="line"/>
      <point x="301.09" y="-0.702" type="line"/>
      <point x="499.40299999999996" y="0.278" type="line"/>
      <point x="376.24" y="356.813" type="line"/>
      <point x="490.863" y="699.617" type="line"/>
      <point x="297.743" y="700.5269999999999" type="line"/>
      <point x="250.789" y="460.40999999999997" type="line"/>
      <point x="204.144" y="700.5269999999999" type="line"/>
      <point x="9.781" y="699.617" type="line"/>
      <point x="123.89399999999999" y="354.836" type="line"/>
    </contour>
  </outline>
</glyph>
<glyph name="Y" format="2">
  <advance width="482.88"/>
  <unicode hex="0059"/>
  <anchor x="241.566" y="700.0" name="top"/>
  <anchor x="241.538" y="0.0" name="bottom"/>
  <outline>
    <contour>
      <point x="158.39200000000002" y="0.0" type="line"/>
      <point x="324.162" y="0.0" type="line"/>
      <point x="324.162" y="224.50000000000003" type="line"/>
      <point x="483.28200000000004" y="699.51" type="line"/>
      <point x="294.65599999999995" y="700.49" type="line"/>
      <point x="241.836" y="339.77599999999995" type="line"/>
      <point x="188.064" y="700.49" type="line"/>
      <point x="-0.9059999999999991" y="699.51" type="line"/>
      <point x="158.39200000000002" y="224.50000000000003" type="line"/>
    </contour>
  </outline>
</glyph>
<glyph name="Z" format="2">
  <advance width="443.34000000000003"/>
  <unicode hex="005A"/>
  <anchor x="222.25" y="350.0" name="center"/>
  <anchor x="222.25" y="0.0" name="bottom"/>
  <anchor x="226.628" y="700.0" name="top"/>
  <outline>
    <contour>
      <point x="13.554" y="0.0" type="line"/>
      <point x="428.68199999999996" y="0.0" type="line"/>
      <point x="428.68199999999996" y="154.016" type="line"/>
      <point x="196.15799999999996" y="154.016" type="line"/>
      <point x="196.15799999999996" y="155.158" type="line"/>
      <point x="422.2319999999999" y="542.24" type="line"/>
      <point x="422.2319999999999" y="700.0" type="line"/>
      <point x="24.708" y="700.0" type="line"/>
      <point x="24.708" y="546.1940000000001" type="line"/>
      <point x="241.07999999999998" y="546.1940000000001" type="line"/>
      <point x="241.07999999999998" y="544.8419999999999" type="line"/>
      <point x="13.554" y="157.97" type="line"/>
    </contour>
  </outline>
</glyph>
<glyph name="bracketleft" format="2">
  <advance width="256.05600000000004"/>
  <unicode hex="005B"/>
  <outline>
    <contour>
      <point x="148.012" y="-79.06" type="line"/>
      <point x="148.012" y="609.06" type="line"/>
      <point x="245.196" y="609.06" type="line"/>
      <point x="245.196" y="740.0" type="line"/>
      <point x="22.49" y="740.0" type="line"/>
      <point x="22.49" y="-210.0" type="line"/>
      <point x="245.196" y="-210.0" type="line"/>
      <point x="245.196" y="-79.06" type="line"/>
    </contour>
  </outline>
</glyph>
<glyph name="backslash" format="2">
  <advance width="387.45799999999997"/>
  <unicode hex="005C"/>
  <outline>
    <contour>
      <point x="131.664" y="740.0" type="line"/>
      <point x="-6.488" y="740.0" type="line"/>
      <point x="256.568" y="-210.0" type="line"/>
      <point x="393.94599999999997" y="-210.0" type="line"/>
    </contour>
  </outline>
</glyph>
<glyph name="bracketright" format="2">
  <advance width="256.05600000000004"/>
  <unicode hex="005D"/>
  <outline>
    <contour>
      <point x="10.86" y="-79.06" type="line"/>
      <point x="10.86" y="-210.0" type="line"/>
      <point x="233.566" y="-210.0" type="line"/>
      <point x="233.566" y="740.0" type="line"/>
      <point x="10.86" y="740.0" type="line"/>
      <point x="10.86" y="609.06" type="line"/>
      <point x="108.04400000000001" y="609.06" type="line"/>
      <point x="108.04400000000001" y="-79.06" type="line"/>
    </contour>
  </outline>
</glyph>
<glyph name="asciicircum" format="2">
  <advance width="446.79200000000003"/>
  <unicode hex="005E"/>
  <outline>
    <contour>
      <point x="48.07000000000001" y="243.698" type="line"/>
      <point x="167.99800000000002" y="243.698" type="line"/>
      <point x="223.39600000000002" y="530.678" type="line"/>
      <point x="279.654" y="243.698" type="line"/>
      <point x="398.722" y="243.698" type="line"/>
      <point x="304.002" y="701.4" type="line"/>
      <point x="142.79" y="701.4" type="line"/>
    </contour>
  </outline>
</glyph>
<glyph name="underscore" format="2">
  <advance width="664.5720000000001"/>
  <unicode hex="005F"/>
  <outline>
    <contour>
      <point x="17.2" y="-198.866" type="line"/>
      <point x="647.3720000000001" y="-198.866" type="line"/>
      <point x="647.3720000000001" y="-51.586" type="line"/>
      <point x="17.2" y="-51.586" type="line"/>
    </contour>
  </outline>
</glyph>
<glyph name="a" format="2">
  <advance width="447.96999999999997"/>
  <unicode hex="0061"/>
  <anchor x="443.97999999999996" y="13.04" name="ogonek"/>
  <anchor x="223.87" y="0.0" name="bottom"/>
  <anchor x="215.72" y="547.1999999999999" name="top"/>
  <outline>
    <contour>
      <point x="11.14" y="157.24" type="curve" smooth="yes"/>
      <point x="11.14" y="71.33"/>
      <point x="46.22" y="-10.0"/>
      <point x="134.64" y="-10.0" type="curve" smooth="yes"/>
      <point x="193.18" y="-10.0"/>
      <point x="225.76" y="8.929999999999998"/>
      <point x="258.47999999999996" y="41.09" type="curve"/>
      <point x="275.38" y="6.93"/>
      <point x="303.05" y="-10.0"/>
      <point x="353.22" y="-10.0" type="curve" smooth="yes"/>
      <point x="394.81999999999994" y="-10.0"/>
      <point x="421.55" y="0.6699999999999997"/>
      <point x="443.97999999999996" y="13.11" type="curve"/>
      <point x="433.58000000000004" y="153.51" type="line"/>
      <point x="429.21" y="151.67"/>
      <point x="422.53999999999996" y="150.67"/>
      <point x="417.34000000000003" y="150.67" type="curve" smooth="yes"/>
      <point x="408.64" y="150.67"/>
      <point x="400.59999999999997" y="156.95"/>
      <point x="400.59999999999997" y="184.85" type="curve" smooth="yes"/>
      <point x="400.59999999999997" y="353.87" type="line" smooth="yes"/>
      <point x="400.59999999999997" y="483.12"/>
      <point x="343.05" y="557.1999999999999"/>
      <point x="194.42" y="557.1999999999999" type="curve" smooth="yes"/>
      <point x="147.43" y="557.1999999999999"/>
      <point x="78.91" y="543.74"/>
      <point x="30.29" y="524.0" type="curve"/>
      <point x="62.839999999999996" y="377.01" type="line"/>
      <point x="120.55999999999999" y="395.36"/>
      <point x="153.76" y="398.9"/>
      <point x="180.0" y="398.9" type="curve" smooth="yes"/>
      <point x="218.53" y="398.9"/>
      <point x="247.89" y="382.53000000000003"/>
      <point x="247.89" y="350.8" type="curve" smooth="yes"/>
      <point x="247.89" y="337.23" type="line"/>
      <point x="93.17" y="318.6700000000001"/>
      <point x="11.14" y="285.53999999999996"/>
    </contour>
    <contour>
      <point x="163.17" y="173.07" type="curve" smooth="yes"/>
      <point x="163.17" y="227.20000000000002"/>
      <point x="195.46" y="236.57999999999998"/>
      <point x="247.89" y="240.03" type="curve"/>
      <point x="247.89" y="130.82" type="line"/>
      <point x="233.76" y="117.73"/>
      <point x="212.76" y="110.78999999999999"/>
      <point x="196.52" y="110.78999999999999" type="curve" smooth="yes"/>
      <point x="177.28" y="110.78999999999999"/>
      <point x="163.17" y="126.14999999999999"/>
    </contour>
  </outline>
</glyph>
<glyph name="b" format="2">
  <advance width="445.414"/>
  <unicode hex="0062"/>
  <outline>
    <contour>
      <point x="26.63" y="17.482" type="line"/>
      <point x="84.11" y="0.8779999999999999"/>
      <point x="152.81" y="-10.0"/>
      <point x="205.41600000000003" y="-10.0" type="curve" smooth="yes"/>
      <point x="368.664" y="-10.0"/>
      <point x="430.49" y="71.27799999999999"/>
      <point x="430.49" y="290.316" type="curve" smooth="yes"/>
      <point x="430.49" y="472.486"/>
      <point x="382.81" y="557.2"/>
      <point x="281.71999999999997" y="557.2" type="curve" smooth="yes"/>
      <point x="252.716" y="557.2"/>
      <point x="216.61599999999999" y="545.2280000000001"/>
      <point x="190.68" y="527.39" type="curve"/>
      <point x="190.68" y="740.0" type="line"/>
      <point x="26.63" y="740.0" type="line"/>
    </contour>
    <contour>
      <point x="190.68" y="125.99000000000001" type="curve"/>
      <point x="190.68" y="393.24" type="line"/>
      <point x="203.57399999999998" y="401.356"/>
      <point x="213.38600000000002" y="404.84000000000003"/>
      <point x="224.32999999999998" y="404.84000000000003" type="curve" smooth="yes"/>
      <point x="248.11200000000002" y="404.84000000000003"/>
      <point x="257.582" y="376.278"/>
      <point x="257.582" y="272.858" type="curve" smooth="yes"/>
      <point x="257.582" y="149.02599999999998"/>
      <point x="247.36399999999998" y="120.978"/>
      <point x="217.42800000000003" y="120.978" type="curve" smooth="yes"/>
      <point x="209.288" y="120.978"/>
      <point x="201.02999999999997" y="122.56"/>
    </contour>
  </outline>
</glyph>
<glyph name="c" format="2">
  <advance width="380.826"/>
  <unicode hex="0063"/>
  <anchor x="230.67" y="547.1999999999999" name="top"/>
  <anchor x="235.956" y="0.0" name="bottom"/>
  <outline>
    <contour>
      <point x="15.064" y="271.10800000000006" type="curve" smooth="yes"/>
      <point x="15.064" y="81.77199999999999"/>
      <point x="82.48199999999999" y="-10.0"/>
      <point x="223.74600000000004" y="-10.0" type="curve" smooth="yes"/>
      <point x="276.082" y="-10.0"/>
      <point x="338.948" y="0.8099999999999996"/>
      <point x="372.86400000000003" y="14.478000000000002" type="curve"/>
      <point x="340.946" y="166.40400000000002" type="line"/>
      <point x="313.30600000000004" y="159.796"/>
      <point x="289.09600000000006" y="155.694"/>
      <point x="264.94200000000006" y="155.694" type="curve" smooth="yes"/>
      <point x="213.926" y="155.694"/>
      <point x="187.412" y="191.538"/>
      <point x="187.412" y="276.66200000000003" type="curve" smooth="yes"/>
      <point x="187.412" y="359.93399999999997"/>
      <point x="213.59799999999998" y="390.442"/>
      <point x="267.536" y="390.442" type="curve" smooth="yes"/>
      <point x="292.65" y="390.442"/>
      <point x="316.296" y="387.73"/>
      <point x="338.62600000000003" y="381.74000000000007" type="curve"/>
      <point x="365.62" y="540.062" type="line"/>
      <point x="336.21999999999997" y="550.5"/>
      <point x="284.092" y="557.1999999999999"/>
      <point x="235.75000000000003" y="557.1999999999999" type="curve" smooth="yes"/>
      <point x="88.68599999999999" y="557.1999999999999"/>
      <point x="15.064" y="461.604"/>
    </contour>
  </outline>
</glyph>
<glyph name="d" format="2">
  <advance width="446.288"/>
  <unicode hex="0064"/>
  <anchor x="221.998" y="275.0" name="center"/>
  <anchor x="217.36499999999998" y="740.0" name="top"/>
  <anchor x="456.04800000000006" y="740.0" name="topright"/>
  <anchor x="221.998" y="0.0" name="bottom"/>
  <outline>
    <contour>
      <point x="272.366" y="-0.35800000000000004" type="line"/>
      <point x="419.69300000000004" y="-0.35800000000000004" type="line"/>
      <point x="419.69300000000004" y="740.0" type="line"/>
      <point x="254.785" y="740.0" type="line"/>
      <point x="254.785" y="551.749" type="line"/>
      <point x="240.21400000000003" y="555.202"/>
      <point x="221.51000000000002" y="557.2"/>
      <point x="206.674" y="557.2" type="curve" smooth="yes"/>
      <point x="79.80399999999999" y="557.2"/>
      <point x="14.902999999999999" y="457.346"/>
      <point x="14.902999999999999" y="263.857" type="curve" smooth="yes"/>
      <point x="14.902999999999999" y="82.936"/>
      <point x="64.32199999999999" y="-10.0"/>
      <point x="159.491" y="-10.0" type="curve" smooth="yes"/>
      <point x="195.46799999999996" y="-10.0"/>
      <point x="231.698" y="1.7199999999999998"/>
      <point x="258.548" y="21.323" type="curve"/>
    </contour>
    <contour>
      <point x="254.71300000000002" y="149.35800000000003" type="line"/>
      <point x="244.155" y="143.63400000000001"/>
      <point x="232.76700000000002" y="140.11499999999998"/>
      <point x="222.52000000000004" y="140.11499999999998" type="curve" smooth="yes"/>
      <point x="198.146" y="140.11499999999998"/>
      <point x="188.662" y="172.4"/>
      <point x="188.662" y="287.472" type="curve" smooth="yes"/>
      <point x="188.662" y="398.17400000000004"/>
      <point x="198.83100000000002" y="423.81600000000003"/>
      <point x="227.944" y="423.81600000000003" type="curve" smooth="yes"/>
      <point x="236.986" y="423.81600000000003"/>
      <point x="244.454" y="422.283"/>
      <point x="254.71300000000002" y="416.538" type="curve"/>
    </contour>
  </outline>
</glyph>
<glyph name="e" format="2">
  <advance width="431.34399999999994"/>
  <unicode hex="0065"/>
  <anchor x="366.398" y="10.094" name="ogonek"/>
  <anchor x="219.24400000000003" y="0.0" name="bottom"/>
  <anchor x="223.628" y="547.1999999999999" name="top"/>
  <outline>
    <contour>
      <point x="223.478" y="-10.0" type="curve" smooth="yes"/>
      <point x="295.958" y="-10.0"/>
      <point x="352.45200000000006" y="0.8739999999999999"/>
      <point x="411.76199999999994" y="25.126" type="curve"/>
      <point x="390.132" y="160.72400000000002" type="line"/>
      <point x="347.09600000000006" y="149.44199999999998"/>
      <point x="302.988" y="140.218"/>
      <point x="264.324" y="140.218" type="curve" smooth="yes"/>
      <point x="200.362" y="140.218"/>
      <point x="183.93" y="162.466"/>
      <point x="183.786" y="206.652" type="curve" smooth="yes"/>
      <point x="183.786" y="210.138"/>
      <point x="183.78599999999997" y="212.834"/>
      <point x="183.85599999999994" y="216.31999999999996" type="curve"/>
      <point x="250.142" y="218.974"/>
      <point x="358.964" y="231.19600000000003"/>
      <point x="413.662" y="237.91199999999995" type="curve"/>
      <point x="414.524" y="256.59799999999996"/>
      <point x="415.452" y="287.68000000000006"/>
      <point x="415.452" y="301.494" type="curve" smooth="yes"/>
      <point x="415.452" y="483.512"/>
      <point x="359.028" y="557.1999999999999"/>
      <point x="229.18999999999997" y="557.1999999999999" type="curve" smooth="yes"/>
      <point x="90.42" y="557.1999999999999"/>
      <point x="15.008000000000001" y="477.06199999999995"/>
      <point x="15.008000000000001" y="264.62199999999996" type="curve" smooth="yes"/>
      <point x="15.008000000000001" y="72.254"/>
      <point x="86.04199999999999" y="-10.0"/>
    </contour>
    <contour>
      <point x="183.99799999999996" y="318.74399999999997" type="curve"/>
      <point x="186.75999999999996" y="410.188"/>
      <point x="199.20999999999998" y="427.904"/>
      <point x="220.59800000000004" y="427.904" type="curve" smooth="yes"/>
      <point x="242.33200000000005" y="427.904"/>
      <point x="252.98400000000004" y="408.804"/>
      <point x="253.70000000000005" y="322.57" type="curve"/>
      <point x="236.86599999999993" y="320.93800000000005"/>
      <point x="206.64" y="318.958"/>
    </contour>
  </outline>
</glyph>
<glyph name="f" format="2">
  <advance width="302.428"/>
  <unicode hex="0066"/>
  <outline>
    <contour>
      <point x="58.836" y="0.0" type="line"/>
      <point x="219.446" y="0.0" type="line"/>
      <point x="219.446" y="384.662" type="line"/>
      <point x="287.06" y="384.662" type="line"/>
      <point x="287.06" y="518.83" type="line"/>
      <point x="220.22" y="518.83" type="line"/>
      <point x="220.22" y="533.868" type="line" smooth="yes"/>
      <point x="220.22" y="586.0020000000001"/>
      <point x="235.84799999999998" y="605.784"/>
      <point x="267.33000000000004" y="605.784" type="curve" smooth="yes"/>
      <point x="280.584" y="605.784"/>
      <point x="295.532" y="603.2539999999999"/>
      <point x="315.456" y="596.898" type="curve"/>
      <point x="339.68" y="723.3720000000001" type="line"/>
      <point x="299.526" y="742.412"/>
      <point x="263.886" y="750.014"/>
      <point x="222.554" y="750.014" type="curve" smooth="yes"/>
      <point x="115.116" y="750.014"/>
      <point x="58.836" y="675.096"/>
      <point x="58.836" y="535.932" type="curve" smooth="yes"/>
      <point x="58.836" y="518.83" type="line"/>
      <point x="7.09" y="510.86600000000004" type="line"/>
      <point x="7.09" y="384.662" type="line"/>
      <point x="58.836" y="384.662" type="line"/>
    </contour>
  </outline>
</glyph>
<glyph name="g" format="2">
  <advance width="446.826"/>
  <unicode hex="0067"/>
  <anchor x="203.912" y="547.1999999999999" name="top"/>
  <anchor x="219.392" y="-211.0" name="bottom"/>
  <outline>
    <contour>
      <point x="199.194" y="-220.0" type="curve" smooth="yes"/>
      <point x="349.13" y="-220.0"/>
      <point x="430.36799999999994" y="-146.65399999999997"/>
      <point x="430.36799999999994" y="-24.05" type="curve" smooth="yes"/>
      <point x="430.36799999999994" y="72.194"/>
      <point x="378.11000000000007" y="128.56399999999996"/>
      <point x="286.988" y="128.56399999999996" type="curve" smooth="yes"/>
      <point x="178.72399999999996" y="128.56399999999996" type="line" smooth="yes"/>
      <point x="152.656" y="128.56399999999996"/>
      <point x="138.906" y="138.1"/>
      <point x="138.906" y="157.39000000000001" type="curve" smooth="yes"/>
      <point x="138.906" y="176.468"/>
      <point x="145.87" y="186.36399999999998"/>
      <point x="165.396" y="199.258" type="curve"/>
      <point x="83.844" y="221.10000000000002" type="line"/>
      <point x="49.22" y="196.62"/>
      <point x="23.35600000000001" y="160.462"/>
      <point x="23.35600000000001" y="105.206" type="curve" smooth="yes"/>
      <point x="23.35600000000001" y="33.35999999999999"/>
      <point x="77.502" y="-14.581999999999997"/>
      <point x="166.148" y="-14.581999999999997" type="curve" smooth="yes"/>
      <point x="241.82600000000002" y="-14.581999999999997" type="line" smooth="yes"/>
      <point x="271.80799999999994" y="-14.581999999999997"/>
      <point x="280.228" y="-23.124"/>
      <point x="280.228" y="-43.04200000000001" type="curve" smooth="yes"/>
      <point x="280.228" y="-66.998"/>
      <point x="255.49400000000003" y="-80.74200000000002"/>
      <point x="207.34199999999998" y="-80.74200000000002" type="curve" smooth="yes"/>
      <point x="147.766" y="-80.74200000000002"/>
      <point x="126.76599999999998" y="-69.56400000000001"/>
      <point x="126.76599999999998" y="-41.022000000000006" type="curve" smooth="yes"/>
      <point x="126.76599999999998" y="-22.354000000000003"/>
      <point x="133.99200000000002" y="-12.733999999999996"/>
      <point x="151.428" y="-3.3100000000000023" type="curve"/>
      <point x="70.35799999999999" y="30.564000000000004" type="line"/>
      <point x="32.89" y="10.400000000000002"/>
      <point x="5.6359999999999975" y="-26.298000000000002"/>
      <point x="5.6359999999999975" y="-83.092" type="curve" smooth="yes"/>
      <point x="5.6359999999999975" y="-173.8"/>
      <point x="73.768" y="-220.0"/>
    </contour>
    <contour>
      <point x="205.47" y="169.02200000000002" type="curve" smooth="yes"/>
      <point x="327.854" y="169.02200000000002"/>
      <point x="390.866" y="234.76800000000003"/>
      <point x="390.866" y="363.112" type="curve" smooth="yes"/>
      <point x="390.866" y="491.526"/>
      <point x="327.854" y="557.2719999999999"/>
      <point x="205.47" y="557.2719999999999" type="curve" smooth="yes"/>
      <point x="82.87600000000002" y="557.2719999999999"/>
      <point x="19.864" y="491.526"/>
      <point x="19.864" y="363.112" type="curve" smooth="yes"/>
      <point x="19.864" y="234.76800000000003"/>
      <point x="82.87600000000002" y="169.02200000000002"/>
    </contour>
    <contour>
      <point x="205.47" y="284.64" type="curve" smooth="yes"/>
      <point x="183.66000000000003" y="284.64"/>
      <point x="174.29399999999998" y="300.69399999999996"/>
      <point x="174.29399999999998" y="363.112" type="curve" smooth="yes"/>
      <point x="174.29399999999998" y="425.67"/>
      <point x="183.66000000000003" y="441.724"/>
      <point x="205.47" y="441.724" type="curve" smooth="yes"/>
      <point x="227.28" y="441.724"/>
      <point x="236.436" y="425.67"/>
      <point x="236.436" y="363.112" type="curve" smooth="yes"/>
      <point x="236.436" y="300.69399999999996"/>
      <point x="227.28" y="284.64"/>
    </contour>
    <contour>
      <point x="363.73" y="406.036" type="line"/>
      <point x="372.35" y="423.914"/>
      <point x="384.334" y="433.69"/>
      <point x="398.7420000000001" y="433.69" type="curve" smooth="yes"/>
      <point x="409.686" y="433.69"/>
      <point x="417.70200000000006" y="431.97"/>
      <point x="425.93199999999996" y="429.96599999999995" type="curve"/>
      <point x="449.6520000000001" y="571.154" type="line"/>
      <point x="435.328" y="578.532"/>
      <point x="415.99" y="583.2620000000001"/>
      <point x="396.4460000000001" y="583.2620000000001" type="curve" smooth="yes"/>
      <point x="356.12" y="583.2620000000001"/>
      <point x="325.818" y="562.8960000000001"/>
      <point x="304.5" y="518.058" type="curve"/>
    </contour>
  </outline>
</glyph>
<glyph name="h" format="2">
  <advance width="444.147"/>
  <unicode hex="0068"/>
  <anchor x="221.231" y="395.0" name="center"/>
  <anchor x="222.091" y="0.0" name="bottom"/>
  <anchor x="227.16699999999997" y="740.0" name="top"/>
  <outline>
    <contour>
      <point x="26.595" y="0.0" type="line"/>
      <point x="190.75" y="0.0" type="line"/>
      <point x="190.75" y="390.464" type="line"/>
      <point x="203.12" y="398.21"/>
      <point x="214.707" y="402.49899999999997"/>
      <point x="227.17600000000002" y="402.49899999999997" type="curve" smooth="yes"/>
      <point x="241.83400000000003" y="402.49899999999997"/>
      <point x="254.15" y="394.326"/>
      <point x="254.15" y="368.96099999999996" type="curve" smooth="yes"/>
      <point x="254.15" y="0.0" type="line"/>
      <point x="419.05799999999994" y="0.0" type="line"/>
      <point x="419.05799999999994" y="416.977" type="line" smooth="yes"/>
      <point x="419.05799999999994" y="515.2280000000001"/>
      <point x="374.291" y="557.2"/>
      <point x="301.40000000000003" y="557.2" type="curve" smooth="yes"/>
      <point x="265.59100000000007" y="557.2"/>
      <point x="225.76199999999997" y="543.663"/>
      <point x="190.75" y="512.1189999999999" type="curve"/>
      <point x="190.75" y="740.0" type="line"/>
      <point x="26.595" y="740.0" type="line"/>
    </contour>
  </outline>
</glyph>
<glyph name="i" format="2">
  <advance width="217.31"/>
  <unicode hex="0069"/>
  <anchor x="190.66600000000003" y="0.0" name="ogonek"/>
  <anchor x="109.042" y="0.0" name="bottom"/>
  <outline>
    <contour>
      <point x="109.042" y="584.206" type="curve" smooth="yes"/>
      <point x="171.74599999999998" y="584.206"/>
      <point x="202.376" y="616.2520000000001"/>
      <point x="202.376" y="681.186" type="curve" smooth="yes"/>
      <point x="202.376" y="747.668"/>
      <point x="170.198" y="778.94"/>
      <point x="109.042" y="778.94" type="curve" smooth="yes"/>
      <point x="47.111999999999995" y="778.94"/>
      <point x="14.934" y="747.668"/>
      <point x="14.934" y="681.186" type="curve" smooth="yes"/>
      <point x="14.934" y="615.4780000000001"/>
      <point x="47.251999999999995" y="584.206"/>
    </contour>
    <contour>
      <point x="26.63" y="0.0" type="line"/>
      <point x="190.68" y="0.0" type="line"/>
      <point x="190.68" y="547.2" type="line"/>
      <point x="26.63" y="547.2" type="line"/>
    </contour>
  </outline>
</glyph>
<glyph name="j" format="2">
  <advance width="219.62"/>
  <unicode hex="006A"/>
  <outline>
    <contour>
      <point x="193.004" y="547.2" type="line"/>
      <point x="28.953999999999997" y="547.2" type="line"/>
      <point x="28.953999999999997" y="25.524" type="line" smooth="yes"/>
      <point x="28.953999999999997" y="-26.854"/>
      <point x="18.27" y="-46.924000000000014"/>
      <point x="-9.632000000000001" y="-51.404" type="curve" smooth="yes"/>
      <point x="-20.12" y="-52.117999999999995"/>
      <point x="-29.060000000000002" y="-50.36999999999999"/>
      <point x="-42.01" y="-46.934" type="curve"/>
      <point x="-62.494" y="-204.05599999999998" type="line"/>
      <point x="-30.874" y="-212.83"/>
      <point x="-0.1539999999999993" y="-216.892"/>
      <point x="26.582" y="-216.052" type="curve" smooth="yes"/>
      <point x="147.40800000000002" y="-210.9"/>
      <point x="193.004" y="-135.408"/>
      <point x="193.004" y="12.538" type="curve" smooth="yes"/>
    </contour>
    <contour>
      <point x="111.338" y="584.206" type="curve" smooth="yes"/>
      <point x="173.91600000000003" y="584.206"/>
      <point x="204.672" y="616.2520000000001"/>
      <point x="204.672" y="681.186" type="curve" smooth="yes"/>
      <point x="204.672" y="747.668"/>
      <point x="172.368" y="778.94"/>
      <point x="111.338" y="778.94" type="curve" smooth="yes"/>
      <point x="49.407999999999994" y="778.94"/>
      <point x="17.23" y="747.668"/>
      <point x="17.23" y="681.186" type="curve" smooth="yes"/>
      <point x="17.23" y="615.4780000000001"/>
      <point x="49.547999999999995" y="584.206"/>
    </contour>
  </outline>
</glyph>
<glyph name="k" format="2">
  <advance width="432.72999999999996"/>
  <unicode hex="006B"/>
  <anchor x="102.77" y="740.0" name="top"/>
  <anchor x="222.54" y="0.0" name="bottom"/>
  <outline>
    <contour>
      <point x="381.54" y="-9.870000000000001" type="curve" smooth="yes"/>
      <point x="395.17" y="-9.870000000000001"/>
      <point x="408.05" y="-8.87"/>
      <point x="422.55" y="-5.4" type="curve"/>
      <point x="422.02" y="161.92" type="line"/>
      <point x="418.63000000000005" y="161.92"/>
      <point x="416.0" y="161.64"/>
      <point x="413.11" y="161.64" type="curve" smooth="yes"/>
      <point x="384.60999999999996" y="161.64"/>
      <point x="359.45000000000005" y="179.16"/>
      <point x="292.08000000000004" y="270.06" type="curve" smooth="yes"/>
      <point x="175.6" y="428.0" type="line"/>
      <point x="175.6" y="740.0" type="line"/>
      <point x="29.94" y="740.0" type="line"/>
      <point x="29.94" y="0.0" type="line"/>
      <point x="175.6" y="0.0" type="line"/>
      <point x="175.6" y="178.75000000000003" type="line"/>
      <point x="251.01999999999998" y="78.58" type="line" smooth="yes"/>
      <point x="303.5" y="8.879999999999999"/>
      <point x="333.79" y="-9.870000000000001"/>
    </contour>
    <contour>
      <point x="267.9" y="218.39" type="line"/>
      <point x="347.37" y="321.68999999999994"/>
      <point x="412.96000000000004" y="445.97"/>
      <point x="427.34999999999997" y="546.33" type="curve"/>
      <point x="277.94" y="556.1999999999999" type="line"/>
      <point x="269.1" y="458.59999999999997"/>
      <point x="232.89" y="393.37"/>
      <point x="171.29" y="316.96" type="curve"/>
    </contour>
  </outline>
</glyph>
<glyph name="l" format="2">
  <advance width="250.718"/>
  <unicode hex="006C"/>
  <anchor x="125.73" y="395.0" name="center"/>
  <anchor x="109.042" y="740.0" name="top"/>
  <anchor x="227.07000000000002" y="740.0" name="topright"/>
  <anchor x="139.45000000000002" y="0.0" name="bottom"/>
  <outline>
    <contour>
      <point x="190.68" y="740.0" type="line"/>
      <point x="26.63" y="740.0" type="line"/>
      <point x="26.63" y="170.862" type="line" smooth="yes"/>
      <point x="26.63" y="40.54"/>
      <point x="69.958" y="-10.0"/>
      <point x="164.682" y="-10.0" type="curve" smooth="yes"/>
      <point x="200.53400000000002" y="-10.0"/>
      <point x="232.106" y="2.39"/>
      <point x="251.612" y="14.24" type="curve"/>
      <point x="240.38800000000003" y="152.106" type="line"/>
      <point x="231.082" y="149.802"/>
      <point x="222.73200000000003" y="148.37400000000002"/>
      <point x="216.62599999999998" y="148.37400000000002" type="curve" smooth="yes"/>
      <point x="200.988" y="148.37400000000002"/>
      <point x="190.68" y="156.386"/>
      <point x="190.68" y="192.964" type="curve" smooth="yes"/>
    </contour>
  </outline>
</glyph>
<glyph name="m" format="2">
  <advance width="663.534"/>
  <unicode hex="006D"/>
  <outline>
    <contour>
      <point x="26.63" y="0.0" type="line"/>
      <point x="191.454" y="0.0" type="line"/>
      <point x="191.454" y="390.89799999999997" type="line"/>
      <point x="201.62400000000002" y="397.516"/>
      <point x="212.602" y="402.104"/>
      <point x="223.96999999999997" y="402.104" type="curve" smooth="yes"/>
      <point x="239.07800000000003" y="402.104"/>
      <point x="250.164" y="392.46799999999996"/>
      <point x="250.164" y="368.926" type="curve" smooth="yes"/>
      <point x="250.164" y="0.0" type="line"/>
      <point x="414.98799999999994" y="0.0" type="line"/>
      <point x="414.98799999999994" y="378.042" type="line" smooth="yes"/>
      <point x="414.98799999999994" y="382.232"/>
      <point x="414.58200000000005" y="386.918"/>
      <point x="413.71199999999993" y="390.38" type="curve"/>
      <point x="424.782" y="397.436"/>
      <point x="435.952" y="402.26"/>
      <point x="447.722" y="402.26" type="curve" smooth="yes"/>
      <point x="462.8" y="402.26"/>
      <point x="473.628" y="392.69599999999997"/>
      <point x="473.628" y="368.982" type="curve" smooth="yes"/>
      <point x="473.628" y="0.0" type="line"/>
      <point x="638.452" y="0.0" type="line"/>
      <point x="638.452" y="420.84000000000003" type="line" smooth="yes"/>
      <point x="638.452" y="508.51599999999996"/>
      <point x="598.96" y="557.2"/>
      <point x="523.854" y="557.2" type="curve" smooth="yes"/>
      <point x="481.61" y="557.2"/>
      <point x="441.098" y="545.5200000000001"/>
      <point x="393.41400000000004" y="508.2060000000001" type="curve"/>
      <point x="375.046" y="540.0740000000001"/>
      <point x="344.6" y="557.13"/>
      <point x="299.156" y="557.13" type="curve" smooth="yes"/>
      <point x="260.09000000000003" y="557.13"/>
      <point x="219.468" y="546.3660000000001"/>
      <point x="175.63" y="511.14400000000006" type="curve"/>
      <point x="175.63" y="547.2" type="line"/>
      <point x="26.63" y="547.2" type="line"/>
    </contour>
  </outline>
</glyph>
<glyph name="n" format="2">
  <advance width="444.85799999999995"/>
  <unicode hex="006E"/>
  <anchor x="222.46" y="547.2" name="top"/>
  <anchor x="222.73999999999998" y="0.0" name="bottom"/>
  <outline>
    <contour>
      <point x="26.63" y="0.0" type="line"/>
      <point x="191.454" y="0.0" type="line"/>
      <point x="191.454" y="390.492" type="line"/>
      <point x="203.078" y="397.506"/>
      <point x="215.446" y="402.604"/>
      <point x="227.964" y="402.604" type="curve" smooth="yes"/>
      <point x="242.62199999999999" y="402.604"/>
      <point x="254.95200000000003" y="394.382"/>
      <point x="254.95200000000003" y="368.996" type="curve" smooth="yes"/>
      <point x="254.95200000000003" y="0.0" type="line"/>
      <point x="419.776" y="0.0" type="line"/>
      <point x="419.776" y="420.854" type="line" smooth="yes"/>
      <point x="419.776" y="508.20599999999996"/>
      <point x="380.462" y="557.2"/>
      <point x="302.11800000000005" y="557.2" type="curve" smooth="yes"/>
      <point x="260.926" y="557.2"/>
      <point x="220.604" y="546.266"/>
      <point x="175.63" y="510.82199999999995" type="curve"/>
      <point x="175.63" y="547.2" type="line"/>
      <point x="26.63" y="547.2" type="line"/>
    </contour>
  </outline>
</glyph>
<glyph name="o" format="2">
  <advance width="444.82"/>
  <unicode hex="006F"/>
  <anchor x="312.54600000000005" y="7.84" name="ogonek"/>
  <anchor x="222.41" y="547.2" name="top"/>
  <anchor x="342.052" y="537.34" name="topright"/>
  <anchor x="222.482" y="0.0" name="bottom"/>
  <outline>
    <contour>
      <point x="14.937999999999999" y="274.57399999999996" type="curve" smooth="yes"/>
      <point x="14.937999999999999" y="106.394"/>
      <point x="55.794000000000004" y="-10.0"/>
      <point x="222.482" y="-10.0" type="curve" smooth="yes"/>
      <point x="389.026" y="-10.0"/>
      <point x="429.882" y="106.394"/>
      <point x="429.882" y="274.57399999999996" type="curve" smooth="yes"/>
      <point x="429.882" y="441.45400000000006"/>
      <point x="390.79799999999994" y="557.2"/>
      <point x="222.482" y="557.2" type="curve" smooth="yes"/>
      <point x="53.99400000000001" y="557.2"/>
      <point x="14.937999999999999" y="441.45400000000006"/>
    </contour>
    <contour>
      <point x="186.36999999999998" y="274.50199999999995" type="curve" smooth="yes"/>
      <point x="186.36999999999998" y="392.318"/>
      <point x="194.358" y="409.932"/>
      <point x="222.41" y="409.932" type="curve" smooth="yes"/>
      <point x="249.76" y="409.932"/>
      <point x="258.42199999999997" y="392.318"/>
      <point x="258.42199999999997" y="274.50199999999995" type="curve" smooth="yes"/>
      <point x="258.42199999999997" y="156.074"/>
      <point x="249.01999999999998" y="138.04199999999997"/>
      <point x="222.41" y="138.04199999999997" type="curve" smooth="yes"/>
      <point x="195.026" y="138.04199999999997"/>
      <point x="186.36999999999998" y="156.074"/>
    </contour>
  </outline>
</glyph>
<glyph name="p" format="2">
  <advance width="446.18800000000005"/>
  <unicode hex="0070"/>
  <outline>
    <contour>
      <point x="26.63" y="-210.0" type="line"/>
      <point x="191.54" y="-210.0" type="line"/>
      <point x="191.54" y="-4.486" type="line"/>
      <point x="207.77599999999998" y="-7.9879999999999995"/>
      <point x="226.43800000000002" y="-10.0"/>
      <point x="239.47199999999998" y="-10.0" type="curve" smooth="yes"/>
      <point x="366.3419999999999" y="-10.0"/>
      <point x="431.264" y="90.628"/>
      <point x="431.264" y="284.124" type="curve" smooth="yes"/>
      <point x="431.264" y="464.74600000000004"/>
      <point x="382.036" y="557.2"/>
      <point x="287.13800000000003" y="557.2" type="curve" smooth="yes"/>
      <point x="249.534" y="557.2"/>
      <point x="217.476" y="547.034"/>
      <point x="184.918" y="524.6379999999999" type="curve"/>
      <point x="175.63" y="548.46" type="line"/>
      <point x="26.63" y="548.46" type="line"/>
    </contour>
    <contour>
      <point x="218.202" y="124.074" type="curve" smooth="yes"/>
      <point x="209.288" y="124.074"/>
      <point x="201.02999999999997" y="126.43"/>
      <point x="191.454" y="131.408" type="curve"/>
      <point x="191.454" y="398.65799999999996" type="line"/>
      <point x="202.79999999999998" y="405.226"/>
      <point x="213.38600000000002" y="407.93600000000004"/>
      <point x="223.556" y="407.93600000000004" type="curve" smooth="yes"/>
      <point x="248.11200000000002" y="407.93600000000004"/>
      <point x="257.582" y="377.826"/>
      <point x="257.582" y="260.474" type="curve" smooth="yes"/>
      <point x="257.582" y="150.57399999999998"/>
      <point x="247.36399999999998" y="124.074"/>
    </contour>
  </outline>
</glyph>
<glyph name="q" format="2">
  <advance width="446.96200000000005"/>
  <unicode hex="0071"/>
  <outline>
    <contour>
      <point x="420.33200000000005" y="532.94" type="line"/>
      <point x="368.666" y="547.9959999999999"/>
      <point x="299.57" y="557.2"/>
      <point x="241.546" y="557.2" type="curve" smooth="yes"/>
      <point x="86.03800000000001" y="557.2"/>
      <point x="14.924" y="470.504"/>
      <point x="14.924" y="278.55600000000004" type="curve" smooth="yes"/>
      <point x="14.924" y="78.71000000000001"/>
      <point x="61.955999999999996" y="-10.0"/>
      <point x="165.24200000000002" y="-10.0" type="curve" smooth="yes"/>
      <point x="195.794" y="-10.0"/>
      <point x="231.894" y="1.9720000000000004"/>
      <point x="256.282" y="19.035999999999998" type="curve"/>
      <point x="256.282" y="-210.0" type="line"/>
      <point x="420.33200000000005" y="-210.0" type="line"/>
    </contour>
    <contour>
      <point x="255.508" y="419.53599999999994" type="curve"/>
      <point x="255.508" y="152.41200000000003" type="line"/>
      <point x="244.162" y="145.07"/>
      <point x="233.576" y="140.81199999999998"/>
      <point x="222.632" y="140.81199999999998" type="curve" smooth="yes"/>
      <point x="198.976" y="140.81199999999998"/>
      <point x="189.38" y="169.626"/>
      <point x="189.38" y="272.79400000000004" type="curve" smooth="yes"/>
      <point x="189.38" y="396.626"/>
      <point x="199.598" y="424.67400000000004"/>
      <point x="229.534" y="424.67400000000004" type="curve" smooth="yes"/>
      <point x="236.86" y="424.67400000000004"/>
      <point x="245.932" y="423.092"/>
    </contour>
  </outline>
</glyph>
<glyph name="r" format="2">
  <advance width="322.46799999999996"/>
  <unicode hex="0072"/>
  <anchor x="168.058" y="547.2" name="top"/>
  <anchor x="108.268" y="0.0" name="bottom"/>
  <outline>
    <contour>
      <point x="174.856" y="547.2" type="line"/>
      <point x="26.63" y="547.2" type="line"/>
      <point x="26.63" y="0.0" type="line"/>
      <point x="189.906" y="0.0" type="line"/>
      <point x="189.906" y="365.698" type="line"/>
      <point x="212.32999999999998" y="380.65999999999997"/>
      <point x="229.488" y="385.146"/>
      <point x="249.49200000000002" y="385.146" type="curve" smooth="yes"/>
      <point x="259.518" y="385.146"/>
      <point x="277.08" y="384.26599999999996"/>
      <point x="293.024" y="379.752" type="curve"/>
      <point x="321.144" y="547.982" type="line"/>
      <point x="301.058" y="555.6179999999999"/>
      <point x="286.226" y="557.2"/>
      <point x="274.032" y="557.2" type="curve" smooth="yes"/>
      <point x="231.26199999999997" y="557.2"/>
      <point x="209.374" y="540.808"/>
      <point x="174.856" y="499.194" type="curve"/>
    </contour>
  </outline>
</glyph>
<glyph name="s" format="2">
  <advance width="374.58"/>
  <unicode hex="0073"/>
  <anchor x="188.92000000000002" y="547.1999999999999" name="top"/>
  <anchor x="191.29999999999998" y="0.0" name="bottom"/>
  <outline>
    <contour>
      <point x="13.410000000000002" y="19.560000000000002" type="line"/>
      <point x="61.41" y="-0.78"/>
      <point x="109.37" y="-10.0"/>
      <point x="169.41" y="-10.0" type="curve" smooth="yes"/>
      <point x="291.78999999999996" y="-10.0"/>
      <point x="366.54" y="49.480000000000004"/>
      <point x="366.54" y="171.26" type="curve" smooth="yes"/>
      <point x="366.54" y="291.46000000000004"/>
      <point x="304.10999999999996" y="324.91999999999996"/>
      <point x="238.26999999999998" y="343.91999999999996" type="curve" smooth="yes"/>
      <point x="190.45" y="357.73"/>
      <point x="159.74" y="363.22999999999996"/>
      <point x="159.74" y="386.3" type="curve" smooth="yes"/>
      <point x="159.74" y="405.34999999999997"/>
      <point x="176.88" y="410.89000000000004"/>
      <point x="204.67000000000002" y="410.89000000000004" type="curve" smooth="yes"/>
      <point x="246.44" y="410.89000000000004"/>
      <point x="285.93" y="403.35"/>
      <point x="324.06" y="390.61999999999995" type="curve"/>
      <point x="346.18" y="529.91" type="line"/>
      <point x="310.38000000000005" y="546.1099999999999"/>
      <point x="253.6" y="557.1999999999999"/>
      <point x="201.34" y="557.1999999999999" type="curve" smooth="yes"/>
      <point x="78.21000000000001" y="557.1999999999999"/>
      <point x="11.129999999999999" y="493.56"/>
      <point x="11.129999999999999" y="372.42" type="curve" smooth="yes"/>
      <point x="11.129999999999999" y="286.45"/>
      <point x="47.38999999999999" y="234.96"/>
      <point x="115.78999999999999" y="212.39000000000001" type="curve" smooth="yes"/>
      <point x="166.98000000000002" y="195.25"/>
      <point x="211.60000000000002" y="190.67000000000002"/>
      <point x="211.60000000000002" y="161.48" type="curve" smooth="yes"/>
      <point x="211.60000000000002" y="145.04"/>
      <point x="197.08" y="133.37"/>
      <point x="164.75" y="133.37" type="curve" smooth="yes"/>
      <point x="124.72999999999999" y="133.37"/>
      <point x="63.68000000000001" y="142.70000000000002"/>
      <point x="29.859999999999996" y="155.02" type="curve"/>
    </contour>
  </outline>
</glyph>
<glyph name="t" format="2">
  <advance width="310.868"/>
  <unicode hex="0074"/>
  <anchor x="151.614" y="275.0" name="center"/>
  <anchor x="144.692" y="656.486" name="top"/>
  <anchor x="252.056" y="764.42" name="topright"/>
  <anchor x="175.496" y="0.0" name="bottom"/>
  <outline>
    <contour>
      <point x="189.14399999999998" y="-10.0" type="curve" smooth="yes"/>
      <point x="223.614" y="-10.0"/>
      <point x="268.434" y="-6.1259999999999994"/>
      <point x="312.02799999999996" y="13.558" type="curve"/>
      <point x="288.39200000000005" y="147.50000000000003" type="line"/>
      <point x="274.41200000000003" y="144.14"/>
      <point x="261.26" y="142.4"/>
      <point x="250.604" y="142.4" type="curve" smooth="yes"/>
      <point x="229.034" y="142.4"/>
      <point x="216.12" y="153.432"/>
      <point x="216.12" y="199.49599999999998" type="curve" smooth="yes"/>
      <point x="216.12" y="413.032" type="line"/>
      <point x="292.15799999999996" y="413.032" type="line"/>
      <point x="292.15799999999996" y="547.2" type="line"/>
      <point x="216.12" y="547.2" type="line"/>
      <point x="216.12" y="656.486" type="line"/>
      <point x="73.138" y="656.486" type="line"/>
      <point x="52.06999999999999" y="547.2" type="line"/>
      <point x="5.390000000000001" y="540.0100000000001" type="line"/>
      <point x="5.390000000000001" y="413.8059999999999" type="line"/>
      <point x="52.06999999999999" y="413.8059999999999" type="line"/>
      <point x="52.06999999999999" y="181.26399999999998" type="line" smooth="yes"/>
      <point x="52.06999999999999" y="51.916"/>
      <point x="97.89" y="-10.0"/>
    </contour>
  </outline>
</glyph>
<glyph name="u" format="2">
  <advance width="459.99199999999996"/>
  <unicode hex="0075"/>
  <anchor x="458.458" y="14.652" name="ogonek"/>
  <anchor x="222.022" y="547.2" name="top"/>
  <anchor x="416.85200000000003" y="547.2" name="topright"/>
  <anchor x="230.53199999999998" y="0.0" name="bottom"/>
  <outline>
    <contour>
      <point x="149.482" y="-10.0" type="curve" smooth="yes"/>
      <point x="195.866" y="-10.0"/>
      <point x="235.574" y="6.351999999999999"/>
      <point x="271.26800000000003" y="33.978" type="curve"/>
      <point x="290.95" y="8.364"/>
      <point x="318.61" y="-10.0"/>
      <point x="361.284" y="-10.0" type="curve" smooth="yes"/>
      <point x="403.948" y="-10.0"/>
      <point x="434.784" y="1.3879999999999997"/>
      <point x="458.458" y="14.652" type="curve"/>
      <point x="446.914" y="155.392" type="line"/>
      <point x="442.404" y="153.57399999999998"/>
      <point x="435.842" y="152.42000000000002"/>
      <point x="430.67" y="152.42000000000002" type="curve" smooth="yes"/>
      <point x="421.622" y="152.42000000000002"/>
      <point x="416.85200000000003" y="157.79000000000002"/>
      <point x="416.85200000000003" y="179.434" type="curve" smooth="yes"/>
      <point x="416.85200000000003" y="547.2" type="line"/>
      <point x="252.80199999999996" y="547.2" type="line"/>
      <point x="252.80199999999996" y="156.178" type="line"/>
      <point x="240.916" y="148.16"/>
      <point x="228.776" y="144.252"/>
      <point x="216.928" y="144.252" type="curve" smooth="yes"/>
      <point x="202.322" y="144.252"/>
      <point x="189.906" y="152.40400000000002"/>
      <point x="189.906" y="176.72" type="curve" smooth="yes"/>
      <point x="189.906" y="547.2" type="line"/>
      <point x="25.082" y="547.2" type="line"/>
      <point x="25.082" y="145.41600000000003" type="line" smooth="yes"/>
      <point x="25.082" y="30.48"/>
      <point x="78.60200000000002" y="-10.0"/>
    </contour>
  </outline>
</glyph>
<glyph name="v" format="2">
  <advance width="450.993"/>
  <unicode hex="0076"/>
  <outline>
    <contour>
      <point x="120.548" y="0.0" type="line"/>
      <point x="329.14099999999996" y="0.0" type="line"/>
      <point x="447.542" y="546.864" type="line"/>
      <point x="271.07800000000003" y="547.536" type="line"/>
      <point x="226.901" y="152.23399999999998" type="line"/>
      <point x="180.98999999999998" y="547.536" type="line"/>
      <point x="3.2359999999999998" y="546.864" type="line"/>
    </contour>
  </outline>
</glyph>
<glyph name="w" format="2">
  <advance width="657.0319999999999"/>
  <unicode hex="0077"/>
  <anchor x="328.43399999999997" y="547.2" name="top"/>
  <anchor x="328.43399999999997" y="0.0" name="bottom"/>
  <outline>
    <contour>
      <point x="85.764" y="0.0" type="line"/>
      <point x="294.20799999999997" y="0.0" type="line"/>
      <point x="329.036" y="346.346" type="line"/>
      <point x="362.62800000000004" y="0.0" type="line"/>
      <point x="568.9219999999999" y="0.0" type="line"/>
      <point x="650.668" y="546.702" type="line"/>
      <point x="486.09400000000005" y="547.496" type="line"/>
      <point x="455.392" y="151.35" type="line"/>
      <point x="416.86599999999993" y="547.2" type="line"/>
      <point x="239.91600000000003" y="547.2" type="line"/>
      <point x="201.17" y="151.358" type="line"/>
      <point x="172.57199999999997" y="547.496" type="line"/>
      <point x="6.114" y="546.702" type="line"/>
    </contour>
  </outline>
</glyph>
<glyph name="x" format="2">
  <advance width="458.67600000000004"/>
  <unicode hex="0078"/>
  <outline>
    <contour>
      <point x="3.3760000000000003" y="-0.558" type="line"/>
      <point x="188.359" y="-1.2940000000000003" type="line"/>
      <point x="230.94000000000003" y="194.03400000000002" type="line"/>
      <point x="274.589" y="-1.2940000000000003" type="line"/>
      <point x="456.983" y="-0.558" type="line"/>
      <point x="354.47300000000007" y="278.498" type="line"/>
      <point x="450.35699999999997" y="546.9219999999999" type="line"/>
      <point x="271.85799999999995" y="547.7280000000001" type="line"/>
      <point x="231.318" y="348.459" type="line"/>
      <point x="191.358" y="547.725" type="line"/>
      <point x="11.760000000000002" y="546.7449999999999" type="line"/>
      <point x="106.639" y="278.054" type="line"/>
    </contour>
  </outline>
</glyph>
<glyph name="y" format="2">
  <advance width="455.901"/>
  <unicode hex="0079"/>
  <anchor x="223.751" y="547.1999999999999" name="top"/>
  <anchor x="409.749" y="0.0" name="bottom"/>
  <outline>
    <contour>
      <point x="109.388" y="-209.692" type="line"/>
      <point x="287.582" y="-210.588" type="line"/>
      <point x="452.539" y="546.9480000000001" type="line"/>
      <point x="273.6209999999999" y="547.5920000000001" type="line"/>
      <point x="229.452" y="142.91600000000003" type="line"/>
      <point x="185.73400000000004" y="547.592" type="line"/>
      <point x="3.361999999999999" y="546.9200000000001" type="line"/>
      <point x="139.04500000000002" y="0.0" type="line"/>
      <point x="159.70799999999997" y="0.0" type="line"/>
    </contour>
  </outline>
</glyph>
<glyph name="z" format="2">
  <advance width="395.547"/>
  <unicode hex="007A"/>
  <anchor x="200.26" y="547.2" name="top"/>
  <outline>
    <contour>
      <point x="15.731" y="0.0" type="line"/>
      <point x="379.934" y="0.0" type="line"/>
      <point x="379.934" y="144.916" type="line"/>
      <point x="198.082" y="144.916" type="line"/>
      <point x="371.746" y="418.655" type="line"/>
      <point x="371.746" y="547.2" type="line"/>
      <point x="24.743" y="547.2" type="line"/>
      <point x="24.743" y="403.85999999999996" type="line"/>
      <point x="190.5" y="403.85999999999996" type="line"/>
      <point x="15.731" y="130.87400000000002" type="line"/>
    </contour>
  </outline>
</glyph>
<glyph name="braceleft" format="2">
  <advance width="258.95399999999995"/>
  <unicode hex="007B"/>
  <outline>
    <contour>
      <point x="37.036" y="-39.318000000000005" type="curve" smooth="yes"/>
      <point x="37.036" y="-161.296"/>
      <point x="99.424" y="-210.774"/>
      <point x="170.31000000000003" y="-210.774" type="curve" smooth="yes"/>
      <point x="245.05599999999998" y="-210.774" type="line"/>
      <point x="245.05599999999998" y="-79.834" type="line"/>
      <point x="211.59000000000003" y="-79.834" type="line" smooth="yes"/>
      <point x="184.23000000000002" y="-79.834"/>
      <point x="172.44799999999998" y="-55.83599999999999"/>
      <point x="172.44799999999998" y="-18.678" type="curve" smooth="yes"/>
      <point x="172.44799999999998" y="30.258000000000003"/>
      <point x="197.79399999999998" y="77.184"/>
      <point x="197.79399999999998" y="134.476" type="curve" smooth="yes"/>
      <point x="197.79399999999998" y="180.502"/>
      <point x="184.382" y="229.56199999999998"/>
      <point x="137.102" y="265.0" type="curve"/>
      <point x="184.368" y="298.974"/>
      <point x="197.79399999999998" y="348.69599999999997"/>
      <point x="197.79399999999998" y="394.722" type="curve" smooth="yes"/>
      <point x="197.79399999999998" y="451.188"/>
      <point x="172.44799999999998" y="498.04400000000004"/>
      <point x="172.44799999999998" y="547.876" type="curve" smooth="yes"/>
      <point x="172.44799999999998" y="585.034"/>
      <point x="184.23000000000002" y="609.06"/>
      <point x="211.59000000000003" y="609.06" type="curve" smooth="yes"/>
      <point x="245.05599999999998" y="609.06" type="line"/>
      <point x="245.05599999999998" y="740.0" type="line"/>
      <point x="170.31000000000003" y="740.0" type="line" smooth="yes"/>
      <point x="99.424" y="740.0"/>
      <point x="37.036" y="690.494"/>
      <point x="37.036" y="568.516" type="curve" smooth="yes"/>
      <point x="37.036" y="480.05999999999995"/>
      <point x="69.69200000000001" y="433.834"/>
      <point x="69.69200000000001" y="386.122" type="curve" smooth="yes"/>
      <point x="69.69200000000001" y="353.31"/>
      <point x="63.333999999999996" y="333.48"/>
      <point x="39.236000000000004" y="333.48" type="curve" smooth="yes"/>
      <point x="22.363999999999997" y="333.48" type="line"/>
      <point x="22.363999999999997" y="195.746" type="line"/>
      <point x="39.236000000000004" y="195.746" type="line" smooth="yes"/>
      <point x="63.333999999999996" y="195.746"/>
      <point x="69.69200000000001" y="176.01399999999998"/>
      <point x="69.69200000000001" y="143.076" type="curve" smooth="yes"/>
      <point x="69.69200000000001" y="95.014"/>
      <point x="37.036" y="48.227999999999994"/>
    </contour>
  </outline>
</glyph>
<glyph name="bar" format="2">
  <advance width="180.404"/>
  <unicode hex="007C"/>
  <outline>
    <contour>
      <point x="159.542" y="790.774" type="line"/>
      <point x="20.862000000000002" y="790.774" type="line"/>
      <point x="20.862000000000002" y="-210.0" type="line"/>
      <point x="159.542" y="-210.0" type="line"/>
    </contour>
  </outline>
</glyph>
<glyph name="braceright" format="2">
  <advance width="258.95399999999995"/>
  <unicode hex="007D"/>
  <outline>
    <contour>
      <point x="13.898" y="-79.834" type="line"/>
      <point x="13.898" y="-210.774" type="line"/>
      <point x="88.77" y="-210.774" type="line" smooth="yes"/>
      <point x="159.65599999999998" y="-210.774"/>
      <point x="222.04399999999998" y="-161.296"/>
      <point x="222.04399999999998" y="-39.318000000000005" type="curve" smooth="yes"/>
      <point x="222.04399999999998" y="48.227999999999994"/>
      <point x="189.388" y="95.014"/>
      <point x="189.388" y="143.076" type="curve" smooth="yes"/>
      <point x="189.388" y="176.01399999999998"/>
      <point x="195.746" y="195.746"/>
      <point x="219.844" y="195.746" type="curve" smooth="yes"/>
      <point x="236.58999999999997" y="195.746" type="line"/>
      <point x="236.58999999999997" y="333.48" type="line"/>
      <point x="219.844" y="333.48" type="line" smooth="yes"/>
      <point x="195.62" y="333.48"/>
      <point x="189.388" y="353.31"/>
      <point x="189.388" y="386.122" type="curve" smooth="yes"/>
      <point x="189.388" y="433.834"/>
      <point x="222.04399999999998" y="480.05999999999995"/>
      <point x="222.04399999999998" y="568.516" type="curve" smooth="yes"/>
      <point x="222.04399999999998" y="690.494"/>
      <point x="159.65599999999998" y="740.0"/>
      <point x="88.77" y="740.0" type="curve" smooth="yes"/>
      <point x="13.898" y="740.0" type="line"/>
      <point x="13.898" y="609.06" type="line"/>
      <point x="34.332" y="609.06" type="line" smooth="yes"/>
      <point x="61.565999999999995" y="609.06"/>
      <point x="73.474" y="585.034"/>
      <point x="73.474" y="547.876" type="curve" smooth="yes"/>
      <point x="73.474" y="498.04400000000004"/>
      <point x="48.128" y="451.188"/>
      <point x="48.128" y="394.722" type="curve" smooth="yes"/>
      <point x="48.128" y="348.69599999999997"/>
      <point x="61.42799999999999" y="298.974"/>
      <point x="108.82" y="265.0" type="curve"/>
      <point x="61.413999999999994" y="229.56199999999998"/>
      <point x="48.128" y="180.502"/>
      <point x="48.128" y="134.476" type="curve" smooth="yes"/>
      <point x="48.128" y="77.184"/>
      <point x="73.474" y="30.258000000000003"/>
      <point x="73.474" y="-18.678" type="curve" smooth="yes"/>
      <point x="73.474" y="-55.83599999999999"/>
      <point x="61.565999999999995" y="-79.834"/>
      <point x="34.332" y="-79.834" type="curve" smooth="yes"/>
    </contour>
  </outline>
</glyph>
<glyph name="asciitilde" format="2">
  <advance width="446.79200000000003"/>
  <unicode hex="007E"/>
  <outline>
    <contour>
      <point x="393.53000000000003" y="237.434" type="curve"/>
      <point x="393.53000000000003" y="379.38" type="line"/>
      <point x="368.148" y="354.754"/>
      <point x="342.124" y="345.68"/>
      <point x="312.91799999999995" y="345.68" type="curve" smooth="yes"/>
      <point x="238.704" y="345.68"/>
      <point x="211.34799999999998" y="419.114"/>
      <point x="140.004" y="419.114" type="curve" smooth="yes"/>
      <point x="96.084" y="419.114"/>
      <point x="60.702" y="395.31199999999995"/>
      <point x="53.474000000000004" y="386.128" type="curve"/>
      <point x="53.474000000000004" y="244.168" type="line"/>
      <point x="63.234" y="255.092"/>
      <point x="97.714" y="277.51"/>
      <point x="138.96" y="277.51" type="curve" smooth="yes"/>
      <point x="209.752" y="277.51"/>
      <point x="238.266" y="203.99"/>
      <point x="312.906" y="203.99" type="curve" smooth="yes"/>
      <point x="342.16" y="203.99"/>
      <point x="368.858" y="213.544"/>
    </contour>
  </outline>
</glyph>
<glyph name="exclamdown" format="2">
  <advance width="207.40799999999996"/>
  <unicode hex="00A1"/>
  <outline>
    <contour>
      <point x="175.796" y="287.414" type="line"/>
      <point x="33.76200000000001" y="287.414" type="line"/>
      <point x="19.658" y="-192.88600000000002" type="line"/>
      <point x="187.578" y="-192.88600000000002" type="line"/>
    </contour>
    <contour>
      <point x="191.70600000000002" y="453.058" type="curve" smooth="yes"/>
      <point x="191.70600000000002" y="522.12"/>
      <point x="166.15" y="555.8"/>
      <point x="103.70399999999998" y="555.8" type="curve" smooth="yes"/>
      <point x="41.397999999999996" y="555.8"/>
      <point x="15.701999999999998" y="522.12"/>
      <point x="15.701999999999998" y="453.058" type="curve" smooth="yes"/>
      <point x="15.701999999999998" y="383.136"/>
      <point x="41.257999999999996" y="349.456"/>
      <point x="103.70399999999998" y="349.456" type="curve" smooth="yes"/>
      <point x="166.15" y="349.456"/>
      <point x="191.70600000000002" y="383.136"/>
    </contour>
  </outline>
</glyph>
<glyph name="cent" format="2">
  <advance width="461.356"/>
  <unicode hex="00A2"/>
  <outline>
    <contour>
      <point x="261.422" y="-10.774" type="curve" smooth="yes"/>
      <point x="312.722" y="-10.774"/>
      <point x="366.23400000000004" y="-1.5400000000000005"/>
      <point x="403.682" y="14.520000000000001" type="curve"/>
      <point x="371.99000000000007" y="168.55999999999997" type="line"/>
      <point x="345.35999999999996" y="160.982"/>
      <point x="323.932" y="157.79399999999998"/>
      <point x="303.346" y="157.79399999999998" type="curve" smooth="yes"/>
      <point x="260.01800000000003" y="157.79399999999998"/>
      <point x="236.298" y="193.85999999999999"/>
      <point x="236.298" y="269.438" type="curve" smooth="yes"/>
      <point x="236.298" y="354.72400000000005"/>
      <point x="258.10799999999995" y="388.202"/>
      <point x="305.73" y="388.202" type="curve" smooth="yes"/>
      <point x="329.78600000000006" y="388.202"/>
      <point x="349.8" y="384.04"/>
      <point x="369.49" y="379.48600000000005" type="curve"/>
      <point x="396.664" y="540.062" type="line"/>
      <point x="369.54200000000003" y="547.5060000000001"/>
      <point x="318.752" y="558.7479999999999"/>
      <point x="263.848" y="558.7479999999999" type="curve" smooth="yes"/>
      <point x="108.78399999999999" y="558.7479999999999"/>
      <point x="64.59400000000001" y="426.85"/>
      <point x="64.59400000000001" y="264.27799999999996" type="curve" smooth="yes"/>
      <point x="64.59400000000001" y="80.80799999999999"/>
      <point x="128.202" y="-10.774"/>
    </contour>
    <contour>
      <point x="180.752" y="-105.774" type="line"/>
      <point x="325.452" y="-105.774" type="line"/>
      <point x="325.452" y="10.838" type="line"/>
      <point x="180.752" y="18.683999999999997" type="line"/>
    </contour>
    <contour>
      <point x="180.752" y="526.398" type="line"/>
      <point x="325.452" y="538.7840000000001" type="line"/>
      <point x="325.452" y="651.426" type="line"/>
      <point x="180.752" y="651.426" type="line"/>
    </contour>
  </outline>
</glyph>
<glyph name="sterling" format="2">
  <advance width="461.44"/>
  <unicode hex="00A3"/>
  <outline>
    <contour>
      <point x="57.14" y="0.0" type="line"/>
      <point x="407.946" y="0.0" type="line"/>
      <point x="407.946" y="143.91" type="line"/>
      <point x="236.88" y="143.91" type="line"/>
      <point x="266.536" y="174.52800000000002"/>
      <point x="299.77399999999994" y="210.836"/>
      <point x="299.77399999999994" y="271.098" type="curve" smooth="yes"/>
      <point x="299.77399999999994" y="342.416"/>
      <point x="255.46999999999997" y="405.77600000000007"/>
      <point x="255.46999999999997" y="465.94" type="curve" smooth="yes"/>
      <point x="255.46999999999997" y="528.3960000000001"/>
      <point x="285.12" y="550.25"/>
      <point x="320.31" y="550.25" type="curve" smooth="yes"/>
      <point x="345.03200000000004" y="550.25"/>
      <point x="365.014" y="546.252"/>
      <point x="383.508" y="539.9700000000001" type="curve"/>
      <point x="408.354" y="678.3720000000002" type="line"/>
      <point x="373.44599999999997" y="699.41"/>
      <point x="327.972" y="710.0"/>
      <point x="283.83000000000004" y="710.0" type="curve" smooth="yes"/>
      <point x="153.404" y="710.0"/>
      <point x="84.546" y="633.568"/>
      <point x="84.546" y="520.5480000000001" type="curve" smooth="yes"/>
      <point x="84.546" y="401.72799999999995"/>
      <point x="144.54" y="362.348"/>
      <point x="144.54" y="253.614" type="curve" smooth="yes"/>
      <point x="144.54" y="208.97199999999998"/>
      <point x="117.53399999999999" y="155.99800000000002"/>
      <point x="57.14" y="108.65" type="curve"/>
    </contour>
    <contour>
      <point x="52.04600000000001" y="311.552" type="line"/>
      <point x="384.52400000000006" y="311.552" type="line"/>
      <point x="384.52400000000006" y="398.462" type="line"/>
      <point x="52.04600000000001" y="398.462" type="line"/>
    </contour>
  </outline>
</glyph>
<glyph name="currency" format="2">
  <advance width="437.06"/>
  <unicode hex="00A4"/>
  <outline>
    <contour>
      <point x="23.938000000000002" y="388.392" type="line"/>
      <point x="73.342" y="337.988" type="line"/>
      <point x="68.532" y="324.534"/>
      <point x="65.73400000000001" y="310.014"/>
      <point x="65.73400000000001" y="294.762" type="curve" smooth="yes"/>
      <point x="65.73400000000001" y="278.65000000000003"/>
      <point x="68.532" y="262.49600000000004"/>
      <point x="74.342" y="248.268" type="curve"/>
      <point x="23.938000000000002" y="197.864" type="line"/>
      <point x="123.336" y="98.466" type="line"/>
      <point x="180.87800000000001" y="155.922" type="line"/>
      <point x="192.18200000000002" y="151.40200000000002"/>
      <point x="206.1" y="149.862"/>
      <point x="220.524" y="149.862" type="curve" smooth="yes"/>
      <point x="233.572" y="149.862"/>
      <point x="245.394" y="151.488"/>
      <point x="256.096" y="155.234" type="curve"/>
      <point x="313.724" y="98.466" type="line"/>
      <point x="413.122" y="197.864" type="line"/>
      <point x="365.384" y="244.82799999999997" type="line"/>
      <point x="371.796" y="260.518"/>
      <point x="375.368" y="277.274"/>
      <point x="375.368" y="294.762" type="curve" smooth="yes"/>
      <point x="375.368" y="310.616"/>
      <point x="371.882" y="326.512"/>
      <point x="366.158" y="341.428" type="curve"/>
      <point x="413.122" y="388.392" type="line"/>
      <point x="313.724" y="487.78999999999996" type="line"/>
      <point x="259.192" y="433.258" type="line"/>
      <point x="247.716" y="437.09000000000003"/>
      <point x="234.48600000000002" y="439.63"/>
      <point x="220.524" y="439.63" type="curve" smooth="yes"/>
      <point x="204.412" y="439.63"/>
      <point x="190.494" y="436.31600000000003"/>
      <point x="177.642" y="432.57" type="curve"/>
      <point x="123.336" y="487.78999999999996" type="line"/>
    </contour>
    <contour>
      <point x="220.438" y="252.85199999999998" type="curve" smooth="yes"/>
      <point x="195.332" y="252.85199999999998"/>
      <point x="179.302" y="268.796"/>
      <point x="179.302" y="293.988" type="curve" smooth="yes"/>
      <point x="179.302" y="317.514"/>
      <point x="195.24599999999998" y="335.866"/>
      <point x="220.438" y="335.866" type="curve" smooth="yes"/>
      <point x="245.76999999999998" y="335.866"/>
      <point x="261.8" y="317.514"/>
      <point x="261.8" y="293.988" type="curve" smooth="yes"/>
      <point x="261.8" y="268.796"/>
      <point x="245.684" y="252.85199999999998"/>
    </contour>
  </outline>
</glyph>
<glyph name="yen" format="2">
  <advance width="472.59999999999997"/>
  <unicode hex="00A5"/>
  <outline>
    <contour>
      <point x="44.16" y="293.82" type="line"/>
      <point x="159.02" y="293.82" type="line"/>
      <point x="159.02" y="258.98" type="line"/>
      <point x="44.16" y="258.98" type="line"/>
      <point x="44.16" y="174.70000000000002" type="line"/>
      <point x="159.02" y="174.70000000000002" type="line"/>
      <point x="159.02" y="0.0" type="line"/>
      <point x="314.63" y="0.0" type="line"/>
      <point x="314.63" y="174.70000000000002" type="line"/>
      <point x="429.63" y="174.70000000000002" type="line"/>
      <point x="429.63" y="258.98" type="line"/>
      <point x="314.63" y="258.98" type="line"/>
      <point x="314.63" y="293.82" type="line"/>
      <point x="429.63" y="293.82" type="line"/>
      <point x="429.63" y="377.89000000000004" type="line"/>
      <point x="314.63" y="377.89000000000004" type="line"/>
      <point x="469.79" y="699.0799999999999" type="line"/>
      <point x="297.05" y="700.99" type="line"/>
      <point x="237.14999999999998" y="480.25" type="line"/>
      <point x="175.62" y="700.99" type="line"/>
      <point x="2.879999999999999" y="699.0799999999999" type="line"/>
      <point x="159.02" y="377.89000000000004" type="line"/>
      <point x="44.16" y="377.89000000000004" type="line"/>
    </contour>
  </outline>
</glyph>
<glyph name="brokenbar" format="2">
  <advance width="179.63"/>
  <unicode hex="00A6"/>
  <outline>
    <contour>
      <point x="158.768" y="391.0" type="line"/>
      <point x="158.768" y="790.774" type="line"/>
      <point x="20.862000000000002" y="790.774" type="line"/>
      <point x="20.862000000000002" y="391.0" type="line"/>
    </contour>
    <contour>
      <point x="20.862000000000002" y="190.774" type="line"/>
      <point x="20.862000000000002" y="-210.0" type="line"/>
      <point x="158.768" y="-210.0" type="line"/>
      <point x="158.768" y="190.774" type="line"/>
    </contour>
  </outline>
</glyph>
<glyph name="section" format="2">
  <advance width="476.87100000000004"/>
  <unicode hex="00A7"/>
  <outline>
    <contour>
      <point x="188.964" y="-220.823" type="curve" smooth="yes"/>
      <point x="346.73599999999993" y="-220.823"/>
      <point x="441.79200000000003" y="-100.02300000000001"/>
      <point x="441.79200000000003" y="65.655" type="curve" smooth="yes"/>
      <point x="441.79200000000003" y="134.445"/>
      <point x="421.99799999999993" y="229.67999999999998"/>
      <point x="373.01900000000006" y="339.979" type="curve" smooth="yes"/>
      <point x="327.574" y="446.19"/>
      <point x="309.46399999999994" y="490.048"/>
      <point x="309.46399999999994" y="522.306" type="curve" smooth="yes"/>
      <point x="309.46399999999994" y="554.557"/>
      <point x="326.652" y="574.377"/>
      <point x="357.223" y="574.377" type="curve" smooth="yes"/>
      <point x="369.752" y="574.377"/>
      <point x="380.705" y="572.307"/>
      <point x="394.18899999999996" y="565.2389999999999" type="curve"/>
      <point x="426.592" y="723.534" type="line"/>
      <point x="397.107" y="739.6959999999999"/>
      <point x="349.52500000000003" y="749.895"/>
      <point x="301.766" y="749.895" type="curve" smooth="yes"/>
      <point x="137.64499999999998" y="749.895"/>
      <point x="31.636000000000006" y="645.626"/>
      <point x="36.942" y="479.375" type="curve" smooth="yes"/>
      <point x="39.270999999999994" y="405.003"/>
      <point x="48.202000000000005" y="333.777"/>
      <point x="112.354" y="187.45499999999998" type="curve" smooth="yes"/>
      <point x="155.951" y="85.169"/>
      <point x="176.467" y="44.351000000000006"/>
      <point x="176.46699999999998" y="4.9760000000000035" type="curve" smooth="yes"/>
      <point x="176.46700000000004" y="-29.96400000000001"/>
      <point x="155.479" y="-45.739000000000004"/>
      <point x="122.54400000000001" y="-45.739000000000004" type="curve" smooth="yes"/>
      <point x="104.644" y="-45.739000000000004"/>
      <point x="85.61900000000001" y="-40.720000000000006"/>
      <point x="68.81099999999999" y="-26.836000000000006" type="curve"/>
      <point x="38.607" y="-183.808" type="line"/>
      <point x="73.373" y="-206.74099999999999"/>
      <point x="129.81900000000002" y="-220.823"/>
    </contour>
    <contour>
      <point x="181.012" y="-117.854" type="curve" smooth="yes"/>
      <point x="163.08800000000002" y="-117.854"/>
      <point x="144.457" y="-113.31099999999999"/>
      <point x="124.565" y="-103.00300000000001" type="curve"/>
      <point x="166.579" y="-129.012" type="line"/>
      <point x="239.68200000000002" y="-125.393"/>
      <point x="289.032" y="-71.41499999999999"/>
      <point x="289.032" y="9.244999999999985" type="curve" smooth="yes"/>
      <point x="289.032" y="64.71500000000002"/>
      <point x="273.41700000000003" y="126.62999999999998"/>
      <point x="224.526" y="242.01" type="curve" smooth="yes"/>
      <point x="174.21599999999998" y="361.72299999999996"/>
      <point x="155.743" y="418.78799999999995"/>
      <point x="155.743" y="490.315" type="curve" smooth="yes"/>
      <point x="155.743" y="568.476"/>
      <point x="199.481" y="625.232"/>
      <point x="253.15899999999996" y="625.232" type="curve" smooth="yes"/>
      <point x="272.168" y="625.232"/>
      <point x="284.842" y="620.895"/>
      <point x="298.895" y="608.6020000000001" type="curve"/>
      <point x="276.573" y="644.4469999999999" type="line"/>
      <point x="234.162" y="633.7640000000001"/>
      <point x="194.002" y="592.235"/>
      <point x="193.932" y="531.0830000000001" type="curve" smooth="yes"/>
      <point x="193.932" y="478.592"/>
      <point x="207.26500000000001" y="421.35299999999995"/>
      <point x="258.343" y="301.369" type="curve" smooth="yes"/>
      <point x="315.81499999999994" y="164.69600000000003"/>
      <point x="328.62000000000006" y="104.814"/>
      <point x="328.62000000000006" y="51.11300000000001" type="curve" smooth="yes"/>
      <point x="328.62" y="-49.532999999999994"/>
      <point x="272.98400000000004" y="-117.854"/>
    </contour>
  </outline>
</glyph>
<glyph name="copyright" format="2">
  <advance width="694.012"/>
  <unicode hex="00A9"/>
  <outline>
    <contour>
      <point x="347.0199999999999" y="42.968" type="curve" smooth="yes"/>
      <point x="174.76999999999998" y="42.968"/>
      <point x="88.83399999999999" y="161.884"/>
      <point x="88.83399999999999" y="350.60200000000003" type="curve" smooth="yes"/>
      <point x="88.83399999999999" y="539.6179999999999"/>
      <point x="174.86999999999998" y="657.9639999999999"/>
      <point x="347.0199999999999" y="657.9639999999999" type="curve" smooth="yes"/>
      <point x="521.464" y="657.9639999999999"/>
      <point x="604.404" y="539.6179999999999"/>
      <point x="604.404" y="350.60200000000003" type="curve" smooth="yes"/>
      <point x="604.404" y="161.884"/>
      <point x="521.5640000000001" y="42.968"/>
    </contour>
    <contour>
      <point x="347.0199999999999" y="710.0" type="curve" smooth="yes"/>
      <point x="142.484" y="710.0"/>
      <point x="33.56" y="562.552"/>
      <point x="33.56" y="350.60200000000003" type="curve" smooth="yes"/>
      <point x="33.56" y="139.69599999999997"/>
      <point x="142.23999999999998" y="-10.0"/>
      <point x="347.0199999999999" y="-10.0" type="curve" smooth="yes"/>
      <point x="551.7719999999999" y="-10.0"/>
      <point x="660.4519999999999" y="139.69599999999997"/>
      <point x="660.4519999999999" y="350.60200000000003" type="curve" smooth="yes"/>
      <point x="660.4519999999999" y="562.552"/>
      <point x="551.5559999999999" y="710.0"/>
    </contour>
    <contour>
      <point x="209.244" y="351.99600000000004" type="curve" smooth="yes"/>
      <point x="209.244" y="199.37"/>
      <point x="261.716" y="129.224"/>
      <point x="354.498" y="129.224" type="curve" smooth="yes"/>
      <point x="385.81600000000003" y="129.224"/>
      <point x="416.642" y="132.15"/>
      <point x="449.19000000000005" y="147.174" type="curve"/>
      <point x="432.164" y="248.66799999999998" type="line"/>
      <point x="407.116" y="241.196"/>
      <point x="389.246" y="237.994"/>
      <point x="369.328" y="237.994" type="curve" smooth="yes"/>
      <point x="335.676" y="237.994"/>
      <point x="327.07800000000003" y="264.588"/>
      <point x="327.07800000000003" y="347.05" type="curve" smooth="yes"/>
      <point x="327.07800000000003" y="441.072"/>
      <point x="339.456" y="470.212"/>
      <point x="374.03000000000003" y="470.212" type="curve" smooth="yes"/>
      <point x="389.76800000000003" y="470.212"/>
      <point x="417.67600000000004" y="464.496"/>
      <point x="434.144" y="459.96599999999995" type="curve"/>
      <point x="453.836" y="558.836" type="line"/>
      <point x="428.214" y="573.168"/>
      <point x="388.75" y="579.1540000000001"/>
      <point x="353.622" y="579.1540000000001" type="curve" smooth="yes"/>
      <point x="267.38800000000003" y="579.1540000000001"/>
      <point x="209.244" y="522.7679999999999"/>
    </contour>
  </outline>
</glyph>
<glyph name="ordfeminine" format="2">
  <advance width="313.244"/>
  <unicode hex="00AA"/>
  <outline>
    <contour>
      <point x="28.313999999999997" y="240.562" type="line"/>
      <point x="288.312" y="240.562" type="line"/>
      <point x="288.312" y="322.862" type="line"/>
      <point x="28.313999999999997" y="322.862" type="line"/>
    </contour>
    <component base="a.superior" xOffset="8.602"/>
  </outline>
</glyph>
<glyph name="logicalnot" format="2">
  <advance width="446.79200000000003"/>
  <unicode hex="00AC"/>
  <outline>
    <contour>
      <point x="43.968" y="300.06399999999996" type="line"/>
      <point x="258.68" y="300.06399999999996" type="line"/>
      <point x="258.68" y="176.398" type="line"/>
      <point x="402.95" y="176.398" type="line"/>
      <point x="402.95" y="444.334" type="line"/>
      <point x="43.968" y="444.334" type="line"/>
    </contour>
  </outline>
</glyph>
<glyph name="registered" format="2">
  <advance width="662.727"/>
  <unicode hex="00AE"/>
  <outline>
    <contour>
      <point x="330.202" y="207.78499999999997" type="curve" smooth="yes"/>
      <point x="526.01" y="207.78499999999997"/>
      <point x="629.1669999999999" y="349.62600000000003"/>
      <point x="629.1669999999999" y="550.659" type="curve" smooth="yes"/>
      <point x="629.1669999999999" y="752.005"/>
      <point x="526.024" y="892.243"/>
      <point x="330.202" y="892.243" type="curve" smooth="yes"/>
      <point x="135.95499999999998" y="892.243"/>
      <point x="33.56" y="752.005"/>
      <point x="33.56" y="550.659" type="curve" smooth="yes"/>
      <point x="33.56" y="350.313"/>
      <point x="135.726" y="207.78499999999997"/>
    </contour>
    <contour>
      <point x="330.202" y="257.89" type="curve" smooth="yes"/>
      <point x="166.496" y="257.89"/>
      <point x="85.997" y="371.48699999999997"/>
      <point x="85.997" y="550.659" type="curve" smooth="yes"/>
      <point x="85.997" y="730.172"/>
      <point x="166.482" y="842.9699999999999"/>
      <point x="330.202" y="842.9699999999999" type="curve" smooth="yes"/>
      <point x="497.82000000000005" y="842.9699999999999"/>
      <point x="575.996" y="730.186"/>
      <point x="575.996" y="550.659" type="curve" smooth="yes"/>
      <point x="575.996" y="371.2579999999999"/>
      <point x="497.605" y="257.89"/>
    </contour>
    <contour>
      <point x="454.993" y="347.685" type="curve" smooth="yes"/>
      <point x="460.34400000000005" y="347.685"/>
      <point x="468.266" y="347.685"/>
      <point x="473.654" y="348.456" type="curve"/>
      <point x="473.27599999999995" y="457.718" type="line"/>
      <point x="471.50499999999994" y="457.5919999999999"/>
      <point x="468.9719999999999" y="457.5919999999999"/>
      <point x="466.972" y="457.5919999999999" type="curve" smooth="yes"/>
      <point x="439.7589999999999" y="457.793"/>
      <point x="425.029" y="484.3670000000001"/>
      <point x="415.467" y="511.723" type="curve"/>
      <point x="452.31399999999996" y="528.644"/>
      <point x="468.213" y="577.6519999999999"/>
      <point x="468.213" y="634.968" type="curve" smooth="yes"/>
      <point x="468.213" y="724.3900000000001"/>
      <point x="422.64700000000005" y="765.375"/>
      <point x="341.211" y="765.375" type="curve" smooth="yes"/>
      <point x="298.733" y="765.375"/>
      <point x="260.322" y="762.744"/>
      <point x="217.584" y="759.4169999999999" type="curve"/>
      <point x="217.584" y="352.896" type="line"/>
      <point x="316.63300000000004" y="352.896" type="line"/>
      <point x="316.63300000000004" y="477.71200000000005" type="line"/>
      <point x="318.949" y="477.58600000000007"/>
      <point x="321.756" y="477.432"/>
      <point x="323.87600000000003" y="477.432" type="curve" smooth="yes"/>
      <point x="326.212" y="477.432"/>
      <point x="327.4870000000001" y="477.432"/>
      <point x="329.608" y="477.55800000000005" type="curve"/>
      <point x="365.141" y="353.36899999999997"/>
      <point x="406.306" y="347.90000000000003"/>
    </contour>
    <contour>
      <point x="333.888" y="546.5360000000001" type="curve" smooth="yes"/>
      <point x="328.62699999999995" y="546.5360000000001"/>
      <point x="324.19800000000004" y="546.55"/>
      <point x="316.63300000000004" y="547.536" type="curve"/>
      <point x="316.63300000000004" y="671.486" type="line"/>
      <point x="326.9359999999999" y="673.5"/>
      <point x="333.2579999999999" y="673.626"/>
      <point x="339.04200000000003" y="673.626" type="curve" smooth="yes"/>
      <point x="361.808" y="673.626"/>
      <point x="365.71" y="655.5909999999999"/>
      <point x="365.71" y="617.8479999999998" type="curve" smooth="yes"/>
      <point x="365.71" y="567.15"/>
      <point x="360.182" y="546.5360000000001"/>
    </contour>
  </outline>
</glyph>
<glyph name="degree" format="2">
  <advance width="321.90000000000003"/>
  <unicode hex="00B0"/>
  <outline>
    <contour>
      <point x="160.824" y="387.56" type="curve" smooth="yes"/>
      <point x="255.89400000000003" y="387.56"/>
      <point x="298.952" y="459.374"/>
      <point x="298.952" y="549.9" type="curve" smooth="yes"/>
      <point x="298.952" y="634.42"/>
      <point x="261.298" y="712.52"/>
      <point x="160.824" y="712.52" type="curve" smooth="yes"/>
      <point x="60.322" y="712.52"/>
      <point x="22.948" y="634.42"/>
      <point x="22.948" y="549.9" type="curve" smooth="yes"/>
      <point x="22.948" y="459.374"/>
      <point x="65.75399999999999" y="387.56"/>
    </contour>
    <contour>
      <point x="160.824" y="500.708" type="curve" smooth="yes"/>
      <point x="140.23399999999998" y="500.708"/>
      <point x="128.356" y="519.922"/>
      <point x="128.356" y="549.054" type="curve" smooth="yes"/>
      <point x="128.356" y="576.4380000000001"/>
      <point x="139.288" y="595.9599999999999"/>
      <point x="160.824" y="595.9599999999999" type="curve" smooth="yes"/>
      <point x="182.332" y="595.9599999999999"/>
      <point x="193.572" y="576.4380000000001"/>
      <point x="193.572" y="549.054" type="curve" smooth="yes"/>
      <point x="193.572" y="519.922"/>
      <point x="181.414" y="500.708"/>
    </contour>
  </outline>
</glyph>
<glyph name="plusminus" format="2">
  <advance width="450.824"/>
  <unicode hex="00B1"/>
  <outline>
    <contour>
      <point x="43.464" y="9.993999999999998" type="line"/>
      <point x="407.35999999999996" y="9.993999999999998" type="line"/>
      <point x="407.35999999999996" y="154.26399999999998" type="line"/>
      <point x="299.224" y="154.26399999999998" type="line"/>
      <point x="299.224" y="254.82800000000003" type="line"/>
      <point x="407.35999999999996" y="254.82800000000003" type="line"/>
      <point x="407.35999999999996" y="399.098" type="line"/>
      <point x="299.224" y="399.098" type="line"/>
      <point x="299.224" y="504.3" type="line"/>
      <point x="151.514" y="504.3" type="line"/>
      <point x="151.514" y="399.098" type="line"/>
      <point x="43.464" y="399.098" type="line"/>
      <point x="43.464" y="254.82800000000003" type="line"/>
      <point x="151.514" y="254.82800000000003" type="line"/>
      <point x="151.514" y="154.26399999999998" type="line"/>
      <point x="43.464" y="154.26399999999998" type="line"/>
    </contour>
  </outline>
</glyph>
<glyph name="uni00B2" format="2">
  <advance width="294.57399999999996"/>
  <unicode hex="00B2"/>
  <outline>
    <contour>
      <point x="34.756" y="370.0" type="line"/>
      <point x="267.132" y="370.0" type="line"/>
      <point x="267.132" y="453.424" type="line"/>
      <point x="162.748" y="453.424" type="line"/>
      <point x="235.10600000000002" y="544.634"/>
      <point x="255.422" y="587.5340000000001"/>
      <point x="255.422" y="646.6980000000001" type="curve" smooth="yes"/>
      <point x="255.422" y="730.462"/>
      <point x="211.0" y="774.884"/>
      <point x="135.87" y="774.884" type="curve" smooth="yes"/>
      <point x="93.81" y="774.884"/>
      <point x="56.406000000000006" y="762.652"/>
      <point x="20.896" y="739.0100000000001" type="curve"/>
      <point x="57.162" y="645.784" type="line"/>
      <point x="78.31400000000001" y="658.3500000000001"/>
      <point x="92.844" y="662.78"/>
      <point x="110.862" y="662.78" type="curve" smooth="yes"/>
      <point x="132.468" y="662.78"/>
      <point x="146.922" y="644.19"/>
      <point x="146.922" y="619.976" type="curve" smooth="yes"/>
      <point x="146.922" y="582.4280000000001"/>
      <point x="102.638" y="518.6779999999999"/>
      <point x="34.336" y="445.662" type="curve"/>
    </contour>
  </outline>
</glyph>
<glyph name="uni00B3" format="2">
  <advance width="305.112"/>
  <unicode hex="00B3"/>
  <outline>
    <contour>
      <point x="23.590000000000003" y="392.748" type="line"/>
      <point x="63.714" y="371.896"/>
      <point x="94.422" y="364.90200000000004"/>
      <point x="136.87" y="364.90200000000004" type="curve" smooth="yes"/>
      <point x="222.506" y="364.90200000000004"/>
      <point x="275.582" y="409.58599999999996"/>
      <point x="275.582" y="487.81" type="curve" smooth="yes"/>
      <point x="275.582" y="531.61"/>
      <point x="254.714" y="565.948"/>
      <point x="216.654" y="584.4359999999999" type="curve"/>
      <point x="248.28000000000003" y="604.5219999999999"/>
      <point x="268.084" y="638.9920000000001"/>
      <point x="268.084" y="675.694" type="curve" smooth="yes"/>
      <point x="268.084" y="737.472"/>
      <point x="222.09199999999998" y="776.208"/>
      <point x="140.988" y="776.208" type="curve" smooth="yes"/>
      <point x="93.834" y="776.208"/>
      <point x="53.11599999999999" y="765.728"/>
      <point x="23.566" y="745.058" type="curve"/>
      <point x="54.974" y="664.6440000000001" type="line"/>
      <point x="64.646" y="670.674"/>
      <point x="85.394" y="676.2040000000001"/>
      <point x="113.804" y="676.2040000000001" type="curve" smooth="yes"/>
      <point x="144.024" y="676.2040000000001"/>
      <point x="163.15" y="663.9300000000001"/>
      <point x="163.15" y="642.3700000000001" type="curve" smooth="yes"/>
      <point x="163.15" y="624.222"/>
      <point x="152.31" y="611.2019999999999"/>
      <point x="127.248" y="611.2019999999999" type="curve" smooth="yes"/>
      <point x="84.338" y="611.2019999999999" type="line"/>
      <point x="84.338" y="533.038" type="line"/>
      <point x="127.148" y="533.038" type="line" smooth="yes"/>
      <point x="159.416" y="533.038"/>
      <point x="168.676" y="519.448"/>
      <point x="168.676" y="498.13" type="curve" smooth="yes"/>
      <point x="168.676" y="473.336"/>
      <point x="151.582" y="458.772"/>
      <point x="121.006" y="458.772" type="curve" smooth="yes"/>
      <point x="93.49799999999999" y="458.772"/>
      <point x="77.908" y="462.76199999999994"/>
      <point x="58.044" y="473.69" type="curve"/>
    </contour>
  </outline>
</glyph>
<glyph name="uni00B5" format="2">
  <advance width="461.54"/>
  <unicode hex="00B5"/>
  <outline>
    <contour>
      <point x="26.63" y="-210.0" type="line"/>
      <point x="183.714" y="-210.0" type="line"/>
      <point x="183.714" y="-0.8860000000000019" type="line"/>
      <point x="190.38399999999996" y="-5.5440000000000005"/>
      <point x="199.876" y="-8.452"/>
      <point x="212.434" y="-8.452" type="curve" smooth="yes"/>
      <point x="237.74800000000002" y="-8.452"/>
      <point x="264.12600000000003" y="6.351999999999999"/>
      <point x="281.33" y="24.69" type="curve"/>
      <point x="300.23800000000006" y="4.494"/>
      <point x="313.966" y="-10.0"/>
      <point x="362.832" y="-10.0" type="curve" smooth="yes"/>
      <point x="405.496" y="-10.0"/>
      <point x="436.332" y="1.3879999999999997"/>
      <point x="460.006" y="14.652" type="curve"/>
      <point x="448.462" y="146.878" type="line"/>
      <point x="443.95199999999994" y="145.06"/>
      <point x="437.39000000000004" y="143.906"/>
      <point x="432.21799999999996" y="143.906" type="curve" smooth="yes"/>
      <point x="423.17" y="143.906"/>
      <point x="418.4" y="149.276"/>
      <point x="418.4" y="170.92" type="curve" smooth="yes"/>
      <point x="418.4" y="547.2" type="line"/>
      <point x="254.35" y="547.2" type="line"/>
      <point x="254.35" y="152.308" type="line"/>
      <point x="242.464" y="144.29"/>
      <point x="230.324" y="140.38199999999998"/>
      <point x="218.476" y="140.38199999999998" type="curve" smooth="yes"/>
      <point x="203.87" y="140.38199999999998"/>
      <point x="191.454" y="148.534"/>
      <point x="191.454" y="172.85000000000002" type="curve" smooth="yes"/>
      <point x="191.454" y="547.2" type="line"/>
      <point x="26.63" y="547.2" type="line"/>
    </contour>
  </outline>
</glyph>
<glyph name="paragraph" format="2">
  <advance width="573.426"/>
  <unicode hex="00B6"/>
  <outline>
    <contour>
      <point x="412.86199999999997" y="-210.0" type="line"/>
      <point x="540.706" y="-210.0" type="line"/>
      <point x="540.706" y="740.0" type="line"/>
      <point x="412.86199999999997" y="740.0" type="line"/>
    </contour>
    <contour>
      <point x="234.502" y="348.234" type="line"/>
      <point x="205.888" y="355.65200000000004"/>
      <point x="175.23200000000003" y="405.392"/>
      <point x="175.23200000000003" y="481.34" type="curve" smooth="yes"/>
      <point x="175.23200000000003" y="547.122"/>
      <point x="200.85" y="593.7620000000001"/>
      <point x="249.53400000000002" y="594.434" type="curve"/>
      <point x="249.53400000000002" y="-210.0" type="line"/>
      <point x="377.378" y="-210.0" type="line"/>
      <point x="377.378" y="740.0" type="line"/>
      <point x="295.67" y="740.0" type="line" smooth="yes"/>
      <point x="89.348" y="740.0"/>
      <point x="30.274" y="621.882"/>
      <point x="30.274" y="488.13399999999996" type="curve" smooth="yes"/>
      <point x="30.274" y="362.592"/>
      <point x="88.774" y="267.85999999999996"/>
      <point x="216.03" y="241.202" type="curve"/>
    </contour>
  </outline>
</glyph>
<glyph name="periodcentered" format="2">
  <advance width="202.83"/>
  <unicode hex="00B7"/>
  <outline>
    <contour>
      <point x="13.35" y="321.326" type="curve" smooth="yes"/>
      <point x="13.35" y="252.222"/>
      <point x="39.21399999999999" y="218.54200000000003"/>
      <point x="101.51999999999998" y="218.54200000000003" type="curve" smooth="yes"/>
      <point x="163.89600000000002" y="218.54200000000003"/>
      <point x="189.48000000000002" y="252.222"/>
      <point x="189.48000000000002" y="321.326" type="curve" smooth="yes"/>
      <point x="189.48000000000002" y="391.21999999999997"/>
      <point x="163.89600000000002" y="424.9"/>
      <point x="101.51999999999998" y="424.9" type="curve" smooth="yes"/>
      <point x="38.93399999999999" y="424.9"/>
      <point x="13.35" y="391.21999999999997"/>
    </contour>
  </outline>
</glyph>
<glyph name="uni00B9" format="2">
  <advance width="272.00800000000004"/>
  <unicode hex="00B9"/>
  <outline>
    <contour>
      <point x="30.090000000000003" y="370.0" type="line"/>
      <point x="257.612" y="370.0" type="line"/>
      <point x="257.612" y="453.97999999999996" type="line"/>
      <point x="201.974" y="453.97999999999996" type="line"/>
      <point x="201.974" y="768.6819999999999" type="line"/>
      <point x="147.84199999999998" y="768.6819999999999" type="line"/>
      <point x="17.392" y="728.236" type="line"/>
      <point x="36.629999999999995" y="632.7259999999999" type="line"/>
      <point x="93.534" y="651.054" type="line"/>
      <point x="93.534" y="453.97999999999996" type="line"/>
      <point x="30.090000000000003" y="453.97999999999996" type="line"/>
    </contour>
  </outline>
</glyph>
<glyph name="ordmasculine" format="2">
  <advance width="312.992"/>
  <unicode hex="00BA"/>
  <outline>
    <contour>
      <point x="29.598" y="240.576" type="line"/>
      <point x="289.70799999999997" y="240.576" type="line"/>
      <point x="289.70799999999997" y="322.876" type="line"/>
      <point x="29.598" y="322.876" type="line"/>
    </contour>
    <component base="o.superior" xOffset="9.512"/>
  </outline>
</glyph>
<glyph name="questiondown" format="2">
  <advance width="385.086"/>
  <unicode hex="00BF"/>
  <outline>
    <contour>
      <point x="294.49" y="278.942" type="line"/>
      <point x="151.682" y="278.942" type="line"/>
      <point x="151.51" y="207.904" type="line"/>
      <point x="63.632000000000005" y="164.086"/>
      <point x="28.625999999999998" y="86.29"/>
      <point x="28.625999999999998" y="-11.16" type="curve" smooth="yes"/>
      <point x="28.625999999999998" y="-142.06"/>
      <point x="105.242" y="-210.626"/>
      <point x="231.858" y="-210.626" type="curve" smooth="yes"/>
      <point x="292.4" y="-210.626"/>
      <point x="353.28799999999995" y="-188.98199999999997"/>
      <point x="393.656" y="-157.936" type="curve"/>
      <point x="337.47999999999996" y="-10.792000000000005" type="line"/>
      <point x="303.98600000000005" y="-34.45399999999999"/>
      <point x="281.968" y="-39.048"/>
      <point x="258.69" y="-39.048" type="curve" smooth="yes"/>
      <point x="220.29999999999998" y="-39.048"/>
      <point x="199.252" y="-14.971999999999998"/>
      <point x="199.252" y="19.118" type="curve" smooth="yes"/>
      <point x="199.252" y="55.547999999999995"/>
      <point x="213.40000000000003" y="94.818"/>
      <point x="298.188" y="134.822" type="curve"/>
    </contour>
    <contour>
      <point x="310.85800000000006" y="444.54400000000004" type="curve" smooth="yes"/>
      <point x="310.85800000000006" y="513.606"/>
      <point x="285.684" y="547.2860000000001"/>
      <point x="222.73000000000002" y="547.2860000000001" type="curve" smooth="yes"/>
      <point x="161.184" y="547.2860000000001"/>
      <point x="134.728" y="513.606"/>
      <point x="134.728" y="444.54400000000004" type="curve" smooth="yes"/>
      <point x="134.728" y="374.62199999999996"/>
      <point x="161.184" y="340.942"/>
      <point x="222.73000000000002" y="340.942" type="curve" smooth="yes"/>
      <point x="285.95000000000005" y="340.942"/>
      <point x="310.85800000000006" y="374.62199999999996"/>
    </contour>
  </outline>
</glyph>
<glyph name="AE" format="2">
  <advance width="714.552"/>
  <unicode hex="00C6"/>
  <anchor x="404.66900000000004" y="700.0" name="top"/>
  <outline>
    <contour>
      <point x="4.025999999999999" y="0.0" type="line"/>
      <point x="186.87500000000003" y="-0.175" type="line"/>
      <point x="227.907" y="136.415" type="line"/>
      <point x="336.082" y="136.415" type="line"/>
      <point x="336.082" y="0.0" type="line"/>
      <point x="699.4449999999999" y="0.0" type="line"/>
      <point x="699.4449999999999" y="158.734" type="line"/>
      <point x="494.34299999999996" y="158.734" type="line"/>
      <point x="494.34299999999996" y="271.659" type="line"/>
      <point x="663.9560000000001" y="271.659" type="line"/>
      <point x="663.9560000000001" y="420.993" type="line"/>
      <point x="494.34299999999996" y="420.993" type="line"/>
      <point x="494.34299999999996" y="537.5009999999999" type="line"/>
      <point x="686.8340000000001" y="537.5009999999999" type="line"/>
      <point x="686.8340000000001" y="700.0" type="line"/>
      <point x="227.046" y="700.0" type="line"/>
    </contour>
    <contour>
      <point x="265.5729999999999" y="291.145" type="line"/>
      <point x="334.50600000000003" y="585.1610000000001" type="line"/>
      <point x="334.50600000000003" y="291.145" type="line"/>
    </contour>
  </outline>
</glyph>
<glyph name="multiply" format="2">
  <advance width="435.67199999999997"/>
  <unicode hex="00D7"/>
  <outline>
    <contour>
      <point x="136.52400000000003" y="140.37" type="line"/>
      <point x="217.724" y="229.946" type="line"/>
      <point x="299.13399999999996" y="140.53799999999998" type="line"/>
      <point x="400.15400000000005" y="243.09" type="line"/>
      <point x="320.912" y="331.602" type="line"/>
      <point x="400.056" y="420.47999999999996" type="line"/>
      <point x="299.036" y="523.032" type="line"/>
      <point x="217.724" y="433.384" type="line"/>
      <point x="136.51000000000002" y="523.0600000000001" type="line"/>
      <point x="35.49" y="420.508" type="line"/>
      <point x="114.57600000000002" y="331.602" type="line"/>
      <point x="35.504" y="242.92200000000003" type="line"/>
    </contour>
  </outline>
</glyph>
<glyph name="Oslash" format="2">
  <advance width="496.84000000000003"/>
  <unicode hex="00D8"/>
  <anchor x="249.68" y="700.0" name="top"/>
  <outline>
    <contour>
      <point x="95.61" y="-10.14" type="line"/>
      <point x="152.17000000000002" y="104.83" type="line"/>
      <point x="157.82999999999998" y="102.1" type="line"/>
      <point x="395.53999999999996" y="571.51" type="line"/>
      <point x="400.98999999999995" y="567.67" type="line"/>
      <point x="474.08" y="718.6" type="line"/>
      <point x="404.14000000000004" y="718.6" type="line"/>
      <point x="351.65" y="611.95" type="line"/>
      <point x="345.81" y="614.5" type="line"/>
      <point x="107.87" y="146.68" type="line"/>
      <point x="102.45" y="149.8" type="line"/>
      <point x="25.199999999999996" y="-10.14" type="line"/>
    </contour>
    <contour>
      <point x="249.68" y="130.86" type="curve" smooth="yes"/>
      <point x="199.14" y="130.86"/>
      <point x="171.78" y="165.63"/>
      <point x="171.78" y="349.07" type="curve" smooth="yes"/>
      <point x="171.78" y="533.83"/>
      <point x="199.85999999999999" y="569.14"/>
      <point x="249.68" y="569.14" type="curve" smooth="yes"/>
      <point x="300.43" y="569.14"/>
      <point x="328.04" y="535.66"/>
      <point x="328.04" y="350.71999999999997" type="curve" smooth="yes"/>
      <point x="328.04" y="166.06"/>
      <point x="299.71000000000004" y="130.86"/>
    </contour>
    <contour>
      <point x="248.95999999999998" y="-10.0" type="curve" smooth="yes"/>
      <point x="399.17" y="-10.0"/>
      <point x="480.32" y="74.21000000000001"/>
      <point x="480.32" y="352.15000000000003" type="curve" smooth="yes"/>
      <point x="480.32" y="627.3699999999999"/>
      <point x="399.34000000000003" y="710.0"/>
      <point x="249.68" y="710.0" type="curve" smooth="yes"/>
      <point x="99.80000000000001" y="710.0"/>
      <point x="18.959999999999997" y="625.47"/>
      <point x="18.959999999999997" y="348.34999999999997" type="curve" smooth="yes"/>
      <point x="18.959999999999997" y="74.03"/>
      <point x="99.36000000000001" y="-10.0"/>
    </contour>
  </outline>
</glyph>
<glyph name="Thorn" format="2">
  <advance width="482.71399999999994"/>
  <unicode hex="00DE"/>
  <outline>
    <contour>
      <point x="30.884000000000004" y="0.0" type="line"/>
      <point x="197.428" y="0.0" type="line"/>
      <point x="197.428" y="108.488" type="line"/>
      <point x="236.474" y="104.866"/>
      <point x="236.974" y="104.85199999999999"/>
      <point x="272.23" y="104.85199999999999" type="curve" smooth="yes"/>
      <point x="411.522" y="104.85199999999999"/>
      <point x="468.254" y="193.444"/>
      <point x="468.254" y="379.892" type="curve" smooth="yes"/>
      <point x="468.254" y="559.9000000000001"/>
      <point x="412.98800000000006" y="641.938"/>
      <point x="233.64400000000003" y="641.938" type="curve" smooth="yes"/>
      <point x="224.90599999999998" y="641.938"/>
      <point x="212.10399999999998" y="641.698"/>
      <point x="198.202" y="641.248" type="curve"/>
      <point x="198.202" y="700.0" type="line"/>
      <point x="30.884000000000004" y="700.0" type="line"/>
    </contour>
    <contour>
      <point x="234.688" y="260.99" type="curve" smooth="yes"/>
      <point x="222.544" y="260.99"/>
      <point x="214.88199999999998" y="261.118"/>
      <point x="198.202" y="263.178" type="curve"/>
      <point x="198.202" y="488.41799999999995" type="line"/>
      <point x="221.248" y="491.57399999999996"/>
      <point x="232.97400000000002" y="491.728"/>
      <point x="245.37999999999997" y="491.728" type="curve" smooth="yes"/>
      <point x="288.99600000000004" y="491.728"/>
      <point x="301.10799999999995" y="459.966"/>
      <point x="301.10799999999995" y="388.716" type="curve" smooth="yes"/>
      <point x="301.10799999999995" y="315.204"/>
      <point x="292.618" y="260.99"/>
    </contour>
  </outline>
</glyph>
<glyph name="germandbls" format="2">
  <advance width="592.786"/>
  <unicode hex="00DF"/>
  <outline>
    <contour>
      <point x="57.35" y="0.0" type="line"/>
      <point x="221.274" y="0.0" type="line"/>
      <point x="221.274" y="504.53800000000007" type="line" smooth="yes"/>
      <point x="221.274" y="567.388"/>
      <point x="253.38400000000001" y="604.784"/>
      <point x="317.96400000000006" y="604.784" type="curve" smooth="yes"/>
      <point x="366.522" y="604.784"/>
      <point x="383.93" y="592.896"/>
      <point x="383.93" y="564.628" type="curve" smooth="yes"/>
      <point x="383.93" y="541.7439999999999"/>
      <point x="371.766" y="533.0740000000001"/>
      <point x="333.86199999999997" y="510.496" type="curve" smooth="yes"/>
      <point x="282.57800000000003" y="483.43399999999997"/>
      <point x="255.39199999999997" y="441.54400000000004"/>
      <point x="255.39199999999997" y="372.05400000000003" type="curve" smooth="yes"/>
      <point x="255.39199999999997" y="270.88400000000007"/>
      <point x="294.072" y="227.238"/>
      <point x="375.85999999999996" y="204.376" type="curve" smooth="yes"/>
      <point x="426.33399999999995" y="188.58400000000003"/>
      <point x="436.488" y="184.69000000000003"/>
      <point x="436.488" y="165.02800000000002" type="curve" smooth="yes"/>
      <point x="436.488" y="144.28000000000003"/>
      <point x="418.05999999999995" y="132.756"/>
      <point x="385.566" y="132.756" type="curve" smooth="yes"/>
      <point x="343.114" y="132.756"/>
      <point x="298.37" y="141.064"/>
      <point x="258.554" y="152.032" type="curve"/>
      <point x="241.25799999999998" y="17.206" type="line"/>
      <point x="284.26000000000005" y="-1.4779999999999998"/>
      <point x="337.818" y="-9.928"/>
      <point x="391.754" y="-9.928" type="curve" smooth="yes"/>
      <point x="510.812" y="-9.928"/>
      <point x="589.772" y="51.26"/>
      <point x="589.772" y="175.012" type="curve" smooth="yes"/>
      <point x="589.772" y="266.958"/>
      <point x="553.7" y="316.796"/>
      <point x="466.43" y="340.62199999999996" type="curve" smooth="yes"/>
      <point x="417.93" y="354.542"/>
      <point x="408.864" y="366.064"/>
      <point x="408.864" y="383.07" type="curve" smooth="yes"/>
      <point x="408.864" y="400.382"/>
      <point x="418.2" y="406.64799999999997"/>
      <point x="449.77000000000004" y="421.12600000000003" type="curve" smooth="yes"/>
      <point x="525.464" y="454.2060000000001"/>
      <point x="555.046" y="493.98999999999995"/>
      <point x="555.046" y="566.52" type="curve" smooth="yes"/>
      <point x="555.046" y="686.4580000000001"/>
      <point x="469.016" y="750.0"/>
      <point x="309.694" y="750.0" type="curve" smooth="yes"/>
      <point x="148.13400000000001" y="750.0"/>
      <point x="57.300000000000004" y="674.2879999999999"/>
      <point x="57.35" y="535.988" type="curve" smooth="yes"/>
      <point x="57.35" y="518.806" type="line"/>
      <point x="7.204" y="510.63000000000005" type="line"/>
      <point x="7.204" y="384.526" type="line"/>
      <point x="57.35" y="384.526" type="line"/>
    </contour>
  </outline>
</glyph>
<glyph name="ae" format="2">
  <advance width="639.039"/>
  <unicode hex="00E6"/>
  <anchor x="320.76300000000003" y="547.2" name="top"/>
  <outline>
    <contour>
      <point x="142.496" y="-10.0" type="curve" smooth="yes"/>
      <point x="204.871" y="-10.0"/>
      <point x="246.64300000000003" y="11.444999999999999"/>
      <point x="293.15299999999996" y="52.724000000000004" type="curve"/>
      <point x="294.295" y="52.724000000000004" type="line"/>
      <point x="333.898" y="8.902999999999999"/>
      <point x="379.42699999999996" y="-10.0"/>
      <point x="450.592" y="-10.0" type="curve" smooth="yes"/>
      <point x="509.2169999999999" y="-10.0"/>
      <point x="563.1070000000001" y="1.4799999999999998"/>
      <point x="621.1390000000001" y="24.875999999999998" type="curve"/>
      <point x="599.2980000000001" y="166.28300000000002" type="line"/>
      <point x="556.2110000000001" y="154.494"/>
      <point x="505.293" y="145.844"/>
      <point x="478.71700000000004" y="145.844" type="curve" smooth="yes"/>
      <point x="421.81899999999996" y="145.844"/>
      <point x="397.99499999999995" y="159.07899999999998"/>
      <point x="397.351" y="208.785" type="curve" smooth="yes"/>
      <point x="397.20899999999995" y="211.84400000000002"/>
      <point x="397.20899999999995" y="216.018"/>
      <point x="397.315" y="217.929" type="curve"/>
      <point x="473.055" y="222.264"/>
      <point x="575.223" y="234.15099999999998"/>
      <point x="621.25" y="240.045" type="curve"/>
      <point x="622.0029999999999" y="258.66700000000003"/>
      <point x="623.0749999999999" y="286.06699999999995"/>
      <point x="623.0749999999999" y="301.424" type="curve" smooth="yes"/>
      <point x="623.0749999999999" y="487.138"/>
      <point x="568.0600000000001" y="557.2"/>
      <point x="434.949" y="557.2" type="curve" smooth="yes"/>
      <point x="390.821" y="557.2"/>
      <point x="353.609" y="544.7289999999999"/>
      <point x="320.044" y="510.708" type="curve"/>
      <point x="318.972" y="510.708" type="line"/>
      <point x="281.05600000000004" y="543.11"/>
      <point x="243.836" y="557.2"/>
      <point x="188.733" y="557.2" type="curve" smooth="yes"/>
      <point x="141.319" y="557.2"/>
      <point x="74.31" y="543.782"/>
      <point x="26.94" y="525.44" type="curve"/>
      <point x="59.024" y="377.796" type="line"/>
      <point x="113.716" y="394.997"/>
      <point x="153.141" y="396.55699999999996"/>
      <point x="174.65099999999998" y="396.55699999999996" type="curve" smooth="yes"/>
      <point x="210.652" y="396.55699999999996"/>
      <point x="230.546" y="381.12100000000004"/>
      <point x="230.546" y="355.519" type="curve" smooth="yes"/>
      <point x="230.546" y="337.92600000000004" type="line"/>
      <point x="76.561" y="324.085"/>
      <point x="7.650999999999999" y="279.206"/>
      <point x="7.650999999999999" y="156.16199999999998" type="curve" smooth="yes"/>
      <point x="7.650999999999999" y="51.81100000000001"/>
      <point x="59.385000000000005" y="-10.0"/>
    </contour>
    <contour>
      <point x="197.35099999999997" y="117.64399999999999" type="curve" smooth="yes"/>
      <point x="181.17199999999997" y="117.64399999999999"/>
      <point x="168.759" y="134.25"/>
      <point x="168.759" y="171.015" type="curve" smooth="yes"/>
      <point x="168.759" y="218.753"/>
      <point x="195.165" y="234.784"/>
      <point x="231.335" y="240.561" type="curve"/>
      <point x="231.40699999999998" y="229.374"/>
      <point x="231.40699999999998" y="215.53100000000003"/>
      <point x="231.40699999999998" y="205.13799999999998" type="curve" smooth="yes"/>
      <point x="231.40699999999998" y="181.104"/>
      <point x="232.03" y="157.233"/>
      <point x="233.47500000000002" y="137.112" type="curve"/>
      <point x="227.002" y="128.14200000000002"/>
      <point x="210.539" y="117.64399999999999"/>
    </contour>
    <contour>
      <point x="395.845" y="316.371" type="curve"/>
      <point x="393.00600000000003" y="407.84499999999997"/>
      <point x="410.014" y="427.403"/>
      <point x="426.71000000000004" y="427.403" type="curve" smooth="yes"/>
      <point x="449.323" y="427.403"/>
      <point x="457.52500000000003" y="402.369"/>
      <point x="460.535" y="320.75600000000003" type="curve"/>
      <point x="447.095" y="319.1"/>
      <point x="417.265" y="316.443"/>
    </contour>
  </outline>
</glyph>
<glyph name="eth" format="2">
  <advance width="449.62"/>
  <unicode hex="00F0"/>
  <outline>
    <contour>
      <point x="294.3" y="403.88000000000005" type="curve"/>
      <point x="302.14" y="516.8100000000001" type="line"/>
      <point x="273.13999999999993" y="530.56"/>
      <point x="241.39999999999998" y="537.24"/>
      <point x="209.42999999999998" y="537.24" type="curve" smooth="yes"/>
      <point x="71.4" y="537.24"/>
      <point x="16.810000000000002" y="444.64"/>
      <point x="16.810000000000002" y="247.32" type="curve" smooth="yes"/>
      <point x="16.810000000000002" y="71.53"/>
      <point x="80.77000000000001" y="-10.0"/>
      <point x="215.33" y="-10.0" type="curve" smooth="yes"/>
      <point x="377.13" y="-10.0"/>
      <point x="433.01" y="80.27000000000001"/>
      <point x="433.01" y="349.77" type="curve" smooth="yes"/>
      <point x="433.01" y="613.92"/>
      <point x="340.8" y="744.68"/>
      <point x="157.73" y="744.68" type="curve" smooth="yes"/>
      <point x="107.9" y="744.68"/>
      <point x="61.849999999999994" y="732.72"/>
      <point x="22.720000000000002" y="718.16" type="curve"/>
      <point x="39.68" y="615.51" type="line"/>
      <point x="65.17" y="623.08"/>
      <point x="92.07000000000001" y="630.45"/>
      <point x="121.05000000000001" y="630.45" type="curve" smooth="yes"/>
      <point x="239.88000000000002" y="630.45"/>
      <point x="274.62" y="577.9100000000001"/>
      <point x="274.62" y="374.59000000000003" type="curve" smooth="yes"/>
      <point x="274.62" y="135.29"/>
      <point x="261.46" y="105.25"/>
      <point x="222.66" y="105.25" type="curve" smooth="yes"/>
      <point x="189.84" y="105.25"/>
      <point x="177.23" y="138.04"/>
      <point x="177.23" y="248.29" type="curve" smooth="yes"/>
      <point x="177.23" y="396.1"/>
      <point x="197.56" y="418.78"/>
      <point x="236.94000000000003" y="418.78" type="curve" smooth="yes"/>
      <point x="255.92999999999998" y="418.78"/>
      <point x="273.83" y="414.46000000000004"/>
    </contour>
    <contour>
      <point x="152.93" y="556.5600000000001" type="line"/>
      <point x="267.26000000000005" y="631.29" type="line"/>
      <point x="269.57000000000005" y="635.87" type="line"/>
      <point x="422.93" y="745.23" type="line"/>
      <point x="315.49" y="745.95" type="line"/>
      <point x="219.32000000000002" y="678.85" type="line"/>
      <point x="220.22" y="674.1" type="line"/>
      <point x="49.2" y="557.2800000000001" type="line"/>
    </contour>
  </outline>
</glyph>
<glyph name="divide" format="2">
  <advance width="446.834"/>
  <unicode hex="00F7"/>
  <outline>
    <contour>
      <point x="141.154" y="126.70800000000001" type="curve" smooth="yes"/>
      <point x="141.154" y="74.59"/>
      <point x="165.94799999999998" y="48.580000000000005"/>
      <point x="223.522" y="48.580000000000005" type="curve" smooth="yes"/>
      <point x="280.38000000000005" y="48.580000000000005"/>
      <point x="305.962" y="74.59"/>
      <point x="305.962" y="126.70800000000001" type="curve" smooth="yes"/>
      <point x="305.962" y="179.548"/>
      <point x="280.38000000000005" y="205.62800000000001"/>
      <point x="223.522" y="205.62800000000001" type="curve" smooth="yes"/>
      <point x="165.878" y="205.62800000000001"/>
      <point x="141.154" y="179.548"/>
    </contour>
    <contour>
      <point x="141.154" y="519.2280000000001" type="curve" smooth="yes"/>
      <point x="141.154" y="467.18000000000006"/>
      <point x="165.94799999999998" y="441.31000000000006"/>
      <point x="223.522" y="441.31000000000006" type="curve" smooth="yes"/>
      <point x="280.38000000000005" y="441.31000000000006"/>
      <point x="305.962" y="467.18000000000006"/>
      <point x="305.962" y="519.2280000000001" type="curve" smooth="yes"/>
      <point x="305.962" y="572.3480000000001"/>
      <point x="280.38000000000005" y="598.2180000000001"/>
      <point x="223.522" y="598.2180000000001" type="curve" smooth="yes"/>
      <point x="165.878" y="598.2180000000001"/>
      <point x="141.154" y="572.3480000000001"/>
    </contour>
    <contour>
      <point x="43.57599999999999" y="251.90999999999997" type="line"/>
      <point x="403.468" y="251.90999999999997" type="line"/>
      <point x="403.468" y="396.25" type="line"/>
      <point x="43.57599999999999" y="396.25" type="line"/>
    </contour>
  </outline>
</glyph>
<glyph name="oslash" format="2">
  <advance width="458.55999999999995"/>
  <unicode hex="00F8"/>
  <anchor x="227.98" y="547.1999999999999" name="top"/>
  <outline>
    <contour>
      <point x="227.98" y="-10.0" type="curve" smooth="yes"/>
      <point x="56.17999999999999" y="-10.0"/>
      <point x="16.599999999999998" y="111.66"/>
      <point x="16.599999999999998" y="274.78000000000003" type="curve" smooth="yes"/>
      <point x="16.599999999999998" y="436.4700000000001"/>
      <point x="54.35999999999999" y="557.1999999999999"/>
      <point x="227.98" y="557.1999999999999" type="curve" smooth="yes"/>
      <point x="401.71" y="557.1999999999999"/>
      <point x="440.47" y="436.4700000000001"/>
      <point x="440.47" y="274.78000000000003" type="curve" smooth="yes"/>
      <point x="440.47" y="111.66"/>
      <point x="399.96" y="-10.0"/>
    </contour>
    <contour>
      <point x="228.18999999999997" y="125.35000000000001" type="curve" smooth="yes"/>
      <point x="272.23999999999995" y="125.35000000000001"/>
      <point x="286.41999999999996" y="144.44"/>
      <point x="286.41999999999996" y="274.78000000000003" type="curve" smooth="yes"/>
      <point x="286.41999999999996" y="403.94"/>
      <point x="273.78" y="422.78000000000003"/>
      <point x="228.18999999999997" y="422.78000000000003" type="curve" smooth="yes"/>
      <point x="181.06000000000003" y="422.78000000000003"/>
      <point x="170.07000000000002" y="403.94"/>
      <point x="170.07000000000002" y="274.78000000000003" type="curve" smooth="yes"/>
      <point x="170.07000000000002" y="144.44"/>
      <point x="182.67000000000002" y="125.35000000000001"/>
    </contour>
    <contour>
      <point x="14.200000000000001" y="-1.5400000000000005" type="line"/>
      <point x="96.27" y="135.97" type="line"/>
      <point x="99.57999999999998" y="135.48" type="line"/>
      <point x="313.93" y="468.14" type="line"/>
      <point x="317.65999999999997" y="467.65000000000003" type="line"/>
      <point x="372.53000000000003" y="557.1999999999999" type="line"/>
      <point x="442.87" y="557.1999999999999" type="line"/>
      <point x="362.47" y="425.84000000000003" type="line"/>
      <point x="358.95" y="426.33000000000004" type="line"/>
      <point x="142.07" y="87.66" type="line"/>
      <point x="138.34" y="88.14999999999999" type="line"/>
      <point x="83.68" y="-1.5400000000000005" type="line"/>
    </contour>
  </outline>
</glyph>
<glyph name="thorn" format="2">
  <advance width="445.414"/>
  <unicode hex="00FE"/>
  <outline>
    <contour>
      <point x="26.63" y="-210.0" type="line"/>
      <point x="189.218" y="-210.0" type="line"/>
      <point x="189.218" y="-8.37" type="line"/>
      <point x="198.292" y="-9.536000000000001"/>
      <point x="206.272" y="-10.0"/>
      <point x="214.704" y="-10.0" type="curve" smooth="yes"/>
      <point x="371.12600000000003" y="-10.0"/>
      <point x="430.49" y="71.85600000000001"/>
      <point x="430.49" y="290.036" type="curve" smooth="yes"/>
      <point x="430.49" y="472.472"/>
      <point x="382.46" y="557.2"/>
      <point x="280.446" y="557.2" type="curve" smooth="yes"/>
      <point x="252.664" y="557.2"/>
      <point x="216.24399999999997" y="545.534"/>
      <point x="190.76600000000002" y="529.0319999999999" type="curve"/>
      <point x="190.76600000000002" y="740.0" type="line"/>
      <point x="26.63" y="740.0" type="line"/>
    </contour>
    <contour>
      <point x="217.42800000000003" y="120.978" type="curve" smooth="yes"/>
      <point x="210.06199999999998" y="120.978"/>
      <point x="201.804" y="122.56"/>
      <point x="191.454" y="125.99000000000001" type="curve"/>
      <point x="191.454" y="394.72400000000005" type="line"/>
      <point x="203.662" y="401.762"/>
      <point x="211.828" y="404.854"/>
      <point x="222.958" y="404.854" type="curve" smooth="yes"/>
      <point x="247.81799999999998" y="404.854"/>
      <point x="257.582" y="376.33399999999995"/>
      <point x="257.582" y="272.578" type="curve" smooth="yes"/>
      <point x="257.582" y="148.82999999999998"/>
      <point x="247.504" y="120.978"/>
    </contour>
  </outline>
</glyph>
<glyph name="Dcroat" format="2">
  <advance width="488.53900000000004"/>
  <unicode hex="0110"/>
  <outline>
    <contour>
      <point x="0.5540000000000005" y="278.83600000000007" type="line"/>
      <point x="246.983" y="278.83600000000007" type="line"/>
      <point x="246.983" y="423.785" type="line"/>
      <point x="0.5540000000000005" y="423.785" type="line"/>
    </contour>
    <component base="D" xOffset="1.5210000000000004"/>
  </outline>
</glyph>
<glyph name="dcroat" format="2">
  <advance width="452.629"/>
  <unicode hex="0111"/>
  <outline>
    <contour>
      <point x="161.90800000000002" y="605.065" type="line"/>
      <point x="462.30499999999995" y="605.065" type="line"/>
      <point x="462.30499999999995" y="697.795" type="line"/>
      <point x="161.90800000000002" y="697.795" type="line"/>
    </contour>
    <component base="d"/>
  </outline>
</glyph>
<glyph name="Hbar" format="2">
  <advance width="489.886"/>
  <unicode hex="0126"/>
  <outline>
    <contour>
      <point x="2.4280000000000004" y="502.378" type="line"/>
      <point x="31.258000000000003" y="502.378" type="line"/>
      <point x="31.258000000000003" y="0.0" type="line"/>
      <point x="197.028" y="0.0" type="line"/>
      <point x="197.028" y="235.358" type="line"/>
      <point x="293.71799999999996" y="235.358" type="line"/>
      <point x="293.71799999999996" y="0.0" type="line"/>
      <point x="458.628" y="0.0" type="line"/>
      <point x="458.628" y="502.378" type="line"/>
      <point x="487.45799999999997" y="502.378" type="line"/>
      <point x="487.45799999999997" y="630.982" type="line"/>
      <point x="458.628" y="630.982" type="line"/>
      <point x="458.628" y="700.0" type="line"/>
      <point x="293.71799999999996" y="700.0" type="line"/>
      <point x="293.71799999999996" y="630.982" type="line"/>
      <point x="197.028" y="630.982" type="line"/>
      <point x="197.028" y="700.0" type="line"/>
      <point x="31.258000000000003" y="700.0" type="line"/>
      <point x="31.258000000000003" y="630.982" type="line"/>
      <point x="2.4280000000000004" y="630.982" type="line"/>
    </contour>
    <contour>
      <point x="197.028" y="401.86199999999997" type="line"/>
      <point x="197.028" y="502.378" type="line"/>
      <point x="293.71799999999996" y="502.378" type="line"/>
      <point x="293.71799999999996" y="401.86199999999997" type="line"/>
    </contour>
  </outline>
</glyph>
<glyph name="hbar" format="2">
  <advance width="444.147"/>
  <unicode hex="0127"/>
  <outline>
    <contour>
      <point x="-6.560999999999999" y="605.065" type="line"/>
      <point x="278.515" y="605.065" type="line"/>
      <point x="278.515" y="697.795" type="line"/>
      <point x="-6.560999999999999" y="697.795" type="line"/>
    </contour>
    <component base="h"/>
  </outline>
</glyph>
<glyph name="Idotaccent" format="2">
  <advance width="227.538"/>
  <unicode hex="0130"/>
  <outline>
    <contour>
      <point x="114.93" y="731.826" type="curve" smooth="yes"/>
      <point x="177.634" y="731.826"/>
      <point x="208.26399999999998" y="763.872"/>
      <point x="208.26399999999998" y="828.8059999999999" type="curve" smooth="yes"/>
      <point x="208.26399999999998" y="895.288"/>
      <point x="176.08599999999998" y="926.56"/>
      <point x="114.93" y="926.56" type="curve" smooth="yes"/>
      <point x="53.00000000000001" y="926.56"/>
      <point x="20.822000000000003" y="895.288"/>
      <point x="20.822000000000003" y="828.8059999999999" type="curve" smooth="yes"/>
      <point x="20.822000000000003" y="763.098"/>
      <point x="53.14000000000001" y="731.826"/>
    </contour>
    <component base="I"/>
  </outline>
</glyph>
<glyph name="dotlessi" format="2">
  <advance width="219.632"/>
  <unicode hex="0131"/>
  <anchor x="187.312" y="8.6" name="ogonek"/>
  <anchor x="111.36399999999999" y="0.0" name="bottom"/>
  <anchor x="109.816" y="547.2" name="top"/>
  <outline>
    <contour>
      <point x="26.63" y="0.0" type="line"/>
      <point x="193.002" y="0.0" type="line"/>
      <point x="193.002" y="547.2" type="line"/>
      <point x="26.63" y="547.2" type="line"/>
    </contour>
  </outline>
</glyph>
<glyph name="kgreenlandic" format="2">
  <advance width="432.72999999999996"/>
  <unicode hex="0138"/>
  <anchor x="221.16000000000003" y="547.1999999999999" name="top"/>
  <anchor x="221.16000000000003" y="0.0" name="bottom"/>
  <outline>
    <contour>
      <point x="381.54" y="-9.870000000000001" type="curve" smooth="yes"/>
      <point x="395.17" y="-9.870000000000001"/>
      <point x="408.05" y="-8.87"/>
      <point x="422.55" y="-5.4" type="curve"/>
      <point x="422.02" y="161.92" type="line"/>
      <point x="418.63000000000005" y="161.92"/>
      <point x="416.0" y="161.64"/>
      <point x="413.11" y="161.64" type="curve" smooth="yes"/>
      <point x="384.60999999999996" y="161.64"/>
      <point x="359.65999999999997" y="179.16"/>
      <point x="292.08000000000004" y="270.06" type="curve" smooth="yes"/>
      <point x="175.6" y="426.95000000000005" type="line"/>
      <point x="175.6" y="547.1999999999999" type="line"/>
      <point x="29.94" y="547.1999999999999" type="line"/>
      <point x="29.94" y="0.0" type="line"/>
      <point x="175.6" y="0.0" type="line"/>
      <point x="175.6" y="178.75000000000003" type="line"/>
      <point x="251.01999999999998" y="78.58" type="line" smooth="yes"/>
      <point x="303.5" y="8.879999999999999"/>
      <point x="333.79" y="-9.870000000000001"/>
    </contour>
    <contour>
      <point x="267.9" y="218.39" type="line"/>
      <point x="347.37" y="321.68999999999994"/>
      <point x="412.96000000000004" y="440.03999999999996"/>
      <point x="427.34999999999997" y="540.4" type="curve"/>
      <point x="277.94" y="550.27" type="line"/>
      <point x="269.1" y="452.67"/>
      <point x="232.70999999999998" y="393.37"/>
      <point x="171.10999999999999" y="316.96" type="curve"/>
    </contour>
  </outline>
</glyph>
<glyph name="Ldot" format="2">
  <advance width="388.48"/>
  <unicode hex="013F"/>
  <outline>
    <contour>
      <point x="246.34400000000002" y="395.954" type="curve" smooth="yes"/>
      <point x="246.34400000000002" y="348.564"/>
      <point x="264.30000000000007" y="325.72"/>
      <point x="308.03000000000003" y="325.72" type="curve" smooth="yes"/>
      <point x="352.674" y="325.72"/>
      <point x="370.49" y="348.564"/>
      <point x="370.49" y="395.954" type="curve" smooth="yes"/>
      <point x="370.49" y="444.20399999999995"/>
      <point x="352.674" y="467.04799999999994"/>
      <point x="308.03000000000003" y="467.04799999999994" type="curve" smooth="yes"/>
      <point x="264.16" y="467.04799999999994"/>
      <point x="246.34400000000002" y="444.20399999999995"/>
    </contour>
    <component base="L"/>
  </outline>
</glyph>
<glyph name="ldot" format="2">
  <advance width="349.53000000000003"/>
  <unicode hex="0140"/>
  <outline>
    <contour>
      <point x="284.64000000000004" y="308.854" type="curve" smooth="yes"/>
      <point x="320.34" y="308.854"/>
      <point x="340.822" y="329.118"/>
      <point x="340.822" y="377.71199999999993" type="curve" smooth="yes"/>
      <point x="340.822" y="427.08"/>
      <point x="320.34" y="447.344"/>
      <point x="284.64000000000004" y="447.344" type="curve" smooth="yes"/>
      <point x="249.71399999999997" y="447.344"/>
      <point x="229.232" y="427.08"/>
      <point x="229.232" y="377.71199999999993" type="curve" smooth="yes"/>
      <point x="229.232" y="329.118"/>
      <point x="249.85399999999998" y="308.854"/>
    </contour>
    <component base="l"/>
  </outline>
</glyph>
<glyph name="Lslash" format="2">
  <advance width="404.662"/>
  <unicode hex="0141"/>
  <outline>
    <contour>
      <point x="7.8599999999999985" y="204.71" type="line"/>
      <point x="47.066" y="228.65" type="line"/>
      <point x="47.066" y="0.0" type="line"/>
      <point x="393.00199999999995" y="0.0" type="line"/>
      <point x="393.00199999999995" y="161.086" type="line"/>
      <point x="213.60999999999999" y="161.086" type="line"/>
      <point x="213.60999999999999" y="313.20199999999994" type="line"/>
      <point x="329.118" y="378.78999999999996" type="line"/>
      <point x="329.118" y="536.6859999999999" type="line"/>
      <point x="213.60999999999999" y="471.22400000000005" type="line"/>
      <point x="213.60999999999999" y="700.0" type="line"/>
      <point x="47.066" y="700.0" type="line"/>
      <point x="47.066" y="386.672" type="line"/>
      <point x="7.8599999999999985" y="362.732" type="line"/>
    </contour>
  </outline>
</glyph>
<glyph name="lslash" format="2">
  <advance width="273.67800000000005"/>
  <unicode hex="0142"/>
  <outline>
    <contour>
      <point x="172.304" y="-10.0" type="curve" smooth="yes"/>
      <point x="209.15800000000002" y="-10.0"/>
      <point x="243.438" y="2.4040000000000004"/>
      <point x="264.534" y="14.226" type="curve"/>
      <point x="253.31" y="168.174" type="line"/>
      <point x="242.844" y="165.898"/>
      <point x="233.578" y="164.456"/>
      <point x="226.82799999999997" y="164.456" type="curve" smooth="yes"/>
      <point x="211.72199999999998" y="164.456"/>
      <point x="201.60200000000003" y="172.63799999999998"/>
      <point x="201.60200000000003" y="212.136" type="curve" smooth="yes"/>
      <point x="201.60200000000003" y="347.81" type="line"/>
      <point x="258.36" y="393.17600000000004" type="line"/>
      <point x="258.36" y="530.6600000000001" type="line"/>
      <point x="201.60200000000003" y="485.294" type="line"/>
      <point x="201.60200000000003" y="740.0" type="line"/>
      <point x="37.552" y="740.0" type="line"/>
      <point x="37.552" y="353.454" type="line"/>
      <point x="2.338" y="324.916" type="line"/>
      <point x="2.338" y="187.558" type="line"/>
      <point x="37.724" y="216.056" type="line"/>
      <point x="37.896" y="168.44799999999998" type="line" smooth="yes"/>
      <point x="39.358" y="39.162"/>
      <point x="80.95" y="-10.0"/>
    </contour>
  </outline>
</glyph>
<glyph name="Eng" format="2">
  <advance width="496.24"/>
  <unicode hex="014A"/>
  <outline>
    <contour>
      <point x="30.854999999999997" y="0.0" type="line"/>
      <point x="177.49" y="0.0" type="line"/>
      <point x="177.49" y="337.03499999999997" type="line"/>
      <point x="305.205" y="-3.099999999999999" type="line"/>
      <point x="305.205" y="-7.409999999999999" type="line" smooth="yes"/>
      <point x="305.135" y="-28.905"/>
      <point x="289.92" y="-41.03"/>
      <point x="263.235" y="-41.03" type="curve" smooth="yes"/>
      <point x="249.47" y="-41.03"/>
      <point x="234.96" y="-40.425000000000004"/>
      <point x="214.70499999999998" y="-32.510000000000005" type="curve"/>
      <point x="185.39499999999998" y="-179.64999999999998" type="line"/>
      <point x="214.68" y="-195.555"/>
      <point x="248.79" y="-208.415"/>
      <point x="301.72" y="-208.415" type="curve" smooth="yes"/>
      <point x="406.35" y="-208.415"/>
      <point x="465.385" y="-142.05"/>
      <point x="465.385" y="-14.73" type="curve" smooth="yes"/>
      <point x="465.385" y="700.0" type="line"/>
      <point x="319.17999999999995" y="700.0" type="line"/>
      <point x="319.17999999999995" y="340.16499999999996" type="line"/>
      <point x="201.57500000000002" y="700.14" type="line"/>
      <point x="30.854999999999997" y="700.14" type="line"/>
    </contour>
  </outline>
</glyph>
<glyph name="eng" format="2">
  <advance width="444.85799999999995"/>
  <unicode hex="014B"/>
  <outline>
    <contour>
      <point x="419.776" y="21.6" type="curve"/>
      <point x="419.776" y="424.724" type="line" smooth="yes"/>
      <point x="419.776" y="505.88399999999996"/>
      <point x="381.23600000000005" y="557.2"/>
      <point x="302.11800000000005" y="557.2" type="curve" smooth="yes"/>
      <point x="254.734" y="557.2"/>
      <point x="213.63800000000003" y="540.848"/>
      <point x="175.63" y="510.82199999999995" type="curve"/>
      <point x="175.63" y="547.2" type="line"/>
      <point x="26.63" y="547.2" type="line"/>
      <point x="26.63" y="0.0" type="line"/>
      <point x="191.454" y="0.0" type="line"/>
      <point x="191.454" y="390.492" type="line"/>
      <point x="202.304" y="396.732"/>
      <point x="214.672" y="402.604"/>
      <point x="227.964" y="402.604" type="curve" smooth="yes"/>
      <point x="244.944" y="402.604"/>
      <point x="254.95200000000003" y="392.06"/>
      <point x="254.95200000000003" y="368.996" type="curve" smooth="yes"/>
      <point x="254.95200000000003" y="17.244" type="line" smooth="yes"/>
      <point x="254.95200000000003" y="-17.164"/>
      <point x="248.12399999999997" y="-33.264"/>
      <point x="234.254" y="-37.74399999999999" type="curve" smooth="yes"/>
      <point x="230.044" y="-38.45800000000001"/>
      <point x="223.168" y="-38.086"/>
      <point x="219.248" y="-37.574000000000005" type="curve"/>
      <point x="212.696" y="-212.226" type="line"/>
      <point x="230.986" y="-215.92600000000002"/>
      <point x="250.52599999999995" y="-216.892"/>
      <point x="273.736" y="-216.052" type="curve" smooth="yes"/>
      <point x="364.806" y="-210.9"/>
      <point x="419.776" y="-123.79799999999999"/>
    </contour>
  </outline>
</glyph>
<glyph name="OE" format="2">
  <advance width="671.514"/>
  <unicode hex="0152"/>
  <outline>
    <contour>
      <point x="656.4069999999999" y="0.0" type="line"/>
      <point x="656.4069999999999" y="158.734" type="line"/>
      <point x="456.30199999999996" y="158.734" type="line"/>
      <point x="456.30199999999996" y="275.999" type="line"/>
      <point x="620.8479999999998" y="275.999" type="line"/>
      <point x="620.8479999999998" y="425.33299999999997" type="line"/>
      <point x="456.30199999999996" y="425.33299999999997" type="line"/>
      <point x="456.30199999999996" y="537.5709999999999" type="line"/>
      <point x="643.7259999999999" y="537.5709999999999" type="line"/>
      <point x="643.7259999999999" y="700.0" type="line"/>
      <point x="416.84900000000005" y="700.0" type="line"/>
      <point x="364.678" y="706.977"/>
      <point x="314.566" y="709.23"/>
      <point x="264.69100000000003" y="709.23" type="curve" smooth="yes"/>
      <point x="82.256" y="709.23"/>
      <point x="14.899000000000003" y="594.2180000000001"/>
      <point x="14.899000000000003" y="353.72400000000005" type="curve" smooth="yes"/>
      <point x="14.899000000000003" y="71.81799999999998"/>
      <point x="98.00099999999999" y="-9.51"/>
      <point x="261.10900000000004" y="-9.51" type="curve" smooth="yes"/>
      <point x="315.471" y="-9.51"/>
      <point x="383.08299999999997" y="-8.049000000000001"/>
      <point x="455.54900000000004" y="0.0" type="curve"/>
    </contour>
    <contour>
      <point x="290.32199999999995" y="145.10300000000004" type="line"/>
      <point x="279.747" y="143.10300000000004"/>
      <point x="264.402" y="141.138"/>
      <point x="248.24699999999993" y="141.138" type="curve" smooth="yes"/>
      <point x="206.309" y="141.138"/>
      <point x="186.79000000000002" y="189.24300000000002"/>
      <point x="186.79000000000002" y="350.356" type="curve" smooth="yes"/>
      <point x="186.79000000000002" y="514.687"/>
      <point x="204.11599999999999" y="557.1790000000001"/>
      <point x="249.171" y="557.1790000000001" type="curve" smooth="yes"/>
      <point x="265.315" y="557.1790000000001"/>
      <point x="273.931" y="555.0720000000001"/>
      <point x="290.32199999999995" y="553.0720000000001" type="curve"/>
    </contour>
  </outline>
</glyph>
